<svg id="Capa_1" data-name="Capa 1" xmlns="http://www.w3.org/2000/svg" viewBox="0 0 896.39 1005.86"><defs><style>.cls-1,.cls-10,.cls-3{font-size:31px;}.cls-1,.cls-3,.cls-5{fill:#1d1d1b;}.cls-1,.cls-10{font-family:ArialMT, Arial;}.cls-2{letter-spacing:-0.06em;}.cls-3{font-family:Arial-BoldMT, Arial;font-weight:700;}.cls-4{letter-spacing:-0.04em;}.cls-6{fill:#e30613;}.cls-7{fill:#e94e1b;}.cls-8{fill:#be1622;}.cls-9{fill:none;stroke:#1d71b8;stroke-miterlimit:10;stroke-width:4px;}.cls-10{fill:#1d71b8;}</style></defs><text class="cls-1" transform="translate(0 123.31)">SANTIAGO</text><text class="cls-1" transform="translate(741.33 255.84)">MENDOZ<tspan class="cls-2" x="134.32" y="0">A</tspan></text><text class="cls-3" transform="translate(17.86 926.05)">CHILE</text><text class="cls-3" transform="translate(692.68 62.89)">ARGENTIN<tspan class="cls-4" x="161.89" y="0">A</tspan></text><path class="cls-5" d="M541.06,59.62c9.75,39.53-16.89,83.57-55.41,95.46A77.35,77.35,0,0,1,470.58,158c-5.64.59-11.19,1.5-15.56,5.42-3.91,3.5-6,8.6-7.48,13.53-1.87,6.37-3.11,13-4.49,19.46-5.53,26-9.66,54.05-1,79.9,6.8,20.28,21.09,38.93,42,45.85,24.45,8.12,52-1.19,75.21,11.77,18.71,10.43,30.23,30.57,34.76,51,5.83,26.3-.54,53.68-8.75,78.75-8,24.43-17,48.85-27.37,72.38-9.78,22.23-21.53,44-37.64,62.3a159.57,159.57,0,0,1-12.56,12.79c-2.38,2.17,1.16,5.7,3.54,3.53,37-33.69,54.52-82.21,71.26-128,9.63-26.35,19-53.68,18.7-82.09-.25-21.65-7.24-43.54-21.45-60.12A65,65,0,0,0,555,326.38c-12.07-4.91-25.27-5.1-38.11-5.31-13.06-.21-26.57-.54-38.46-6.63-9.81-5-17.74-13.09-23.54-22.4-14-22.56-14.56-49.67-10.59-75.22,1.13-7.28,2.59-14.52,4.15-21.72,1.35-6.24,2.48-12.67,4.52-18.74,1.82-5.43,4.89-10.4,10.67-12.15,5.45-1.65,11.36-1.47,16.93-2.64,39.5-8.32,69.45-48.69,67.47-88.75a76.64,76.64,0,0,0-2.15-14.53c-.77-3.13-5.6-1.8-4.82,1.33Z" transform="translate(-96.62 -56.5)"/><path class="cls-5" d="M504.47,614l-7,79.37c-.56,6.27-.95,12.57-1.7,18.81-.67,5.59-2.24,10.77-6.54,14.64-4.12,3.69-9.49,5.94-14.39,8.38q-8,4-16.12,7.92c-21.85,10.49-44.47,20-68.44,24.34-11.95,2.16-24.21,1.92-36.1,4.38a46.72,46.72,0,0,0-22.56,11.33c-11.24,10.4-17.26,26-17.32,41.2a52.13,52.13,0,0,0,4.83,22.4c3.7,7.85,9.76,14.11,16.91,18.92,17.32,11.65,38.79,13.87,57.8,21.58,17.69,7.18,34.84,19,44.29,36,5.45,9.79,7.09,20.46,7.23,31.54.15,12.2-.8,24.62,2.72,36.48,2.86,9.64,7.82,18.5,12.35,27.41,4.28,8.4,8.93,17.51,9.24,27.13a25.89,25.89,0,0,1-2.83,12.78c-1.46,2.86,2.85,5.39,4.32,2.52,9.48-18.54-2.91-37.79-11.15-54.23-5-10-8.8-20-9.46-31.24-.73-12.41.73-24.92-1.61-37.21-3.71-19.5-17.52-35.08-33.76-45.64a119.92,119.92,0,0,0-26.47-12.72c-9.92-3.41-20.16-5.8-30.09-9.2s-19.54-7.82-27.07-15.15a40.47,40.47,0,0,1-10.87-19.38A53.2,53.2,0,0,1,329.51,793a41.15,41.15,0,0,1,17.25-13.75c11-4.52,23.34-4,35-5.47,23.9-2.91,46.59-11.22,68.4-21.12,11-5,21.95-10.36,32.73-15.88,4.71-2.41,9.4-5.19,12.69-9.42,3.41-4.39,4.58-9.75,5.21-15.16,1.52-13,2.34-26.08,3.49-39.09l3.5-39.69,1.72-19.4c.28-3.21-4.72-3.19-5,0Z" transform="translate(-96.62 -56.5)"/><circle class="cls-6" cx="744.21" cy="756.94" r="23.49"/><circle class="cls-6" cx="62.89" cy="593.47" r="23.49"/><text class="cls-1" transform="translate(16.31 654.83)">Curico</text><text class="cls-1" transform="translate(678.11 817.55)">Malargue</text><polygon class="cls-7" points="389.63 175.57 407.99 212.78 449.05 218.75 419.34 247.71 426.35 288.61 389.63 269.3 352.9 288.61 359.91 247.71 330.2 218.75 371.26 212.78 389.63 175.57"/><polygon class="cls-8" points="363.91 181.76 397.19 206.54 436.47 193.17 423.19 232.48 448.05 265.71 406.56 265.22 382.64 299.13 370.27 259.52 330.64 247.25 364.49 223.25 363.91 181.76"/><line class="cls-9" x1="806.04" y1="299.13" x2="785.32" y2="449.9"/><line class="cls-9" x1="776.37" y1="523.16" x2="744.21" y2="696.79"/><line class="cls-9" x1="692.68" y1="743.78" x2="537.57" y2="691.89"/><line class="cls-9" x1="381.27" y1="633.39" x2="315.26" y2="616.96"/><line class="cls-9" x1="315.26" y1="569.98" x2="348.27" y2="399.96"/><text class="cls-10" transform="translate(777.44 450.26) rotate(7.82)">v</text><text class="cls-10" transform="translate(736.1 698.92) rotate(7.82)">v</text><text class="cls-10" transform="matrix(-0.36, 0.93, -0.93, -0.36, 537.19, 683.73)">v</text><text class="cls-10" transform="translate(315.26 608.97) rotate(103.97)">v</text><text class="cls-10" transform="matrix(-0.98, -0.19, 0.19, -0.98, 356.53, 399.06)">v</text></svg>