<?xml version="1.0" standalone="no"?>
<!DOCTYPE svg PUBLIC "-//W3C//DTD SVG 20010904//EN"
 "http://www.w3.org/TR/2001/REC-SVG-20010904/DTD/svg10.dtd">
<svg version="1.0" xmlns="http://www.w3.org/2000/svg"
 width="3236.000000pt" height="2099.000000pt" viewBox="0 0 3236.000000 2099.000000"
 preserveAspectRatio="xMidYMid meet">

<g transform="translate(0.000000,2099.000000) scale(0.100000,-0.100000)"
fill="#000000" stroke="none">
<path d="M210 20790 l0 -180 25 0 25 0 0 133 0 132 88 -132 c76 -116 90 -133
115 -133 l27 0 0 180 0 180 -25 0 -25 0 0 -137 0 -138 -92 138 c-74 111 -95
137 -114 137 l-24 0 0 -180z"/>
<path d="M2280 20911 l0 -60 -33 14 c-83 35 -159 -45 -143 -149 9 -55 30 -85
73 -102 37 -16 67 -11 96 14 15 14 17 13 17 -1 0 -10 8 -17 20 -17 19 0 20 7
20 180 l0 180 -25 0 c-24 0 -25 -3 -25 -59z m-27 -91 c64 -50 34 -180 -42
-180 -58 0 -85 127 -36 175 29 30 45 31 78 5z"/>
<path d="M935 20873 c-11 -3 -28 -12 -37 -21 -16 -14 -18 -14 -18 1 0 10 -8
17 -20 17 -19 0 -20 -7 -20 -130 l0 -130 25 0 c25 0 25 0 25 95 0 82 3 98 20
115 11 11 28 20 38 20 35 0 42 -21 42 -127 l0 -103 25 0 c25 0 25 1 25 90 0
83 2 93 25 115 28 29 47 31 69 9 12 -12 16 -38 16 -115 l0 -99 26 0 26 0 -4
110 c-3 97 -5 112 -25 132 -30 29 -86 30 -115 1 -20 -21 -22 -21 -37 -3 -18
20 -55 30 -86 23z"/>
<path d="M1321 20867 c-52 -18 -75 -57 -76 -127 0 -44 5 -65 21 -87 29 -38 85
-56 135 -43 34 10 79 50 79 71 0 18 -40 8 -64 -16 -14 -14 -37 -25 -51 -25
-31 0 -75 41 -75 70 0 19 6 20 95 20 l95 0 0 35 c0 26 -8 44 -32 69 -38 40
-79 50 -127 33z m86 -42 c11 -8 23 -24 26 -35 5 -19 1 -20 -69 -20 -83 0 -95
12 -48 49 31 25 61 27 91 6z"/>
<path d="M1602 20865 c-12 -9 -22 -11 -22 -6 0 6 -9 11 -20 11 -19 0 -20 -7
-20 -130 0 -121 1 -130 19 -130 17 0 19 10 23 94 4 104 16 129 57 124 20 -2
27 2 29 20 2 12 -1 22 -6 22 -6 0 -16 2 -24 5 -7 3 -23 -2 -36 -10z"/>
<path d="M1773 20873 c-60 -12 -103 -100 -84 -170 15 -55 37 -81 77 -92 103
-28 183 61 154 170 -11 40 -51 89 -74 89 -6 0 -20 2 -31 4 -11 2 -30 2 -42 -1z
m61 -44 c75 -34 51 -189 -29 -189 -37 0 -66 31 -72 77 -7 51 10 96 40 111 29
14 32 14 61 1z"/>
<path d="M2461 20867 c-54 -19 -76 -57 -76 -132 0 -53 4 -67 24 -89 54 -57
155 -53 192 7 19 32 19 32 -2 35 -12 2 -30 -7 -44 -22 -14 -15 -35 -26 -50
-26 -31 0 -75 41 -75 70 0 19 6 20 96 20 l97 0 -6 41 c-6 47 -29 76 -74 95
-38 16 -38 16 -82 1z m89 -47 c38 -38 27 -50 -50 -50 -77 0 -89 12 -48 50 28
26 72 26 98 0z"/>
<path d="M560 20786 c0 -111 8 -144 38 -164 31 -21 88 -19 113 4 17 16 19 16
19 1 0 -10 8 -17 20 -17 19 0 20 7 20 130 0 123 -1 130 -20 130 -18 0 -20 -7
-20 -82 0 -94 -13 -128 -52 -142 -22 -8 -32 -6 -48 9 -17 16 -20 30 -20 117 0
98 0 98 -25 98 -25 0 -25 -1 -25 -84z"/>
<path d="M226 20348 c-9 -12 -16 -35 -16 -50 0 -21 -5 -28 -20 -28 -12 0 -20
-7 -20 -16 0 -9 9 -18 20 -21 18 -5 20 -14 20 -114 l0 -109 25 0 25 0 0 109
c0 106 1 110 22 113 13 2 24 11 26 21 3 13 -3 17 -23 17 -23 0 -26 4 -23 28 2
21 9 28 31 30 19 2 27 9 27 23 0 29 -73 27 -94 -3z"/>
<path d="M620 20191 l0 -181 25 0 25 0 -2 178 c-3 175 -3 177 -25 180 l-23 3
0 -180z"/>
<path d="M730 20190 l0 -180 25 0 25 0 0 180 0 180 -25 0 -25 0 0 -180z"/>
<path d="M1370 20346 c0 -21 5 -26 26 -26 21 0 25 4 22 23 -2 14 -11 23 -25
25 -19 3 -23 -1 -23 -22z"/>
<path d="M1647 20363 c-4 -3 -7 -30 -7 -59 l0 -52 -30 15 c-24 11 -37 12 -64
3 -43 -14 -61 -35 -75 -87 -28 -104 48 -201 134 -173 18 6 36 16 39 23 2 7 5
4 5 -5 1 -11 9 -18 21 -18 19 0 20 7 20 180 0 168 -1 180 -18 180 -10 0 -22
-3 -25 -7z m-42 -129 c24 -10 45 -58 45 -104 0 -30 -6 -47 -25 -65 -29 -30
-55 -32 -86 -6 -21 16 -24 28 -24 81 0 53 3 65 24 81 25 20 39 23 66 13z"/>
<path d="M403 20269 c-17 -5 -41 -21 -52 -35 -36 -46 0 -62 43 -19 29 29 62
32 94 9 39 -27 28 -51 -25 -58 -107 -15 -133 -34 -133 -95 0 -57 95 -86 154
-48 21 14 25 14 30 2 3 -8 14 -15 24 -15 17 0 18 8 14 108 -2 59 -8 115 -13
124 -5 9 -26 22 -47 28 -43 11 -46 11 -89 -1z m107 -154 c0 -57 -86 -98 -124
-59 -32 31 -13 53 60 69 33 7 60 13 62 14 1 1 2 -10 2 -24z"/>
<path d="M913 20273 c-32 -6 -72 -51 -83 -94 -30 -110 65 -206 163 -165 31 12
67 49 67 67 0 20 -38 11 -58 -13 -23 -27 -53 -35 -87 -22 -16 6 -45 54 -45 74
0 6 37 10 101 10 l101 0 -7 33 c-10 45 -32 85 -53 96 -24 12 -73 19 -99 14z
m82 -58 c39 -38 32 -45 -50 -45 -46 0 -75 4 -75 10 0 21 49 60 75 60 14 0 37
-11 50 -25z"/>
<path d="M1180 20267 c-68 -24 -97 -134 -54 -208 38 -66 136 -72 184 -12 25
32 26 50 3 55 -11 2 -26 -8 -38 -27 -25 -37 -63 -43 -96 -16 -21 17 -24 28
-24 81 0 53 3 65 24 81 32 26 66 24 89 -6 24 -31 63 -35 55 -6 -13 51 -83 79
-143 58z"/>
<path d="M1821 20267 c-53 -18 -76 -58 -76 -127 0 -71 24 -109 80 -128 49 -16
95 -2 130 39 20 25 25 41 25 88 0 67 -22 105 -76 127 -39 16 -39 16 -83 1z
m82 -47 c32 -25 43 -76 27 -124 -19 -60 -73 -74 -115 -31 -20 19 -25 34 -25
75 0 41 5 56 25 75 29 30 54 31 88 5z"/>
<path d="M2072 20265 c-39 -17 -56 -55 -40 -89 10 -23 70 -56 102 -56 25 0 58
-34 51 -53 -14 -36 -98 -34 -110 3 -4 13 -15 20 -31 20 -28 0 -29 -2 -9 -40
40 -78 195 -50 195 35 0 41 -21 59 -93 80 -61 18 -78 35 -57 60 19 23 66 19
87 -8 19 -23 53 -25 53 -3 0 21 -43 54 -80 60 -21 4 -48 0 -68 -9z"/>
<path d="M1370 20140 l0 -130 25 0 25 0 0 130 0 130 -25 0 -25 0 0 -130z"/>
<path d="M1430 18870 l0 -730 -412 -2 -413 -3 -3 -62 -3 -63 417 0 417 0 -6
-367 c-4 -203 -7 -500 -7 -660 l0 -293 -410 0 -410 0 0 -60 0 -60 410 0 410 0
0 -660 0 -660 -380 0 -380 0 0 -60 0 -60 380 0 380 0 0 -660 0 -660 -410 0
-411 0 3 -62 3 -63 408 -3 407 -2 0 -233 c0 -129 -3 -423 -7 -655 l-6 -422
-401 -2 -401 -3 0 -60 0 -60 403 -3 402 -2 0 -655 0 -655 -402 -2 -403 -3 0
-60 0 -60 403 -3 402 -2 0 -655 0 -655 -402 -2 -403 -3 -3 -62 -3 -63 406 0
405 0 0 -427 c0 -236 -3 -533 -7 -660 l-6 -233 -399 0 -398 0 0 -60 0 -60 400
0 400 0 0 -660 0 -660 -400 0 -401 0 3 -62 3 -63 398 -3 397 -2 0 -655 0 -655
-400 0 -401 0 3 -63 3 -62 398 -3 397 -2 0 -515 0 -515 -615 0 -615 0 0 -65 0
-65 613 0 612 0 0 -702 0 -703 60 0 60 0 3 702 2 703 500 0 500 0 0 -380 0
-380 65 0 65 0 0 380 0 380 670 0 670 0 0 -380 0 -380 65 0 65 0 0 380 0 380
670 0 670 0 0 -380 0 -380 65 0 65 0 0 380 0 380 665 0 665 0 2 -382 3 -383
63 -3 62 -3 0 386 0 385 670 0 670 0 0 -380 0 -380 65 0 65 0 0 380 0 380 670
0 670 0 0 -380 0 -380 65 0 65 0 0 380 0 380 675 0 675 0 0 -390 0 -390 60 0
60 0 0 390 0 390 680 0 680 0 0 -390 0 -390 60 0 60 0 0 390 0 390 665 0 665
0 0 -395 0 -395 65 0 65 0 0 395 0 395 670 0 670 0 0 -395 0 -395 65 0 65 0 0
395 0 395 665 0 665 0 0 -380 0 -380 65 0 65 0 0 380 0 380 670 0 670 0 0
-395 0 -395 65 0 65 0 0 395 0 395 665 0 665 0 0 -395 0 -395 65 0 65 0 0 395
0 395 675 0 675 0 0 -395 0 -395 60 0 60 0 0 395 0 395 655 0 655 0 0 -395 0
-395 65 0 65 0 0 395 0 395 665 0 665 0 0 -395 0 -395 65 0 65 0 0 395 0 395
665 0 665 0 0 -400 0 -400 65 0 65 0 0 400 0 400 665 0 665 0 0 -400 0 -400
65 0 65 0 0 400 0 400 660 0 660 0 0 -400 0 -400 65 0 65 0 0 400 0 400 870 0
870 0 0 65 0 65 -570 0 -570 0 0 440 0 440 -670 0 -670 0 0 -440 0 -440 -50 0
-50 0 -2 442 -3 443 -667 3 -668 2 0 -445 0 -445 -60 0 -60 0 0 3110 0 3110
-675 0 -675 0 0 -3110 0 -3110 -60 0 -60 0 0 3110 0 3110 -670 0 -670 0 0
-3110 0 -3110 -60 0 -60 0 0 6395 0 6395 -670 0 -670 0 0 -6395 0 -6395 -45 0
-45 0 0 6230 0 6230 -670 0 -670 0 0 -6230 0 -6230 -65 0 -65 0 0 6000 0 6000
-670 0 -670 0 0 -6000 0 -6000 -60 0 -60 0 -2 2308 -3 2307 -670 0 -670 0 -3
-2307 -2 -2308 -60 0 -60 0 0 1270 0 1270 -670 0 -670 0 0 -1270 0 -1270 -65
0 -65 0 0 5310 0 5310 -667 -2 -668 -3 -3 -5307 -2 -5308 -60 0 -60 0 0 4060
0 4060 -670 0 -670 0 0 -4060 0 -4060 -60 0 -60 0 0 2060 0 2060 -670 0 -670
0 0 -2060 0 -2060 -70 0 -70 0 0 5225 0 5225 -675 0 -675 0 0 -5225 0 -5225
-65 0 -65 0 0 5525 0 5525 -670 0 -670 0 0 -5525 0 -5525 -60 0 -60 0 0 4375
0 4375 -670 0 -670 0 0 -4375 0 -4375 -65 0 -65 0 0 4375 0 4375 -670 0 -670
0 0 -4375 0 -4375 -60 0 -60 0 -2 443 -3 442 -670 0 -670 0 -3 -442 -2 -443
-65 0 -65 0 0 3590 0 3590 -670 0 -670 0 0 -3590 0 -3590 -60 0 -60 0 0 3125
0 3125 -670 0 -670 0 0 -3125 0 -3125 -199 0 -199 0 5 1783 c12 4511 30 13803
26 13810 -2 4 -31 7 -64 7 l-59 0 0 -730z"/>
<path d="M85 18268 c-6 -17 -35 -156 -35 -169 0 -14 43 -10 64 6 31 24 72 19
95 -11 59 -75 -20 -181 -92 -124 -15 12 -27 28 -27 36 0 8 -10 14 -26 14 -22
0 -24 -3 -19 -22 21 -74 124 -103 184 -52 85 72 43 214 -64 214 -15 0 -35 -5
-46 -10 -22 -12 -23 -9 -8 43 l10 37 70 0 c67 0 70 1 67 23 -3 20 -9 22 -86
25 -60 2 -84 -1 -87 -10z"/>
<path d="M371 18254 c-35 -29 -51 -77 -51 -154 0 -120 38 -180 113 -180 55 0
93 27 107 78 15 56 12 166 -6 212 -28 70 -107 92 -163 44z m108 -33 c41 -41
38 -205 -5 -248 -30 -29 -49 -29 -79 2 -23 22 -25 32 -25 115 0 87 9 126 34
142 20 14 56 8 75 -11z"/>
<path d="M126 16703 c-47 -65 -86 -126 -86 -135 0 -16 10 -18 79 -18 l80 0 3
-42 c2 -35 7 -43 23 -43 16 0 21 8 23 43 3 37 6 42 28 42 17 0 24 5 24 20 0
15 -7 20 -25 20 l-25 0 0 115 c0 107 -1 115 -20 115 -13 0 -46 -37 -104 -117z
m71 -110 c-3 -2 -27 -3 -55 -1 l-50 3 52 72 51 71 3 -70 c2 -39 1 -72 -1 -75z"/>
<path d="M367 16742 c-9 -42 -17 -85 -17 -95 0 -21 28 -22 54 -2 11 8 34 15
51 15 43 0 70 -31 70 -80 0 -49 -27 -80 -70 -80 -31 0 -65 25 -65 48 0 7 -11
12 -25 12 -35 0 -32 -25 9 -66 98 -98 247 29 181 155 -18 36 -64 55 -116 48
-38 -5 -41 -4 -35 16 3 12 6 30 6 40 0 14 10 17 70 17 68 0 70 1 70 25 0 25
-1 25 -83 25 l-84 0 -16 -78z"/>
<path d="M156 15291 c-47 -66 -86 -126 -86 -135 0 -13 13 -16 80 -16 l80 0 0
-45 c0 -41 2 -45 25 -45 23 0 25 4 25 45 0 42 2 45 26 45 33 0 30 33 -4 38
-21 3 -22 7 -22 118 0 154 -9 153 -124 -5z m74 -41 l0 -70 -55 0 -55 0 51 70
c28 39 52 70 55 70 2 0 4 -31 4 -70z"/>
<path d="M421 15383 c-48 -48 -64 -143 -40 -239 30 -117 172 -129 210 -16 16
47 16 156 0 203 -16 50 -42 70 -95 76 -40 5 -48 2 -75 -24z m121 -53 c18 -36
23 -139 9 -189 -9 -34 -53 -65 -80 -56 -38 12 -53 59 -49 155 4 103 21 133 72
128 24 -2 35 -11 48 -38z"/>
<path d="M123 13990 c-28 -11 -57 -55 -49 -75 9 -24 30 -17 48 16 16 26 22 30
55 27 31 -2 39 -8 47 -31 13 -36 -1 -59 -42 -72 -38 -11 -46 -45 -9 -38 13 3
33 -4 50 -17 54 -43 23 -120 -48 -120 -29 0 -39 6 -53 30 -21 38 -67 44 -57 8
12 -42 61 -78 106 -78 67 0 101 26 123 93 9 27 -20 88 -44 94 -21 6 -21 6 1
29 68 72 -29 174 -128 134z"/>
<path d="M386 13991 c-7 -11 -36 -146 -36 -167 0 -19 44 -18 60 1 16 19 59 19
87 0 46 -32 36 -123 -16 -144 -37 -16 -78 0 -87 34 -4 18 -13 25 -30 25 -27 0
-29 -8 -12 -45 15 -34 56 -55 105 -55 68 0 113 52 113 131 0 78 -86 133 -152
98 -20 -11 -21 -9 -14 21 3 18 6 39 6 46 0 11 17 14 70 14 68 0 70 1 70 25 0
25 -1 25 -79 25 -44 0 -82 -4 -85 -9z"/>
<path d="M103 12470 c-28 -11 -57 -55 -49 -75 9 -24 30 -17 48 16 16 26 22 30
55 27 31 -2 39 -8 47 -31 13 -36 -1 -59 -42 -72 -38 -11 -46 -45 -9 -38 13 3
33 -4 50 -17 54 -43 23 -120 -48 -120 -29 0 -39 6 -53 30 -21 38 -67 44 -57 8
12 -42 61 -78 106 -78 67 0 101 26 123 93 9 27 -20 88 -44 94 -21 6 -21 6 1
29 68 72 -29 174 -128 134z"/>
<path d="M371 12454 c-35 -29 -51 -77 -51 -154 0 -120 38 -180 113 -180 55 0
93 27 107 78 15 56 12 166 -6 212 -28 70 -107 92 -163 44z m108 -33 c41 -41
38 -205 -5 -248 -30 -29 -49 -29 -79 2 -23 22 -25 32 -25 115 0 87 9 126 34
142 20 14 56 8 75 -11z"/>
<path d="M91 11046 c-24 -13 -50 -51 -51 -73 0 -7 11 -13 25 -13 15 0 25 6 25
14 0 25 30 46 65 46 40 0 65 -22 65 -57 0 -20 -21 -47 -81 -107 -76 -75 -114
-130 -103 -148 3 -5 57 -8 120 -8 l114 0 0 25 c0 25 -1 25 -87 25 l-88 0 81
78 c89 84 106 119 84 173 -22 53 -111 77 -169 45z"/>
<path d="M347 10982 c-9 -42 -17 -85 -17 -95 0 -21 28 -22 54 -2 11 8 34 15
51 15 43 0 70 -31 70 -80 0 -49 -27 -80 -70 -80 -31 0 -65 25 -65 48 0 7 -11
12 -25 12 -35 0 -32 -25 9 -66 98 -98 247 29 181 155 -18 36 -64 55 -116 48
-38 -5 -41 -4 -35 16 3 12 6 30 6 40 0 14 10 17 70 17 68 0 70 1 70 25 0 25
-1 25 -83 25 l-84 0 -16 -78z"/>
<path d="M101 9627 c-33 -17 -65 -62 -58 -81 8 -21 36 -20 44 2 18 52 83 71
116 34 35 -39 22 -69 -68 -155 -78 -76 -113 -126 -98 -141 4 -3 57 -6 120 -6
l113 0 0 25 c0 25 -1 25 -87 25 l-88 0 77 73 c108 100 122 145 64 203 -27 27
-42 34 -72 34 -22 0 -50 -6 -63 -13z"/>
<path d="M371 9614 c-35 -29 -51 -77 -51 -154 0 -120 38 -180 113 -180 55 0
93 27 107 78 15 56 12 166 -6 212 -28 70 -107 92 -163 44z m108 -33 c41 -41
38 -205 -5 -248 -30 -29 -49 -29 -79 2 -23 22 -25 32 -25 115 0 87 9 126 34
142 20 14 56 8 75 -11z"/>
<path d="M156 8124 c-10 -15 -34 -35 -52 -46 -20 -12 -34 -28 -34 -39 0 -25
10 -24 54 6 l36 24 0 -140 c0 -140 0 -140 23 -137 22 3 22 5 25 181 2 164 1
177 -15 177 -10 0 -26 -12 -37 -26z"/>
<path d="M366 8141 c-7 -11 -36 -146 -36 -167 0 -19 44 -18 60 1 16 19 59 19
87 0 46 -32 36 -123 -16 -144 -37 -16 -78 0 -87 34 -4 18 -13 25 -30 25 -27 0
-29 -8 -12 -45 15 -34 56 -55 105 -55 68 0 113 52 113 131 0 78 -86 133 -152
98 -20 -11 -21 -9 -14 21 3 18 6 39 6 46 0 11 17 14 70 14 68 0 70 1 70 25 0
25 -1 25 -79 25 -44 0 -82 -4 -85 -9z"/>
<path d="M107 6726 c-9 -13 -32 -34 -51 -46 -21 -12 -36 -30 -36 -41 0 -25 8
-24 53 6 l37 26 0 -141 c0 -133 1 -140 20 -140 19 0 20 7 20 180 0 147 -3 180
-14 180 -7 0 -21 -11 -29 -24z"/>
<path d="M329 6735 c-37 -20 -59 -82 -59 -163 0 -130 33 -182 117 -182 75 0
113 60 113 180 0 77 -16 125 -51 154 -34 29 -79 33 -120 11z m87 -33 c25 -16
34 -55 34 -142 0 -83 -2 -93 -25 -115 -30 -31 -49 -31 -79 -2 -40 40 -46 187
-10 245 14 22 57 30 80 14z"/>
<path d="M221 5190 c-24 -112 -25 -128 -5 -132 11 -2 31 5 46 15 27 20 68 18
95 -5 22 -18 26 -73 9 -106 -28 -54 -94 -55 -121 -2 -9 18 -23 30 -35 30 -25
0 -25 -16 0 -57 25 -42 84 -60 132 -40 51 22 71 51 76 110 4 46 1 57 -23 85
-30 36 -76 49 -118 33 l-28 -11 7 38 c4 20 9 40 11 45 2 4 33 7 69 7 57 0 64
2 64 20 0 18 -7 20 -84 20 l-84 0 -11 -50z"/>
<path d="M31010 3940 l0 -180 25 0 c25 0 25 1 25 80 l0 80 80 0 c73 0 80 2 80
20 0 18 -7 20 -80 20 l-80 0 0 55 0 55 95 0 c95 0 95 0 95 25 l0 25 -120 0
-120 0 0 -180z"/>
<path d="M31840 3941 l0 -181 25 0 c25 0 25 0 25 94 0 105 10 126 59 126 44 0
51 -15 51 -122 l0 -98 26 0 26 0 -4 111 c-3 102 -5 112 -27 130 -25 20 -86 25
-111 9 -13 -8 -16 0 -20 48 -4 50 -8 57 -27 60 l-23 3 0 -180z"/>
<path d="M31348 4005 c-55 -30 -73 -141 -33 -202 22 -33 80 -56 125 -49 33 5
90 53 90 76 0 20 -43 9 -62 -15 -27 -35 -79 -34 -107 1 -12 15 -21 35 -21 45
0 17 9 19 96 19 l97 0 -6 43 c-11 82 -102 123 -179 82z m90 -21 c19 -6 52 -49
52 -69 0 -3 -34 -5 -75 -5 -46 0 -75 4 -75 11 0 21 22 50 43 59 28 11 27 11
55 4z"/>
<path d="M31629 4005 c-14 -8 -32 -29 -40 -47 -18 -43 -15 -122 6 -154 23 -36
75 -58 118 -50 37 7 87 54 87 82 0 22 -38 16 -51 -8 -25 -48 -76 -52 -109 -10
-18 22 -21 37 -18 80 5 58 18 77 60 87 21 6 32 1 51 -19 30 -32 68 -36 60 -6
-14 53 -104 78 -164 45z"/>
<path d="M32155 4008 c-24 -14 -44 -39 -45 -55 0 -20 35 -15 55 7 15 16 29 20
64 18 42 -3 46 -6 49 -30 3 -24 -1 -27 -35 -33 -76 -12 -113 -26 -129 -50 -22
-34 -10 -81 26 -100 39 -20 68 -19 113 4 29 15 37 16 37 5 0 -8 10 -14 23 -14
22 0 22 1 17 111 -5 101 -7 112 -29 130 -27 22 -113 26 -146 7z m125 -157 c0
-36 -31 -61 -75 -61 -35 0 -55 15 -55 41 0 22 14 31 60 40 65 13 70 11 70 -20z"/>
<path d="M1110 3837 c-40 -19 -63 -80 -64 -161 0 -125 37 -186 115 -186 74 0
119 69 119 182 0 134 -79 211 -170 165z m96 -48 c15 -17 20 -40 22 -109 4 -96
-11 -143 -49 -155 -30 -10 -71 23 -82 66 -13 49 -3 164 17 194 21 32 65 34 92
4z"/>
<path d="M2490 2599 c0 -119 0 -120 23 -117 20 3 22 9 27 88 l5 84 63 -71 c98
-110 161 -128 217 -61 46 55 27 152 -35 178 -27 11 -33 11 -41 -1 -12 -19 -6
-33 17 -38 32 -6 44 -22 44 -61 0 -23 -7 -43 -18 -53 -39 -35 -86 -14 -161 73
-53 61 -103 100 -128 100 -10 0 -13 -31 -13 -121z"/>
<path d="M8275 2688 c-3 -8 -4 -61 -3 -119 3 -99 4 -104 25 -107 21 -3 22 0
25 89 l3 91 54 -63 c101 -121 166 -144 223 -80 28 31 30 39 26 89 -4 45 -10
60 -32 79 -32 27 -63 30 -68 6 -3 -12 6 -23 27 -33 58 -29 40 -130 -23 -130
-19 0 -48 23 -113 90 -48 50 -92 90 -97 90 -6 0 -17 3 -26 6 -9 3 -18 0 -21
-8z"/>
<path d="M9848 2658 c-112 -30 -118 -173 -10 -209 47 -16 156 -16 203 0 50 16
70 42 76 95 5 40 2 48 -24 75 -48 47 -151 64 -245 39z m211 -62 c34 -31 25
-77 -19 -98 -36 -18 -139 -23 -189 -9 -34 9 -65 53 -56 80 12 39 52 51 151 49
75 -3 96 -7 113 -22z"/>
<path d="M4160 2649 c0 -7 9 -27 21 -45 l21 -34 -136 0 c-129 0 -136 -1 -136
-20 0 -19 7 -20 180 -20 99 0 180 3 180 6 0 4 -20 29 -45 55 -25 26 -45 53
-45 59 0 5 -9 10 -20 10 -11 0 -20 -5 -20 -11z"/>
<path d="M5600 2653 c0 -5 9 -23 20 -41 11 -18 20 -35 20 -37 0 -3 -61 -5
-135 -5 -128 0 -135 -1 -135 -20 0 -19 7 -20 180 -20 121 0 180 4 180 11 0 6
-14 22 -30 36 -17 14 -37 38 -46 54 -13 26 -54 42 -54 22z"/>
<path d="M7020 2649 c0 -7 9 -27 21 -45 l21 -34 -136 0 c-129 0 -136 -1 -136
-20 0 -19 7 -20 180 -20 99 0 180 3 180 6 0 4 -20 29 -45 55 -25 26 -45 53
-45 59 0 5 -9 10 -20 10 -11 0 -20 -5 -20 -11z"/>
<path d="M24498 2625 c-57 -19 -83 -53 -82 -107 2 -74 62 -112 179 -112 94 0
148 21 171 67 17 33 14 88 -7 114 -39 46 -175 66 -261 38z m201 -48 c58 -29
52 -93 -9 -114 -82 -28 -213 -10 -232 33 -14 31 2 71 34 84 34 13 179 12 207
-3z"/>
<path d="M25923 2628 c-74 -16 -110 -82 -83 -152 13 -35 48 -55 118 -67 129
-23 232 26 232 109 0 97 -115 144 -267 110z m184 -49 c33 -12 43 -26 43 -60 0
-50 -31 -64 -140 -64 -109 0 -140 14 -140 64 0 34 10 48 40 60 34 13 162 14
197 0z"/>
<path d="M27335 2618 c-3 -8 -4 -61 -3 -119 3 -99 4 -104 25 -107 21 -3 22 0
25 89 l3 91 54 -63 c101 -121 166 -144 223 -80 28 31 30 39 26 89 -4 45 -10
60 -32 79 -32 27 -63 30 -68 6 -3 -12 6 -23 27 -33 58 -29 40 -130 -23 -130
-19 0 -48 23 -113 90 -48 50 -92 90 -97 90 -6 0 -17 3 -26 6 -9 3 -18 0 -21
-8z"/>
<path d="M28810 2511 c0 -114 1 -121 20 -121 18 0 20 7 20 85 0 47 3 85 8 85
4 0 38 -33 75 -74 81 -90 118 -107 175 -79 47 23 68 75 52 134 -11 40 -51 79
-81 79 -26 0 -25 -37 1 -45 50 -16 64 -102 20 -125 -41 -22 -62 -11 -149 80
-48 50 -93 90 -99 90 -6 0 -17 3 -26 6 -14 5 -16 -9 -16 -115z"/>
<path d="M11500 2599 c0 -7 9 -27 21 -45 l21 -34 -136 0 -136 0 0 -25 0 -25
174 0 c192 0 209 5 159 49 -17 14 -40 41 -52 59 -22 31 -51 43 -51 21z"/>
<path d="M21750 2598 c0 -7 9 -24 20 -38 11 -14 20 -28 20 -32 0 -5 -61 -8
-135 -8 l-135 0 0 -25 0 -25 174 0 c106 0 177 4 181 10 3 5 -18 37 -47 70 -50
57 -78 74 -78 48z"/>
<path d="M12823 2580 c-59 -12 -80 -26 -99 -62 -17 -34 -14 -89 7 -115 58 -69
280 -67 326 4 36 55 15 126 -48 158 -34 18 -134 26 -186 15z m159 -50 c67 -19
76 -85 17 -116 -46 -24 -198 -17 -228 10 -34 31 -25 77 19 98 40 20 134 24
192 8z"/>
<path d="M18570 2475 l0 -115 25 0 c24 0 24 2 27 85 l3 85 53 -61 c69 -81 95
-100 141 -106 110 -15 152 168 49 211 -18 8 -36 12 -40 10 -14 -9 -8 -44 7
-44 46 0 72 -81 37 -113 -39 -35 -72 -22 -146 56 -74 78 -111 107 -138 107
-16 0 -18 -12 -18 -115z"/>
<path d="M20030 2475 l0 -115 25 0 c24 0 24 2 27 85 l3 85 53 -61 c69 -81 95
-100 141 -106 110 -15 152 168 49 211 -18 8 -36 12 -40 10 -14 -9 -8 -44 7
-44 46 0 72 -81 37 -113 -39 -35 -72 -22 -146 56 -74 78 -111 107 -138 107
-16 0 -18 -12 -18 -115z"/>
<path d="M23030 2581 c-74 -16 -112 -52 -114 -109 -1 -58 24 -89 91 -108 92
-27 213 -8 252 39 39 47 17 133 -41 160 -40 19 -140 29 -188 18z m153 -52 c47
-13 66 -46 49 -84 -16 -34 -49 -45 -137 -45 -88 0 -121 11 -137 45 -16 36 3
72 44 84 45 13 135 13 181 0z"/>
<path d="M17188 2555 c-57 -19 -83 -53 -82 -107 2 -74 62 -112 179 -112 94 0
148 21 171 67 17 33 14 88 -7 114 -39 46 -175 66 -261 38z m201 -48 c58 -29
52 -93 -9 -114 -82 -28 -213 -10 -232 33 -14 31 2 71 34 84 34 13 179 12 207
-3z"/>
<path d="M14445 2521 c8 -17 21 -33 27 -38 7 -4 -50 -10 -127 -13 -132 -5
-140 -6 -140 -25 0 -19 8 -20 178 -23 156 -2 177 -1 177 13 0 9 -13 27 -28 40
-15 13 -34 35 -41 49 -9 17 -23 26 -38 26 -23 0 -23 -1 -8 -29z"/>
<path d="M15682 2423 c3 -114 4 -118 26 -121 21 -3 22 -1 22 89 l0 92 83 -87
c78 -82 84 -86 125 -86 35 0 50 6 73 29 24 25 29 38 29 79 0 57 -23 94 -69
110 -27 9 -30 8 -33 -11 -2 -16 5 -26 27 -37 25 -13 30 -22 33 -57 3 -36 -1
-44 -23 -59 -37 -24 -73 -5 -147 78 -60 67 -101 98 -133 98 -14 0 -15 -16 -13
-117z"/>
<path d="M2554 2430 c-39 -15 -64 -59 -64 -110 0 -80 58 -128 141 -117 73 10
115 77 91 145 l-10 29 36 -8 c21 -5 40 -9 45 -9 4 0 7 -31 7 -70 0 -68 1 -70
25 -70 l26 0 -3 87 -3 87 -85 18 c-47 9 -88 17 -92 18 -13 0 -8 -44 7 -64 39
-52 3 -116 -65 -116 -46 0 -90 34 -90 70 0 22 41 70 60 70 5 0 10 11 10 25 0
27 -4 28 -36 15z"/>
<path d="M3958 2381 c-29 -26 -33 -35 -33 -80 0 -43 5 -55 31 -82 89 -88 237
-14 204 103 -9 30 -9 30 22 24 17 -3 34 -6 39 -6 5 0 9 -31 9 -70 0 -68 1 -70
25 -70 25 0 25 1 25 85 0 96 13 83 -112 109 -64 13 -68 13 -74 -6 -3 -11 1
-27 10 -37 22 -24 21 -84 -2 -104 -27 -24 -97 -22 -122 3 -24 24 -26 72 -4 94
8 9 18 16 22 16 18 1 32 18 26 33 -9 25 -29 21 -66 -12z"/>
<path d="M5435 2396 c-61 -27 -85 -82 -61 -141 20 -48 79 -74 165 -75 125 0
186 37 186 115 0 49 -22 80 -72 101 -41 18 -178 17 -218 0z m217 -47 c46 -24
51 -67 12 -98 -23 -18 -41 -21 -119 -21 -78 0 -96 3 -119 21 -14 11 -26 31
-26 43 0 29 37 63 75 69 46 8 152 -1 177 -14z"/>
<path d="M6855 2396 c-48 -21 -70 -53 -70 -101 0 -78 61 -115 186 -115 86 1
145 27 165 75 24 59 0 115 -63 141 -41 18 -178 17 -218 0z m175 -35 c44 -9 80
-39 80 -68 0 -7 -11 -25 -25 -38 -22 -23 -32 -25 -118 -25 -80 0 -98 3 -121
21 -48 38 -27 96 40 109 54 11 91 11 144 1z"/>
<path d="M8321 2396 c-31 -17 -50 -53 -51 -94 -1 -109 141 -163 214 -81 25 28
28 38 24 81 l-5 50 30 -6 c16 -3 33 -6 38 -6 5 0 9 -31 9 -70 0 -68 1 -70 25
-70 25 0 25 1 25 85 0 96 13 83 -113 109 -60 12 -69 12 -74 -1 -3 -8 1 -28 11
-43 38 -64 10 -120 -60 -120 -57 0 -84 22 -84 70 0 34 4 42 30 55 18 9 30 23
30 35 0 23 -15 25 -49 6z"/>
<path d="M9760 2280 l0 -120 25 0 c25 0 25 1 25 88 l1 87 67 -72 c70 -76 119
-105 164 -96 87 17 106 168 26 209 -17 9 -36 13 -44 10 -23 -9 -16 -35 11 -42
70 -17 56 -134 -16 -134 -17 0 -45 22 -96 75 -71 73 -125 115 -150 115 -10 0
-13 -31 -13 -120z"/>
<path d="M11350 2300 l0 -80 -40 0 c-36 0 -40 -2 -40 -25 0 -22 4 -25 40 -25
33 0 40 -3 40 -20 0 -13 7 -20 20 -20 13 0 20 7 20 20 0 18 8 20 117 22 97 3
118 6 121 19 3 19 -228 189 -258 189 -18 0 -20 -7 -20 -80z m128 -28 c34 -24
62 -46 62 -48 0 -2 -34 -4 -75 -4 l-75 0 0 56 c0 62 -6 63 88 -4z"/>
<path d="M24507 2373 c-4 -3 -7 -39 -7 -80 l0 -73 -40 0 c-36 0 -40 -2 -40
-25 0 -22 4 -25 40 -25 33 0 40 -3 40 -20 0 -15 7 -20 25 -20 18 0 25 5 25 20
0 18 8 20 112 22 153 4 153 12 -1 122 -113 82 -139 95 -154 79z m192 -150 c2
-2 -30 -3 -72 -3 l-77 0 0 55 0 55 73 -52 c39 -28 74 -53 76 -55z"/>
<path d="M21520 2249 c0 -119 0 -120 23 -117 21 3 22 9 25 87 l3 84 77 -80
c84 -88 114 -101 170 -77 41 17 67 72 58 124 -6 39 -54 90 -86 90 -31 0 -23
-32 13 -55 40 -26 49 -73 18 -104 -40 -40 -77 -22 -168 78 -47 53 -101 91
-128 91 -3 0 -5 -54 -5 -121z"/>
<path d="M25904 2346 c-76 -33 -98 -119 -46 -177 24 -27 38 -33 83 -37 48 -4
59 -1 87 23 42 35 51 83 24 129 l-21 35 32 -6 c18 -3 44 -12 58 -19 47 -24 46
-94 -1 -109 -13 -4 -20 -15 -20 -31 0 -28 2 -29 40 -9 85 44 60 178 -38 205
-52 14 -161 12 -198 -4z m100 -52 c38 -38 27 -96 -21 -115 -31 -12 -77 -3 -98
18 -23 23 -19 79 7 97 29 21 92 20 112 0z"/>
<path d="M27381 2326 c-31 -17 -50 -53 -51 -94 -1 -109 141 -163 214 -81 25
28 28 38 24 81 l-5 50 30 -6 c16 -3 33 -6 38 -6 5 0 9 -31 9 -70 0 -68 1 -70
25 -70 25 0 25 1 25 85 0 96 13 83 -113 109 -60 12 -69 12 -74 -1 -3 -8 1 -28
11 -43 38 -64 10 -120 -60 -120 -57 0 -84 22 -84 70 0 34 4 42 30 55 18 9 30
23 30 35 0 23 -15 25 -49 6z"/>
<path d="M28838 2311 c-29 -26 -33 -36 -33 -79 0 -36 6 -59 21 -79 37 -49 112
-55 155 -12 l20 20 26 -21 c47 -37 103 -17 129 46 39 93 -63 188 -132 123
l-22 -20 -25 25 c-37 37 -96 36 -139 -3z m105 -22 c29 -16 37 -28 37 -63 0
-41 -26 -66 -68 -66 -46 0 -72 24 -72 66 0 23 7 38 26 53 30 24 46 26 77 10z
m177 -28 c32 -61 -37 -123 -84 -75 -19 18 -21 65 -4 82 20 20 76 15 88 -7z"/>
<path d="M20117 2324 c-4 -4 -7 -40 -7 -81 l0 -73 -40 0 c-36 0 -40 -2 -40
-25 0 -22 4 -25 39 -25 33 0 40 -4 43 -22 2 -15 10 -23 23 -23 13 0 21 8 23
23 3 21 7 22 118 22 152 0 152 9 -2 119 -117 84 -143 98 -157 85z m119 -101
c35 -26 64 -48 64 -50 0 -2 -31 -3 -70 -3 l-70 0 0 50 c0 28 3 50 6 50 3 0 35
-21 70 -47z"/>
<path d="M12770 2292 c-49 -24 -69 -79 -49 -135 29 -83 117 -108 169 -50 21
24 30 28 34 17 3 -8 17 -19 31 -24 62 -23 135 49 119 118 -8 34 -52 82 -76 82
-27 0 -22 -35 7 -48 27 -13 43 -57 28 -80 -29 -47 -88 -40 -101 11 -11 44 -42
50 -42 8 0 -38 -31 -71 -65 -71 -33 0 -75 42 -75 75 0 28 31 65 55 65 16 0 19
18 7 37 -6 10 -16 8 -42 -5z"/>
<path d="M14252 2290 c-39 -24 -55 -62 -49 -114 12 -90 120 -134 174 -71 21
24 26 26 41 13 27 -24 49 -28 82 -16 64 22 81 118 31 169 -34 34 -57 37 -64
10 -3 -13 1 -21 13 -24 10 -2 26 -17 35 -31 14 -22 16 -32 7 -51 -23 -50 -95
-40 -107 15 -9 40 -35 40 -35 0 0 -17 -9 -39 -20 -50 -42 -42 -120 -10 -120
50 0 29 29 70 50 70 6 0 10 11 10 25 0 30 -5 31 -48 5z"/>
<path d="M18753 2295 c-32 -14 -63 -59 -63 -92 0 -10 9 -33 21 -52 l20 -34
-36 6 c-42 7 -83 31 -92 53 -10 26 7 64 32 74 28 11 35 50 9 50 -53 0 -91 -66
-74 -130 14 -50 53 -78 129 -91 154 -28 267 58 216 164 -28 59 -96 81 -162 52z
m114 -57 c28 -26 29 -58 4 -89 -27 -33 -95 -33 -122 0 -24 30 -24 52 2 85 27
34 82 36 116 4z"/>
<path d="M23103 2295 c-32 -14 -63 -59 -63 -92 0 -10 9 -33 21 -52 l20 -34
-36 6 c-42 7 -83 31 -92 53 -10 26 7 64 32 74 28 11 35 50 9 50 -53 0 -91 -66
-74 -130 14 -50 53 -78 129 -91 154 -28 267 58 216 164 -28 59 -96 81 -162 52z
m114 -57 c28 -26 29 -58 4 -89 -27 -33 -95 -33 -122 0 -24 30 -24 52 2 85 27
34 82 36 116 4z"/>
<path d="M17153 2270 c-60 -36 -64 -144 -6 -189 36 -29 94 -28 130 3 28 24 29
24 52 5 72 -59 163 28 131 125 -21 63 -110 87 -141 38 -11 -17 -13 -16 -39 10
-34 34 -80 37 -127 8z m111 -46 c16 -16 21 -71 8 -90 -10 -15 -47 -34 -67 -34
-24 0 -65 46 -65 72 0 42 27 68 70 68 22 0 45 -7 54 -16z m150 -10 c19 -18 21
-65 4 -82 -20 -20 -76 -15 -88 7 -23 45 -1 91 45 91 13 0 31 -7 39 -16z"/>
<path d="M15743 2245 c-84 -36 -82 -175 2 -211 50 -21 73 -17 106 16 l30 30
28 -21 c90 -66 182 82 102 162 -34 33 -57 37 -64 10 -3 -13 3 -22 19 -30 63
-28 47 -115 -19 -109 -26 2 -36 10 -50 41 -22 45 -37 48 -37 7 0 -17 -9 -39
-20 -50 -42 -42 -120 -11 -120 48 0 33 8 45 41 63 19 11 24 19 20 36 -6 20 -8
21 -38 8z"/>
<path d="M2600 2095 c0 -63 1 -65 25 -65 24 0 25 2 25 65 0 63 -1 65 -25 65
-24 0 -25 -2 -25 -65z"/>
<path d="M4032 2073 c3 -62 5 -68 26 -71 21 -3 22 0 22 67 0 69 -1 71 -25 71
-26 0 -26 -1 -23 -67z"/>
<path d="M5480 2070 c0 -63 2 -70 20 -70 18 0 20 7 20 70 0 63 -2 70 -20 70
-18 0 -20 -7 -20 -70z"/>
<path d="M6892 2073 c3 -62 5 -68 26 -71 21 -3 22 0 22 67 0 69 -1 71 -25 71
-26 0 -26 -1 -23 -67z"/>
<path d="M8380 2069 c0 -67 1 -70 23 -67 20 3 22 9 25 71 3 66 3 67 -23 67
-24 0 -25 -2 -25 -71z"/>
<path d="M9870 2050 c0 -63 2 -70 20 -70 18 0 20 7 20 70 0 63 -2 70 -20 70
-18 0 -20 -7 -20 -70z"/>
<path d="M11372 2023 c3 -62 5 -68 26 -71 21 -3 22 0 22 67 0 69 -1 71 -25 71
-26 0 -26 -1 -23 -67z"/>
<path d="M21630 2020 c0 -63 2 -70 20 -70 18 0 20 7 20 70 0 63 -2 70 -20 70
-18 0 -20 -7 -20 -70z"/>
<path d="M24530 2020 c0 -63 2 -70 20 -70 18 0 20 7 20 70 0 63 -2 70 -20 70
-18 0 -20 -7 -20 -70z"/>
<path d="M25940 2019 c0 -67 1 -70 23 -67 20 3 22 9 25 71 3 66 3 67 -23 67
-24 0 -25 -2 -25 -71z"/>
<path d="M27440 1999 c0 -67 1 -70 23 -67 20 3 22 9 25 71 3 66 3 67 -23 67
-24 0 -25 -2 -25 -71z"/>
<path d="M28912 2003 c3 -62 5 -68 26 -71 21 -3 22 0 22 67 0 69 -1 71 -25 71
-26 0 -26 -1 -23 -67z"/>
<path d="M12827 2033 c-4 -3 -7 -35 -7 -70 0 -61 1 -63 25 -63 24 0 25 2 25
70 0 61 -2 70 -18 70 -10 0 -22 -3 -25 -7z"/>
<path d="M14310 1971 c0 -69 1 -71 25 -71 26 0 26 1 23 68 -3 61 -5 67 -25 70
-22 3 -23 0 -23 -67z"/>
<path d="M18680 1970 c0 -63 2 -70 20 -70 18 0 20 7 20 70 0 63 -2 70 -20 70
-18 0 -20 -7 -20 -70z"/>
<path d="M20140 1970 c0 -63 2 -70 20 -70 18 0 20 7 20 70 0 63 -2 70 -20 70
-18 0 -20 -7 -20 -70z"/>
<path d="M23030 1970 c0 -63 2 -70 20 -70 18 0 20 7 20 70 0 63 -2 70 -20 70
-18 0 -20 -7 -20 -70z"/>
<path d="M17220 1950 c0 -63 2 -70 20 -70 18 0 20 7 20 70 0 63 -2 70 -20 70
-18 0 -20 -7 -20 -70z"/>
<path d="M2553 1971 c-48 -22 -63 -45 -63 -96 0 -20 5 -45 11 -57 41 -76 284
-78 333 -3 20 31 20 89 0 120 -36 54 -195 75 -281 36z m235 -47 c16 -11 22
-24 22 -49 0 -56 -50 -73 -198 -67 -45 2 -92 36 -92 65 0 30 37 60 81 67 59
10 159 1 187 -16z"/>
<path d="M15797 1984 c-4 -4 -7 -36 -7 -71 0 -61 1 -63 25 -63 26 0 26 1 23
67 -2 52 -7 68 -18 71 -9 1 -19 0 -23 -4z"/>
<path d="M5448 1955 c-57 -19 -83 -53 -82 -107 2 -74 62 -112 179 -112 94 0
148 21 171 67 17 33 14 88 -7 114 -39 46 -175 66 -261 38z m201 -48 c58 -29
52 -93 -9 -114 -82 -28 -213 -10 -232 33 -14 31 2 71 34 84 34 13 179 12 207
-3z"/>
<path d="M6881 1960 c-80 -19 -120 -88 -89 -154 24 -49 75 -70 173 -70 84 0
123 13 159 53 24 26 26 90 3 124 -30 46 -152 69 -246 47z m183 -54 c44 -18 54
-50 29 -84 -24 -32 -49 -40 -133 -41 -83 -1 -134 21 -138 62 -4 31 11 55 43
67 33 14 163 11 199 -4z"/>
<path d="M4160 1929 c0 -7 9 -27 21 -45 l21 -34 -136 0 -136 0 0 -25 0 -25
174 0 c192 0 209 5 159 49 -17 14 -40 41 -52 59 -22 31 -51 43 -51 21z"/>
<path d="M8506 1932 c-3 -5 6 -25 20 -45 l25 -37 -141 0 c-141 0 -141 0 -138
-22 3 -23 5 -23 181 -26 158 -2 177 -1 177 14 0 9 -11 25 -24 35 -14 11 -34
35 -46 54 -21 33 -43 44 -54 27z"/>
<path d="M11373 1910 c-59 -12 -80 -26 -99 -62 -17 -34 -14 -89 7 -115 58 -69
280 -67 326 4 36 55 15 126 -48 158 -34 18 -134 26 -186 15z m159 -50 c67 -19
76 -85 17 -116 -46 -24 -198 -17 -228 10 -34 31 -25 77 19 98 40 20 134 24
192 8z"/>
<path d="M21630 1911 c-74 -16 -112 -52 -114 -109 -1 -58 24 -89 91 -108 92
-27 213 -8 252 39 39 47 17 133 -41 160 -40 19 -140 29 -188 18z m153 -52 c47
-13 66 -46 49 -84 -16 -34 -49 -45 -137 -45 -88 0 -121 11 -137 45 -16 36 3
72 44 84 45 13 135 13 181 0z"/>
<path d="M24530 1911 c-74 -16 -112 -52 -114 -109 -1 -58 24 -89 91 -108 92
-27 213 -8 252 39 39 47 17 133 -41 160 -40 19 -140 29 -188 18z m153 -52 c47
-13 66 -46 49 -84 -16 -34 -49 -45 -137 -45 -88 0 -121 11 -137 45 -16 36 3
72 44 84 45 13 135 13 181 0z"/>
<path d="M25941 1910 c-78 -17 -111 -52 -111 -121 0 -82 133 -131 266 -98 110
28 130 163 30 204 -44 18 -133 25 -185 15z m189 -65 c24 -21 26 -67 5 -89 -35
-34 -207 -36 -244 -2 -39 35 -20 95 34 109 11 3 57 5 102 3 63 -2 87 -7 103
-21z"/>
<path d="M10009 1874 c12 -19 21 -37 21 -40 0 -2 -61 -4 -135 -4 l-135 0 0
-25 0 -25 180 0 c121 0 180 3 180 11 0 19 -95 119 -113 119 -18 0 -18 -2 2
-36z"/>
<path d="M27423 1888 c-74 -16 -110 -82 -83 -152 13 -35 48 -55 118 -67 129
-23 232 26 232 109 0 97 -115 144 -267 110z m184 -49 c33 -12 43 -26 43 -60 0
-50 -31 -64 -140 -64 -109 0 -140 14 -140 64 0 34 10 48 40 60 34 13 162 14
197 0z"/>
<path d="M29040 1859 c0 -7 9 -27 21 -45 l21 -34 -136 0 -136 0 0 -25 0 -25
174 0 c192 0 209 5 159 49 -17 14 -40 41 -52 59 -22 31 -51 43 -51 21z"/>
<path d="M12785 1846 c-48 -21 -70 -53 -70 -101 0 -78 61 -115 186 -115 86 1
145 27 165 75 24 59 0 115 -63 141 -41 18 -178 17 -218 0z m175 -35 c44 -9 80
-39 80 -68 0 -7 -11 -25 -25 -38 -22 -23 -32 -25 -118 -25 -80 0 -98 3 -121
21 -48 38 -27 96 40 109 54 11 91 11 144 1z"/>
<path d="M18635 1846 c-61 -27 -85 -82 -61 -141 20 -48 79 -74 165 -75 125 0
186 37 186 115 0 49 -22 80 -72 101 -41 18 -178 17 -218 0z m217 -47 c46 -24
51 -67 12 -98 -23 -18 -41 -21 -119 -21 -78 0 -96 3 -119 21 -14 11 -26 31
-26 43 0 29 37 63 75 69 46 8 152 -1 177 -14z"/>
<path d="M20095 1846 c-61 -27 -85 -82 -61 -141 20 -48 79 -74 165 -75 125 0
186 37 186 115 0 49 -22 80 -72 101 -41 18 -178 17 -218 0z m217 -47 c46 -24
51 -67 12 -98 -23 -18 -41 -21 -119 -21 -78 0 -96 3 -119 21 -14 11 -26 31
-26 43 0 29 37 63 75 69 46 8 152 -1 177 -14z"/>
<path d="M17220 1841 c-74 -16 -112 -52 -114 -109 -1 -58 24 -89 91 -108 92
-27 213 -8 252 39 39 47 17 133 -41 160 -40 19 -140 29 -188 18z m153 -52 c47
-13 66 -46 49 -84 -16 -34 -49 -45 -137 -45 -88 0 -121 11 -137 45 -16 36 3
72 44 84 45 13 135 13 181 0z"/>
<path d="M14449 1794 c12 -19 21 -37 21 -39 0 -3 -60 -6 -132 -7 -129 -3 -133
-4 -136 -25 l-3 -23 180 0 c129 0 181 3 181 11 0 7 -18 31 -40 55 -22 24 -40
48 -40 54 0 5 -12 10 -26 10 l-26 0 21 -36z"/>
<path d="M23150 1823 c0 -5 9 -23 20 -40 l20 -33 -135 0 -135 0 0 -25 0 -25
180 0 c147 0 180 3 180 14 0 7 -11 21 -24 29 -13 9 -34 32 -46 51 -12 21 -30
36 -41 36 -10 0 -19 -3 -19 -7z"/>
<path d="M15763 1799 c-41 -12 -83 -62 -83 -100 0 -78 61 -119 177 -119 129 0
183 35 183 117 0 53 -28 86 -86 102 -46 13 -146 13 -191 0z m207 -52 c19 -9
26 -22 28 -49 5 -56 -27 -72 -138 -72 -111 0 -143 16 -138 72 4 50 31 62 138
62 48 0 96 -6 110 -13z"/>
<path d="M2490 1599 c0 -119 0 -120 23 -117 20 3 22 9 27 88 l5 84 63 -71 c98
-110 161 -128 217 -61 46 55 27 152 -35 178 -27 11 -33 11 -41 -1 -12 -19 -6
-33 17 -38 32 -6 44 -22 44 -61 0 -23 -7 -43 -18 -53 -39 -35 -86 -14 -161 73
-53 61 -103 100 -128 100 -10 0 -13 -31 -13 -121z"/>
<path d="M4160 1683 c0 -5 9 -23 20 -40 l20 -33 -135 0 -135 0 0 -25 0 -25
174 0 c191 0 210 6 157 47 -17 14 -38 38 -46 54 -14 26 -55 42 -55 22z"/>
<path d="M5413 1670 c-68 -41 -62 -159 9 -196 46 -24 93 -18 121 15 24 30 25
30 42 10 26 -27 80 -25 110 5 50 50 43 125 -14 163 -18 13 -37 20 -42 17 -14
-8 -10 -44 4 -44 22 0 47 -34 47 -63 0 -17 -9 -32 -25 -43 -35 -23 -73 -6 -81
36 -8 39 -44 43 -44 4 0 -56 -42 -84 -94 -64 -54 20 -57 104 -5 124 20 7 29
17 29 33 0 28 -15 29 -57 3z"/>
<path d="M6840 1677 c-37 -18 -62 -74 -56 -122 10 -85 115 -127 173 -69 l25
25 22 -20 c31 -29 70 -26 108 7 27 25 31 36 31 77 0 41 -4 52 -31 77 -39 34
-75 36 -106 5 l-23 -23 -25 28 c-29 31 -74 37 -118 15z m104 -56 c25 -28 17
-79 -16 -104 -29 -22 -65 -18 -92 9 -21 20 -20 73 1 96 22 25 84 24 107 -1z
m150 -7 c35 -35 12 -94 -37 -94 -40 0 -57 15 -57 51 0 34 24 59 55 59 13 0 31
-7 39 -16z"/>
<path d="M8353 1679 c-41 -12 -83 -62 -83 -100 0 -78 61 -119 177 -119 129 0
183 35 183 117 0 53 -28 86 -86 102 -46 13 -146 13 -191 0z m207 -52 c19 -9
26 -22 28 -49 5 -56 -27 -72 -138 -72 -111 0 -143 16 -138 72 4 50 31 62 138
62 48 0 96 -6 110 -13z"/>
<path d="M9766 1673 c-3 -4 -6 -57 -6 -120 l0 -113 25 0 c25 0 25 1 25 88 l0
87 73 -77 c101 -108 145 -122 204 -63 33 33 35 38 31 87 -5 42 -11 57 -38 80
-17 16 -39 28 -48 26 -24 -5 -27 -37 -5 -45 53 -18 72 -83 35 -116 -39 -35
-69 -22 -155 68 -76 78 -126 113 -141 98z"/>
<path d="M11320 1622 c-49 -24 -69 -79 -49 -135 29 -83 117 -108 169 -50 21
24 30 28 34 17 3 -8 17 -19 31 -24 62 -23 135 49 119 118 -8 34 -52 82 -76 82
-27 0 -22 -35 7 -48 27 -13 43 -57 28 -80 -29 -47 -88 -40 -101 11 -11 44 -42
50 -42 8 0 -38 -31 -71 -65 -71 -33 0 -75 42 -75 75 0 28 31 65 55 65 16 0 19
18 7 37 -6 10 -16 8 -42 -5z"/>
<path d="M21585 1621 c-97 -44 -91 -175 10 -209 48 -16 106 -1 134 35 25 31
27 89 5 121 -14 21 -14 22 11 22 85 0 130 -96 61 -128 -18 -8 -23 -16 -19 -31
6 -25 6 -25 42 -6 84 43 55 169 -48 204 -52 17 -150 13 -196 -8z m105 -51 c45
-45 11 -120 -54 -120 -43 0 -86 33 -86 66 0 62 96 98 140 54z"/>
<path d="M24485 1630 c-41 -16 -68 -57 -68 -104 0 -55 23 -93 70 -112 45 -19
97 -4 118 34 8 15 14 21 15 14 0 -17 64 -43 87 -35 33 11 63 46 69 80 11 58
-30 123 -78 123 -29 0 -21 -33 12 -52 23 -13 30 -24 30 -47 0 -76 -98 -82
-112 -6 -2 11 -11 21 -20 23 -13 2 -17 -6 -20 -35 -5 -67 -86 -85 -124 -28
-22 33 -11 72 26 93 44 25 39 69 -5 52z"/>
<path d="M25914 1629 c-45 -13 -76 -51 -81 -101 -4 -37 -1 -49 22 -76 51 -61
134 -63 186 -4 26 29 30 41 25 70 -3 19 -13 43 -22 53 -16 18 -16 19 18 19 39
0 83 -29 93 -61 8 -24 -19 -69 -40 -69 -9 0 -15 -10 -15 -25 0 -34 24 -32 61
4 24 24 29 38 29 76 0 81 -68 126 -190 124 -30 0 -69 -5 -86 -10z m95 -65 c27
-35 26 -59 -4 -89 -28 -29 -79 -33 -113 -9 -29 20 -30 76 -2 104 31 31 93 27
119 -6z"/>
<path d="M29040 1613 c0 -5 9 -23 20 -40 l20 -33 -135 0 -135 0 0 -25 0 -25
174 0 c191 0 210 6 157 47 -17 14 -38 38 -46 54 -14 26 -55 42 -55 22z"/>
<path d="M14311 1580 c-78 -17 -111 -52 -111 -121 0 -82 133 -131 266 -98 110
28 130 163 30 204 -44 18 -133 25 -185 15z m189 -65 c24 -21 26 -67 5 -89 -35
-34 -207 -36 -244 -2 -39 35 -20 95 34 109 11 3 57 5 102 3 63 -2 87 -7 103
-21z"/>
<path d="M22920 1475 l0 -115 25 0 c24 0 24 2 27 85 l3 85 53 -61 c69 -81 95
-100 141 -106 110 -15 152 168 49 211 -18 8 -36 12 -40 10 -14 -9 -8 -44 7
-44 46 0 72 -81 37 -113 -39 -35 -72 -22 -146 56 -74 78 -111 107 -138 107
-16 0 -18 -12 -18 -115z"/>
<path d="M27583 1545 l26 -45 -140 0 c-132 0 -139 -1 -139 -20 0 -19 7 -20
180 -20 150 0 180 2 180 14 0 8 -9 21 -21 30 -12 8 -32 30 -45 50 -15 22 -33
36 -45 36 -20 0 -20 -1 4 -45z"/>
<path d="M12745 1550 c-25 -26 -30 -40 -30 -80 0 -40 5 -54 29 -79 49 -51 118
-50 154 1 13 17 14 17 42 -4 24 -17 35 -19 61 -12 76 22 99 123 40 176 -17 15
-38 28 -46 28 -23 0 -18 -38 8 -51 28 -15 37 -28 37 -56 0 -32 -28 -55 -64
-51 -24 2 -33 9 -41 33 -17 50 -45 61 -45 17 0 -44 -26 -72 -65 -72 -75 0
-101 86 -38 125 36 22 39 48 8 53 -12 2 -32 -10 -50 -28z"/>
<path d="M18607 1560 c-52 -41 -55 -124 -6 -176 43 -46 128 -40 150 10 11 24
12 24 28 5 9 -10 30 -22 47 -25 26 -5 38 0 65 24 29 26 34 37 34 77 0 40 -5
51 -33 76 -38 34 -62 37 -62 9 0 -13 10 -24 25 -30 43 -16 46 -92 4 -105 -37
-12 -68 3 -77 38 -4 17 -16 33 -25 35 -13 3 -17 -4 -17 -31 0 -44 -27 -69 -71
-65 -70 7 -90 91 -29 126 34 19 41 52 11 52 -10 0 -30 -9 -44 -20z"/>
<path d="M17174 1561 c-55 -24 -84 -98 -60 -154 30 -72 112 -94 164 -44 29 27
29 27 47 7 11 -12 31 -20 49 -20 112 0 128 171 19 204 -24 8 -63 -8 -77 -32
-7 -12 -12 -10 -30 12 -23 29 -77 42 -112 27z m88 -58 c27 -24 24 -87 -4 -107
-71 -50 -159 43 -98 104 24 24 77 26 102 3z m152 -9 c34 -34 6 -104 -41 -104
-21 0 -53 38 -53 62 0 49 61 76 94 42z"/>
<path d="M20260 1544 c0 -4 9 -22 21 -40 l21 -34 -136 0 -136 0 0 -25 0 -25
180 0 c153 0 180 2 180 15 0 8 -9 20 -20 27 -11 7 -32 30 -47 51 -14 20 -34
37 -44 37 -11 0 -19 -3 -19 -6z"/>
<path d="M15990 1450 c0 -73 -9 -97 -25 -70 -10 16 -114 66 -174 84 -76 22
-111 21 -111 -4 0 -20 7 -23 80 -34 43 -7 168 -66 214 -101 61 -46 66 -40 66
90 l0 115 -25 0 c-25 0 -25 -1 -25 -80z"/>
<path d="M4037 1454 c-4 -4 -7 -36 -7 -71 0 -61 1 -63 25 -63 26 0 26 1 23 67
-2 52 -7 68 -18 71 -9 1 -19 0 -23 -4z"/>
<path d="M2600 1369 c0 -67 1 -70 23 -67 20 3 22 9 25 71 3 66 3 67 -23 67
-24 0 -25 -2 -25 -71z"/>
<path d="M5480 1350 c0 -63 2 -70 20 -70 18 0 20 7 20 70 0 63 -2 70 -20 70
-18 0 -20 -7 -20 -70z"/>
<path d="M6897 1413 c-4 -3 -7 -35 -7 -70 0 -61 1 -63 25 -63 24 0 25 2 25 70
0 61 -2 70 -18 70 -10 0 -22 -3 -25 -7z"/>
<path d="M8380 1351 c0 -69 1 -71 25 -71 26 0 26 1 23 68 -3 61 -5 67 -25 70
-22 3 -23 0 -23 -67z"/>
<path d="M9870 1330 c0 -63 2 -70 20 -70 18 0 20 7 20 70 0 63 -2 70 -20 70
-18 0 -20 -7 -20 -70z"/>
<path d="M28917 1384 c-4 -4 -7 -36 -7 -71 0 -61 1 -63 25 -63 26 0 26 1 23
67 -2 52 -7 68 -18 71 -9 1 -19 0 -23 -4z"/>
<path d="M11377 1364 c-4 -4 -7 -36 -7 -71 0 -61 1 -63 25 -63 26 0 26 1 23
67 -2 52 -7 68 -18 71 -9 1 -19 0 -23 -4z"/>
<path d="M21630 1300 c0 -63 2 -70 20 -70 18 0 20 7 20 70 0 63 -2 70 -20 70
-18 0 -20 -7 -20 -70z"/>
<path d="M24530 1300 c0 -63 2 -70 20 -70 18 0 20 7 20 70 0 63 -2 70 -20 70
-18 0 -20 -7 -20 -70z"/>
<path d="M25947 1364 c-4 -4 -7 -36 -7 -71 0 -61 1 -63 25 -63 26 0 26 1 23
67 -2 52 -7 68 -18 71 -9 1 -19 0 -23 -4z"/>
<path d="M27440 1281 c0 -69 1 -71 25 -71 26 0 26 1 23 68 -3 61 -5 67 -25 70
-22 3 -23 0 -23 -67z"/>
<path d="M12827 1314 c-4 -4 -7 -36 -7 -71 0 -61 1 -63 25 -63 26 0 26 1 23
67 -2 52 -7 68 -18 71 -9 1 -19 0 -23 -4z"/>
<path d="M14317 1314 c-4 -4 -7 -36 -7 -71 0 -61 1 -63 25 -63 26 0 26 1 23
67 -2 52 -7 68 -18 71 -9 1 -19 0 -23 -4z"/>
<path d="M18680 1250 c0 -63 2 -70 20 -70 18 0 20 7 20 70 0 63 -2 70 -20 70
-18 0 -20 -7 -20 -70z"/>
<path d="M20140 1250 c0 -63 2 -70 20 -70 18 0 20 7 20 70 0 63 -2 70 -20 70
-18 0 -20 -7 -20 -70z"/>
<path d="M23030 1250 c0 -63 2 -70 20 -70 18 0 20 7 20 70 0 63 -2 70 -20 70
-18 0 -20 -7 -20 -70z"/>
<path d="M17220 1230 c0 -63 2 -70 20 -70 18 0 20 7 20 70 0 63 -2 70 -20 70
-18 0 -20 -7 -20 -70z"/>
<path d="M15792 1193 c3 -60 5 -68 23 -68 18 0 20 8 23 68 3 66 3 67 -23 67
-26 0 -26 -1 -23 -67z"/>
<path d="M4160 1239 c0 -6 9 -24 21 -40 l20 -29 -135 0 -136 0 0 -25 0 -25
180 0 c121 0 180 4 180 11 0 6 -13 22 -30 35 -16 14 -38 39 -47 55 -17 28 -53
40 -53 18z"/>
<path d="M2720 1231 c0 -4 11 -25 25 -45 l24 -36 -139 0 -140 0 0 -25 0 -25
180 0 c159 0 180 2 180 16 0 9 -11 25 -24 35 -14 11 -34 35 -46 54 -19 32 -60
49 -60 26z"/>
<path d="M5600 1204 c0 -4 9 -22 21 -40 l21 -34 -136 0 -136 0 0 -25 0 -25
180 0 c153 0 180 2 180 15 0 8 -9 20 -20 27 -11 7 -32 30 -47 51 -14 20 -34
37 -44 37 -11 0 -19 -3 -19 -6z"/>
<path d="M7020 1203 c0 -5 9 -23 20 -40 l20 -33 -135 0 -135 0 0 -25 0 -25
174 0 c191 0 210 6 157 47 -17 14 -38 38 -46 54 -14 26 -55 42 -55 22z"/>
<path d="M8515 1181 c8 -17 21 -33 27 -38 7 -4 -50 -10 -127 -13 -132 -5 -140
-6 -140 -25 0 -19 8 -20 178 -23 156 -2 177 -1 177 13 0 9 -13 27 -28 40 -15
13 -34 35 -41 49 -9 17 -23 26 -38 26 -23 0 -23 -1 -8 -29z"/>
<path d="M9990 1183 c0 -5 9 -21 20 -38 l20 -30 -133 -5 c-128 -5 -132 -6
-135 -27 l-3 -23 180 0 c154 0 181 2 181 15 0 8 -9 20 -20 27 -11 7 -32 30
-47 51 -22 32 -63 51 -63 30z"/>
<path d="M29040 1169 c0 -6 9 -24 21 -40 l20 -29 -135 0 -136 0 0 -25 0 -25
180 0 c121 0 180 4 180 11 0 6 -13 22 -30 35 -16 14 -38 39 -47 55 -17 28 -53
40 -53 18z"/>
<path d="M11500 1149 c0 -6 9 -24 21 -40 l20 -29 -135 0 -136 0 0 -25 0 -25
180 0 c121 0 180 4 180 11 0 6 -13 22 -30 35 -16 14 -38 39 -47 55 -17 28 -53
40 -53 18z"/>
<path d="M21750 1153 c0 -5 9 -23 20 -40 l20 -33 -135 0 -135 0 0 -25 0 -25
180 0 c147 0 180 3 180 14 0 7 -11 21 -24 29 -13 9 -34 32 -46 51 -12 21 -30
36 -41 36 -10 0 -19 -3 -19 -7z"/>
<path d="M24650 1153 c0 -5 9 -23 20 -40 l20 -33 -135 0 -135 0 0 -25 0 -25
180 0 c147 0 180 3 180 14 0 7 -11 21 -24 29 -13 9 -34 32 -46 51 -12 21 -30
36 -41 36 -10 0 -19 -3 -19 -7z"/>
<path d="M26079 1124 c12 -19 21 -37 21 -39 0 -3 -60 -6 -132 -7 -129 -3 -133
-4 -136 -25 l-3 -23 180 0 c129 0 181 3 181 11 0 7 -18 31 -40 55 -22 24 -40
48 -40 54 0 5 -12 10 -26 10 l-26 0 21 -36z"/>
<path d="M27575 1111 c8 -17 21 -33 27 -38 7 -4 -50 -10 -127 -13 -132 -5
-140 -6 -140 -25 0 -19 8 -20 178 -23 156 -2 177 -1 177 13 0 9 -13 27 -28 40
-15 13 -34 35 -41 49 -9 17 -23 26 -38 26 -23 0 -23 -1 -8 -29z"/>
<path d="M12950 1099 c0 -7 9 -27 21 -45 l21 -34 -136 0 c-129 0 -136 -1 -136
-20 0 -19 7 -20 180 -20 99 0 180 3 180 6 0 4 -20 29 -45 55 -25 26 -45 53
-45 59 0 5 -9 10 -20 10 -11 0 -20 -5 -20 -11z"/>
<path d="M14453 1065 l26 -45 -140 0 c-132 0 -139 -1 -139 -20 0 -19 7 -20
180 -20 150 0 180 2 180 14 0 8 -9 21 -21 30 -12 8 -32 30 -45 50 -15 22 -33
36 -45 36 -20 0 -20 -1 4 -45z"/>
<path d="M18800 1103 c0 -5 9 -23 20 -41 11 -18 20 -35 20 -37 0 -3 -61 -5
-135 -5 -128 0 -135 -1 -135 -20 0 -19 7 -20 180 -20 121 0 180 4 180 11 0 6
-14 22 -30 36 -17 14 -37 38 -46 54 -13 26 -54 42 -54 22z"/>
<path d="M20260 1103 c0 -5 9 -23 20 -41 11 -18 20 -35 20 -37 0 -3 -61 -5
-135 -5 -128 0 -135 -1 -135 -20 0 -19 7 -20 180 -20 121 0 180 4 180 11 0 6
-14 22 -30 36 -17 14 -37 38 -46 54 -13 26 -54 42 -54 22z"/>
<path d="M23150 1103 c0 -5 9 -23 20 -41 11 -18 20 -35 20 -37 0 -3 -61 -5
-135 -5 -128 0 -135 -1 -135 -20 0 -19 7 -20 180 -20 121 0 180 4 180 11 0 6
-14 22 -30 36 -17 14 -37 38 -46 54 -13 26 -54 42 -54 22z"/>
<path d="M17340 1083 c0 -5 9 -23 20 -40 l20 -33 -135 0 -135 0 0 -25 0 -25
180 0 c147 0 180 3 180 14 0 7 -11 21 -24 29 -13 9 -34 32 -46 51 -12 21 -30
36 -41 36 -10 0 -19 -3 -19 -7z"/>
<path d="M15916 1052 c-3 -5 6 -25 20 -45 l25 -37 -141 0 c-141 0 -141 0 -138
-22 3 -23 5 -23 181 -26 158 -2 177 -1 177 14 0 9 -11 25 -24 35 -14 11 -34
35 -46 54 -21 33 -43 44 -54 27z"/>
<path d="M3985 990 c-66 -25 -82 -116 -31 -169 17 -17 46 -36 65 -41 54 -15
146 -12 190 6 123 49 89 214 -44 214 -91 0 -139 -74 -100 -150 15 -30 15 -30
-12 -30 -16 0 -43 9 -60 20 -25 15 -33 27 -33 49 0 29 5 37 41 64 24 17 10 47
-16 37z m219 -41 c13 -7 30 -25 37 -41 18 -43 -13 -82 -69 -86 -74 -6 -109 62
-57 113 26 27 51 31 89 14z"/>
<path d="M2663 971 c-21 -13 -36 -33 -44 -60 -10 -35 -9 -44 9 -75 21 -36 21
-36 1 -36 -33 0 -87 27 -99 50 -16 30 -4 68 25 82 29 13 34 48 6 48 -10 0 -30
-11 -45 -25 -51 -47 -29 -147 41 -181 51 -25 184 -25 230 -1 66 35 84 124 35
178 -37 42 -110 51 -159 20z m125 -47 c26 -18 30 -74 7 -97 -38 -38 -118 -27
-135 18 -13 35 -13 38 11 69 24 31 81 36 117 10z"/>
<path d="M5580 964 c-85 -29 -115 -108 -62 -167 17 -20 16 -20 -26 -14 -91 11
-124 89 -54 126 25 13 30 51 7 51 -8 0 -29 -13 -46 -28 -26 -23 -32 -36 -32
-70 0 -78 49 -119 156 -129 113 -10 189 27 202 100 8 42 -9 82 -45 108 -28 19
-77 30 -100 23z m85 -69 c14 -13 25 -35 25 -49 0 -31 -43 -66 -82 -66 -34 0
-78 39 -78 70 0 32 44 70 80 70 19 0 40 -9 55 -25z"/>
<path d="M6984 959 c-66 -19 -94 -96 -55 -150 l22 -29 -24 0 c-38 0 -86 20
-97 40 -19 36 -12 69 19 85 22 11 28 20 24 35 -6 24 -6 24 -42 5 -60 -31 -66
-123 -10 -169 40 -34 68 -41 161 -41 89 0 121 17 152 79 16 33 17 41 5 73 -24
61 -89 92 -155 72z m101 -64 c14 -13 25 -33 25 -45 0 -31 -44 -70 -78 -70 -40
0 -82 35 -82 68 0 65 87 96 135 47z"/>
<path d="M8473 959 c-65 -19 -94 -98 -56 -156 l17 -26 -38 6 c-63 10 -88 32
-84 75 2 27 9 40 26 47 14 6 22 18 22 33 0 19 -4 22 -22 17 -39 -11 -68 -52
-68 -95 0 -98 136 -157 272 -120 113 32 120 189 10 220 -20 5 -39 10 -42 9 -3
0 -19 -5 -37 -10z m80 -50 c30 -16 37 -28 37 -66 0 -58 -86 -87 -130 -43 -60
60 16 149 93 109z"/>
<path d="M9814 930 c-34 -13 -54 -50 -54 -98 0 -78 69 -122 193 -122 102 0
156 37 164 114 5 42 3 48 -30 81 -30 30 -41 35 -84 35 -57 0 -90 -19 -109 -65
-14 -35 -9 -71 14 -97 14 -17 13 -18 -10 -18 -46 0 -86 20 -98 50 -14 33 -1
65 30 75 13 4 20 15 20 31 0 26 -4 27 -36 14z m248 -57 c24 -21 23 -68 -2 -93
-25 -25 -86 -27 -112 -3 -18 16 -24 68 -10 89 24 36 88 40 124 7z"/>
<path d="M28865 920 c-66 -25 -82 -116 -31 -169 17 -17 46 -36 65 -41 54 -15
146 -12 190 6 123 49 89 214 -44 214 -91 0 -139 -74 -100 -150 15 -30 15 -30
-12 -30 -16 0 -43 9 -60 20 -25 15 -33 27 -33 49 0 29 5 37 41 64 24 17 10 47
-16 37z m219 -41 c13 -7 30 -25 37 -41 18 -43 -13 -82 -69 -86 -74 -6 -109 62
-57 113 26 27 51 31 89 14z"/>
<path d="M11464 909 c-66 -19 -94 -96 -55 -150 l22 -29 -24 0 c-38 0 -86 20
-97 40 -19 36 -12 69 19 85 22 11 28 20 24 35 -6 24 -6 24 -42 5 -60 -31 -66
-123 -10 -169 40 -34 68 -41 161 -41 89 0 121 17 152 79 16 33 17 41 5 73 -24
61 -89 92 -155 72z m101 -64 c14 -13 25 -33 25 -45 0 -31 -44 -70 -78 -70 -40
0 -82 35 -82 68 0 65 87 96 135 47z"/>
<path d="M21730 914 c-85 -29 -115 -108 -62 -167 17 -20 16 -20 -26 -14 -91
11 -124 89 -54 126 25 13 30 51 7 51 -8 0 -29 -13 -46 -28 -26 -23 -32 -36
-32 -70 0 -78 49 -119 156 -129 113 -10 189 27 202 100 8 42 -9 82 -45 108
-28 19 -77 30 -100 23z m85 -69 c14 -13 25 -35 25 -49 0 -31 -43 -66 -82 -66
-34 0 -78 39 -78 70 0 32 44 70 80 70 19 0 40 -9 55 -25z"/>
<path d="M24630 914 c-85 -29 -115 -108 -62 -167 17 -20 16 -20 -26 -14 -91
11 -124 89 -54 126 25 13 30 51 7 51 -8 0 -29 -13 -46 -28 -26 -23 -32 -36
-32 -70 0 -78 49 -119 156 -129 113 -10 189 27 202 100 8 42 -9 82 -45 108
-28 19 -77 30 -100 23z m85 -69 c14 -13 25 -35 25 -49 0 -31 -43 -66 -82 -66
-34 0 -78 39 -78 70 0 32 44 70 80 70 19 0 40 -9 55 -25z"/>
<path d="M26033 909 c-65 -19 -94 -98 -56 -156 l17 -26 -38 6 c-63 10 -88 32
-84 75 2 27 9 40 26 47 14 6 22 18 22 33 0 19 -4 22 -22 17 -39 -11 -68 -52
-68 -95 0 -98 136 -157 272 -120 113 32 120 189 10 220 -20 5 -39 10 -42 9 -3
0 -19 -5 -37 -10z m80 -50 c30 -16 37 -28 37 -66 0 -58 -86 -87 -130 -43 -60
60 16 149 93 109z"/>
<path d="M27533 889 c-65 -19 -94 -98 -56 -156 l17 -26 -38 6 c-63 10 -88 32
-84 75 2 27 9 40 26 47 14 6 22 18 22 33 0 19 -4 22 -22 17 -39 -11 -68 -52
-68 -95 0 -98 136 -157 272 -120 113 32 120 189 10 220 -20 5 -39 10 -42 9 -3
0 -19 -5 -37 -10z m80 -50 c30 -16 37 -28 37 -66 0 -58 -86 -87 -130 -43 -60
60 16 149 93 109z"/>
<path d="M12775 850 c-66 -25 -82 -116 -31 -169 17 -17 46 -36 65 -41 54 -15
146 -12 190 6 123 49 89 214 -44 214 -91 0 -139 -74 -100 -150 15 -30 15 -30
-12 -30 -16 0 -43 9 -60 20 -25 15 -33 27 -33 49 0 29 5 37 41 64 24 17 10 47
-16 37z m219 -41 c13 -7 30 -25 37 -41 18 -43 -13 -82 -69 -86 -74 -6 -109 62
-57 113 26 27 51 31 89 14z"/>
<path d="M14251 846 c-72 -40 -65 -153 12 -192 41 -22 163 -30 210 -15 49 17
87 63 87 107 0 46 -22 87 -55 102 -56 26 -141 6 -165 -37 -15 -29 -12 -84 7
-110 l16 -24 -42 6 c-55 7 -81 31 -81 74 0 26 6 36 25 45 16 7 25 19 25 35 0
26 -5 28 -39 9z m251 -53 c26 -23 24 -78 -4 -97 -53 -38 -128 -6 -128 53 0 62
82 89 132 44z"/>
<path d="M18625 850 c-58 -22 -78 -104 -39 -157 30 -41 70 -57 149 -61 127 -7
190 35 190 125 0 38 -5 49 -33 74 -26 24 -41 29 -82 29 -41 0 -56 -5 -82 -29
-27 -24 -33 -36 -33 -69 0 -26 7 -48 19 -61 19 -21 19 -21 -13 -21 -92 0 -138
91 -63 125 21 9 30 39 15 48 -5 3 -17 1 -28 -3z m225 -45 c34 -18 47 -56 32
-90 -21 -46 -102 -47 -135 -3 -25 34 -15 76 23 95 33 17 45 16 80 -2z"/>
<path d="M20085 850 c-58 -22 -78 -104 -39 -157 30 -41 70 -57 149 -61 127 -7
190 35 190 125 0 38 -5 49 -33 74 -26 24 -41 29 -82 29 -41 0 -56 -5 -82 -29
-27 -24 -33 -36 -33 -69 0 -26 7 -48 19 -61 19 -21 19 -21 -13 -21 -92 0 -138
91 -63 125 21 9 30 39 15 48 -5 3 -17 1 -28 -3z m225 -45 c34 -18 47 -56 32
-90 -21 -46 -102 -47 -135 -3 -25 34 -15 76 23 95 33 17 45 16 80 -2z"/>
<path d="M22975 850 c-58 -22 -78 -104 -39 -157 30 -41 70 -57 149 -61 127 -7
190 35 190 125 0 38 -5 49 -33 74 -26 24 -41 29 -82 29 -41 0 -56 -5 -82 -29
-27 -24 -33 -36 -33 -69 0 -26 7 -48 19 -61 19 -21 19 -21 -13 -21 -92 0 -138
91 -63 125 21 9 30 39 15 48 -5 3 -17 1 -28 -3z m225 -45 c34 -18 47 -56 32
-90 -21 -46 -102 -47 -135 -3 -25 34 -15 76 23 95 33 17 45 16 80 -2z"/>
<path d="M17320 844 c-85 -29 -115 -108 -62 -167 17 -20 16 -20 -26 -14 -91
11 -124 89 -54 126 25 13 30 51 7 51 -8 0 -29 -13 -46 -28 -26 -23 -32 -36
-32 -70 0 -78 49 -119 156 -129 113 -10 189 27 202 100 8 42 -9 82 -45 108
-28 19 -77 30 -100 23z m85 -69 c14 -13 25 -35 25 -49 0 -31 -43 -66 -82 -66
-34 0 -78 39 -78 70 0 32 44 70 80 70 19 0 40 -9 55 -25z"/>
<path d="M15865 799 c-57 -33 -72 -104 -34 -153 l22 -27 -39 7 c-74 13 -94 30
-94 82 0 25 6 35 25 44 30 13 34 48 6 48 -11 0 -31 -14 -46 -32 -23 -27 -26
-39 -22 -76 9 -80 63 -112 190 -112 113 0 167 40 167 124 0 56 -43 98 -106
103 -27 2 -58 -2 -69 -8z m117 -56 c22 -20 23 -70 1 -95 -21 -23 -89 -24 -115
-1 -22 20 -23 70 -1 95 21 23 89 24 115 1z"/>
<path d="M4019 721 c-47 -15 -66 -30 -84 -67 -44 -92 48 -188 150 -154 70 23
97 100 54 154 l-20 26 28 0 c32 0 91 -33 99 -55 11 -27 -6 -65 -31 -75 -15 -6
-25 -17 -25 -30 0 -43 72 -9 89 43 13 37 1 89 -25 118 -35 38 -166 60 -235 40z
m76 -66 c50 -49 19 -115 -55 -115 -75 0 -109 76 -54 119 36 28 79 27 109 -4z"/>
<path d="M2554 696 c-44 -19 -64 -53 -64 -106 1 -48 10 -66 50 -93 31 -22 108
-22 139 -1 49 35 59 111 20 153 -20 21 -20 21 1 21 27 0 92 -27 102 -43 4 -7
8 -27 8 -45 0 -25 -6 -35 -25 -44 -31 -14 -34 -48 -5 -48 37 0 70 44 70 93 0
52 -27 93 -76 113 -43 18 -179 18 -220 0z m108 -53 c11 -10 18 -30 18 -55 0
-34 -4 -40 -34 -55 -39 -18 -77 -12 -106 17 -27 27 -25 56 5 85 29 30 89 34
117 8z"/>
<path d="M5435 671 c-97 -44 -91 -175 10 -209 48 -16 106 -1 134 35 25 31 27
89 5 121 -14 21 -14 22 11 22 85 0 130 -96 61 -128 -18 -8 -23 -16 -19 -31 6
-25 6 -25 42 -6 84 43 55 169 -48 204 -52 17 -150 13 -196 -8z m105 -51 c45
-45 11 -120 -54 -120 -43 0 -86 33 -86 66 0 62 96 98 140 54z"/>
<path d="M6861 677 c-75 -28 -103 -127 -52 -181 54 -57 155 -53 191 7 24 39
25 68 5 107 -15 29 -15 30 10 30 84 0 125 -77 65 -122 -31 -23 -41 -58 -15
-58 8 0 29 13 46 28 57 51 38 144 -37 181 -39 20 -170 24 -213 8z m96 -59 c63
-59 -20 -149 -100 -107 -29 16 -37 28 -37 61 0 58 91 89 137 46z"/>
<path d="M8354 679 c-45 -13 -76 -51 -81 -101 -4 -37 -1 -49 22 -76 51 -61
134 -63 186 -4 26 29 30 41 25 70 -3 19 -13 43 -22 53 -16 18 -16 19 18 19 39
0 83 -29 93 -61 8 -24 -19 -69 -40 -69 -9 0 -15 -10 -15 -25 0 -34 24 -32 61
4 24 24 29 38 29 76 0 81 -68 126 -190 124 -30 0 -69 -5 -86 -10z m95 -65 c27
-35 26 -59 -4 -89 -28 -29 -79 -33 -113 -9 -29 20 -30 76 -2 104 31 31 93 27
119 -6z"/>
<path d="M9848 658 c-112 -30 -120 -183 -12 -218 48 -16 95 -6 127 28 36 38
41 70 18 116 l-20 38 36 -5 c57 -10 83 -32 83 -72 0 -26 -6 -39 -25 -51 -28
-18 -34 -54 -9 -54 8 0 29 13 45 29 65 65 20 168 -82 190 -59 13 -110 13 -161
-1z m82 -58 c28 -28 27 -84 -2 -104 -41 -29 -106 -17 -128 24 -35 66 76 134
130 80z"/>
<path d="M29004 649 c-66 -19 -94 -96 -55 -150 l22 -29 -24 0 c-38 0 -86 20
-97 40 -19 36 -12 69 19 85 22 11 28 20 24 35 -6 24 -6 24 -42 5 -60 -31 -66
-123 -10 -169 40 -34 68 -41 161 -41 89 0 121 17 152 79 16 33 17 41 5 73 -24
61 -89 92 -155 72z m101 -64 c14 -13 25 -33 25 -45 0 -31 -44 -70 -78 -70 -40
0 -82 35 -82 68 0 65 87 96 135 47z"/>
<path d="M11577 633 c-4 -3 -7 -41 -7 -84 l0 -78 -57 35 c-51 31 -133 61 -215
78 -24 6 -28 3 -28 -18 0 -21 7 -25 58 -35 64 -12 177 -64 231 -105 58 -44 61
-40 61 94 0 110 -2 120 -18 120 -10 0 -22 -3 -25 -7z"/>
<path d="M21580 622 c-44 -21 -74 -79 -65 -122 21 -97 128 -129 187 -56 10 11
18 15 18 9 0 -19 57 -44 84 -37 45 11 71 50 71 106 0 42 -4 53 -28 74 -35 30
-83 31 -113 3 -22 -21 -22 -21 -33 -1 -6 11 -25 25 -42 31 -40 14 -38 14 -79
-7z m88 -48 c27 -19 30 -78 5 -106 -22 -24 -77 -24 -103 2 -61 61 27 154 98
104z m150 -10 c41 -28 18 -104 -31 -104 -51 0 -74 63 -37 100 24 24 38 25 68
4z"/>
<path d="M24480 622 c-44 -21 -74 -79 -65 -122 21 -97 128 -129 187 -56 10 11
18 15 18 9 0 -19 57 -44 84 -37 45 11 71 50 71 106 0 42 -4 53 -28 74 -35 30
-83 31 -113 3 -22 -21 -22 -21 -33 -1 -6 11 -25 25 -42 31 -40 14 -38 14 -79
-7z m88 -48 c27 -19 30 -78 5 -106 -22 -24 -77 -24 -103 2 -61 61 27 154 98
104z m150 -10 c41 -28 18 -104 -31 -104 -51 0 -74 63 -37 100 24 24 38 25 68
4z"/>
<path d="M26033 629 c-65 -19 -94 -98 -56 -156 l17 -26 -38 6 c-63 10 -88 32
-84 75 2 27 9 40 26 47 14 6 22 18 22 33 0 19 -4 22 -22 17 -39 -11 -68 -52
-68 -95 0 -98 136 -157 272 -120 113 32 120 189 10 220 -20 5 -39 10 -42 9 -3
0 -19 -5 -37 -10z m80 -50 c30 -16 37 -28 37 -66 0 -58 -86 -87 -130 -43 -60
60 16 149 93 109z"/>
<path d="M27524 610 c-59 -24 -82 -105 -43 -154 19 -24 19 -26 2 -26 -38 0
-93 22 -103 40 -18 33 -12 68 15 86 28 18 34 54 9 54 -8 0 -29 -14 -46 -30
-27 -28 -30 -36 -25 -76 9 -82 68 -118 192 -118 111 1 165 40 165 119 0 49
-22 83 -66 101 -37 16 -69 17 -100 4z m104 -56 c15 -10 22 -25 22 -47 0 -38
-7 -50 -37 -66 -74 -39 -151 51 -93 109 24 24 77 26 108 4z"/>
<path d="M13027 583 c-4 -3 -7 -41 -7 -84 l0 -78 -57 35 c-51 31 -133 61 -215
78 -24 6 -28 3 -28 -18 0 -21 7 -25 58 -35 64 -12 177 -64 231 -105 58 -44 61
-40 61 94 0 110 -2 120 -18 120 -10 0 -22 -3 -25 -7z"/>
<path d="M14515 578 c-2 -7 -6 -45 -7 -85 l-3 -72 -55 35 c-57 36 -150 69
-210 76 -30 2 -35 0 -38 -19 -3 -19 3 -22 45 -29 72 -10 147 -41 221 -90 36
-25 72 -42 79 -40 11 4 13 31 11 118 -3 98 -5 113 -21 116 -9 2 -19 -2 -22
-10z"/>
<path d="M18880 505 c0 -77 -8 -102 -25 -75 -10 16 -135 76 -185 88 -101 25
-100 25 -100 -2 0 -21 7 -25 58 -35 64 -12 177 -64 231 -105 58 -44 61 -40 61
94 0 113 -1 120 -20 120 -18 0 -20 -7 -20 -85z"/>
<path d="M20090 572 c-44 -21 -74 -79 -65 -122 21 -97 128 -129 187 -56 10 11
18 15 18 9 0 -19 57 -44 84 -37 45 11 71 50 71 106 0 42 -4 53 -28 74 -35 30
-83 31 -113 3 -22 -21 -22 -21 -33 -1 -6 11 -25 25 -42 31 -40 14 -38 14 -79
-7z m88 -48 c27 -19 30 -78 5 -106 -22 -24 -77 -24 -103 2 -61 61 27 154 98
104z m150 -10 c41 -28 18 -104 -31 -104 -51 0 -74 63 -37 100 24 24 38 25 68
4z"/>
<path d="M22980 572 c-44 -21 -74 -79 -65 -122 21 -97 128 -129 187 -56 10 11
18 15 18 9 0 -19 57 -44 84 -37 45 11 71 50 71 106 0 42 -4 53 -28 74 -35 30
-83 31 -113 3 -22 -21 -22 -21 -33 -1 -6 11 -25 25 -42 31 -40 14 -38 14 -79
-7z m88 -48 c27 -19 30 -78 5 -106 -22 -24 -77 -24 -103 2 -61 61 27 154 98
104z m150 -10 c41 -28 18 -104 -31 -104 -51 0 -74 63 -37 100 24 24 38 25 68
4z"/>
<path d="M17420 485 c0 -77 -8 -102 -25 -75 -10 16 -135 76 -185 88 -101 25
-100 25 -100 -2 0 -21 7 -25 58 -35 64 -12 177 -64 231 -105 58 -44 61 -40 61
94 0 113 -1 120 -20 120 -18 0 -20 -7 -20 -85z"/>
<path d="M15990 450 c0 -73 -9 -97 -25 -70 -10 16 -114 66 -174 84 -76 22
-111 21 -111 -4 0 -20 7 -23 80 -34 43 -7 168 -66 214 -101 61 -46 66 -40 66
90 l0 115 -25 0 c-25 0 -25 -1 -25 -80z"/>
<path d="M4017 464 c-4 -4 -7 -40 -7 -81 l0 -73 -40 0 c-36 0 -40 -2 -40 -25
0 -22 4 -25 39 -25 33 0 40 -4 43 -22 5 -34 38 -37 38 -4 l0 26 114 0 c165 0
165 10 1 125 -114 80 -135 92 -148 79z m178 -146 c5 -4 -25 -8 -68 -8 l-77 0
0 56 0 56 68 -48 c37 -26 71 -51 77 -56z"/>
<path d="M2490 319 c0 -119 0 -120 23 -117 20 3 22 9 27 88 l5 84 63 -71 c98
-110 161 -128 217 -61 46 55 27 152 -35 178 -27 11 -33 11 -41 -1 -12 -19 -6
-33 17 -38 32 -6 44 -22 44 -61 0 -23 -7 -43 -18 -53 -39 -35 -86 -14 -161 73
-53 61 -103 100 -128 100 -10 0 -13 -31 -13 -121z"/>
<path d="M5680 326 l0 -85 -57 35 c-69 41 -143 70 -206 79 -45 7 -47 6 -47
-17 0 -23 5 -26 52 -31 55 -7 182 -62 235 -103 58 -44 63 -38 63 91 0 108 -1
115 -20 115 -18 0 -20 -7 -20 -84z"/>
<path d="M6840 397 c-37 -18 -62 -74 -56 -122 10 -85 115 -127 173 -69 l25 25
22 -20 c31 -29 70 -26 108 7 27 25 31 36 31 77 0 41 -4 52 -31 77 -39 34 -75
36 -106 5 l-23 -23 -25 28 c-29 31 -74 37 -118 15z m104 -56 c25 -28 17 -79
-16 -104 -29 -22 -65 -18 -92 9 -21 20 -20 73 1 96 22 25 84 24 107 -1z m150
-7 c35 -35 12 -94 -37 -94 -40 0 -57 15 -57 51 0 34 24 59 55 59 13 0 31 -7
39 -16z"/>
<path d="M8309 382 c-26 -23 -33 -38 -37 -80 -4 -49 -2 -54 31 -87 45 -45 104
-49 143 -10 24 24 25 24 44 5 30 -30 76 -26 111 9 23 24 29 38 29 74 0 85 -72
132 -133 87 -26 -20 -32 -21 -41 -8 -34 45 -102 50 -147 10z m125 -44 c23 -33
20 -65 -10 -95 -20 -20 -31 -24 -57 -19 -39 8 -57 30 -57 70 0 42 26 66 71 66
28 0 42 -6 53 -22z m153 -14 c15 -24 15 -29 2 -53 -16 -29 -61 -40 -85 -20
-17 14 -19 70 -2 87 22 22 66 14 85 -14z"/>
<path d="M9824 381 c-39 -17 -64 -60 -64 -110 0 -56 20 -88 67 -108 42 -17 97
-3 114 29 11 20 11 20 33 -1 53 -50 146 -2 146 74 0 95 -95 147 -149 81 -11
-13 -15 -12 -34 10 -24 27 -79 39 -113 25z m95 -67 c12 -15 21 -35 21 -46 0
-27 -45 -68 -75 -68 -30 0 -75 41 -75 68 0 11 9 31 21 46 28 36 80 36 108 0z
m142 6 c28 -15 26 -74 -3 -94 -12 -9 -28 -16 -35 -16 -20 0 -53 38 -53 60 0
24 34 60 56 60 8 0 24 -5 35 -10z"/>
<path d="M28853 360 c-44 -26 -62 -84 -42 -137 18 -47 87 -87 133 -78 71 13
117 79 97 138 -6 17 -10 31 -8 33 1 1 18 -1 37 -5 l35 -7 5 -69 c5 -63 7 -70
28 -73 21 -3 22 -1 22 85 l0 89 -86 18 c-101 21 -119 14 -91 -33 25 -42 22
-96 -5 -115 -55 -39 -138 -3 -138 60 0 29 6 38 34 55 25 15 33 25 29 39 -7 25
-10 25 -50 0z"/>
<path d="M21520 249 l0 -119 25 0 c25 0 25 1 25 88 l0 87 70 -77 c96 -104 155
-122 212 -61 34 36 33 123 -2 157 -14 14 -37 28 -52 31 -25 6 -28 4 -28 -19 0
-19 5 -26 19 -26 23 0 51 -36 51 -65 0 -36 -28 -65 -62 -65 -26 0 -45 15 -117
88 -55 57 -96 91 -113 94 l-28 5 0 -118z"/>
<path d="M11361 350 c-80 -19 -120 -88 -89 -154 24 -49 75 -70 173 -70 84 0
123 13 159 53 24 26 26 90 3 124 -30 46 -152 69 -246 47z m183 -54 c44 -18 54
-50 29 -84 -24 -32 -49 -40 -133 -41 -83 -1 -134 21 -138 62 -4 31 11 55 43
67 33 14 163 11 199 -4z"/>
<path d="M24484 351 c-55 -24 -84 -98 -60 -154 30 -72 112 -94 164 -44 29 27
29 27 47 7 11 -12 31 -20 49 -20 112 0 128 171 19 204 -24 8 -63 -8 -77 -32
-7 -12 -12 -10 -30 12 -23 29 -77 42 -112 27z m88 -58 c27 -24 24 -87 -4 -107
-71 -50 -159 43 -98 104 24 24 77 26 102 3z m152 -9 c34 -34 6 -104 -41 -104
-21 0 -53 38 -53 62 0 49 61 76 94 42z"/>
<path d="M25923 348 c-74 -16 -110 -82 -83 -152 13 -35 48 -55 118 -67 129
-23 232 26 232 109 0 97 -115 144 -267 110z m184 -49 c33 -12 43 -26 43 -60 0
-50 -31 -64 -140 -64 -109 0 -140 14 -140 64 0 34 10 48 40 60 34 13 162 14
197 0z"/>
<path d="M27368 311 c-30 -27 -33 -35 -33 -86 0 -51 3 -59 33 -86 43 -39 102
-40 138 -4 23 23 27 24 47 10 88 -62 183 68 112 153 -34 40 -65 48 -65 17 0
-15 8 -26 20 -30 45 -14 50 -83 9 -106 -34 -18 -66 -3 -80 36 -15 41 -39 47
-39 10 0 -30 -41 -75 -68 -75 -36 0 -72 38 -72 76 0 28 6 38 30 52 19 11 30
25 30 40 0 30 -23 28 -62 -7z"/>
<path d="M12720 195 c0 -108 1 -115 20 -115 18 0 20 7 20 88 l1 87 62 -68 c35
-37 76 -77 92 -87 87 -58 184 23 155 129 -11 40 -33 62 -77 76 -19 5 -23 3
-23 -17 0 -17 8 -27 29 -35 64 -24 45 -123 -23 -123 -28 0 -43 11 -97 68 -76
80 -116 112 -141 112 -16 0 -18 -11 -18 -115z"/>
<path d="M14200 195 l0 -115 25 0 c25 0 25 1 25 88 l1 87 72 -77 c40 -42 82
-81 94 -87 40 -20 82 -13 114 18 24 25 29 37 29 80 0 41 -5 56 -27 80 -16 16
-38 32 -50 36 -20 5 -23 3 -23 -19 0 -15 6 -26 13 -26 24 0 47 -35 47 -71 0
-44 -15 -59 -58 -59 -29 0 -43 11 -105 76 -71 74 -111 104 -142 104 -13 0 -15
-18 -15 -115z"/>
<path d="M18680 301 c-74 -16 -112 -52 -114 -109 -1 -58 24 -89 91 -108 92
-27 213 -8 252 39 39 47 17 133 -41 160 -40 19 -140 29 -188 18z m153 -52 c47
-13 66 -46 49 -84 -16 -34 -49 -45 -137 -45 -88 0 -121 11 -137 45 -16 36 3
72 44 84 45 13 135 13 181 0z"/>
<path d="M20140 301 c-74 -16 -112 -52 -114 -109 -1 -58 24 -89 91 -108 92
-27 213 -8 252 39 39 47 17 133 -41 160 -40 19 -140 29 -188 18z m153 -52 c47
-13 66 -46 49 -84 -16 -34 -49 -45 -137 -45 -88 0 -121 11 -137 45 -16 36 3
72 44 84 45 13 135 13 181 0z"/>
<path d="M22920 195 l0 -115 25 0 c24 0 24 2 27 85 l3 85 53 -61 c69 -81 95
-100 141 -106 110 -15 152 168 49 211 -18 8 -36 12 -40 10 -14 -9 -8 -44 7
-44 46 0 72 -81 37 -113 -39 -35 -72 -22 -146 56 -74 78 -111 107 -138 107
-16 0 -18 -12 -18 -115z"/>
<path d="M17165 276 c-53 -23 -76 -103 -46 -159 30 -57 126 -79 178 -41 43 32
58 70 46 116 -9 34 -8 38 6 34 9 -2 28 -7 44 -10 26 -6 27 -8 27 -76 0 -63 2
-70 20 -70 18 0 20 7 20 89 l0 88 -82 17 c-46 9 -86 16 -90 16 -13 0 -14 -35
-1 -51 7 -8 16 -29 19 -46 14 -71 -88 -112 -141 -58 -14 13 -25 36 -25 50 0
28 31 65 55 65 15 0 21 35 7 44 -4 2 -21 -1 -37 -8z"/>
<path d="M15743 245 c-84 -36 -82 -175 2 -211 50 -21 73 -17 106 16 l30 30 28
-21 c90 -66 182 82 102 162 -34 33 -57 37 -64 10 -3 -13 3 -22 19 -30 63 -28
47 -115 -19 -109 -26 2 -36 10 -50 41 -22 45 -37 48 -37 7 0 -17 -9 -39 -20
-50 -42 -42 -120 -11 -120 48 0 33 8 45 41 63 19 11 24 19 20 36 -6 20 -8 21
-38 8z"/>
</g>
</svg>
