<?xml version="1.0" encoding="utf-8"?>
<!-- Generator: Adobe Illustrator 25.4.1, SVG Export Plug-In . SVG Version: 6.00 Build 0)  -->
<svg version="1.1" id="Capa_1" xmlns="http://www.w3.org/2000/svg" xmlns:xlink="http://www.w3.org/1999/xlink" x="0px" y="0px"
	 viewBox="0 0 529.1 420.9" style="enable-background:new 0 0 529.1 420.9;" xml:space="preserve">
<style type="text/css">
	.st0{fill:#E94E1B;}
	.st1{fill:#1D71B8;}
	.st2{fill:#706F6F;}
	.st3{fill:#008D36;}
	.st4{fill:#1D1D1B;}
	.st5{font-family:'ArialMT';}
	.st6{font-size:11px;}
</style>
<path class="st0" d="M260.5,131.5c-0.2,0.8-0.4,1.6-0.4,2.5c-0.1,8.8-0.1,17.7-0.1,26.5c0,2.7-1.6,4.1-4.1,3.8
	c-1.9-0.2-2.8-1.3-2.8-3.3c-0.1-7.7-0.2-15.3-0.3-23c0-8.4,0-16.7,0-25.1c-0.1-0.8-0.4-1.5-0.7-2.2c-0.4,0.6-0.7,1.4-0.8,2.1
	c-0.1,5.1-0.1,10.2-0.1,15.3c0,2-0.5,3.4-2.8,3.4s-2.7-1.6-2.7-3.5c0-6.4-0.1-12.8,0-19.2c-0.1-4.2,3.2-7.7,7.4-7.9
	c5.1-0.2,10.1-0.2,15.2-0.2c4.4,0.2,7.9,3.9,7.8,8.3c-0.2,6.6,0,13.3,0,19.9c0,1.9-1,3-2.9,2.8c-1.6-0.1-2.3-1.3-2.3-3
	c0-5.2,0-10.3,0-15.5c0-0.6,0-1.3-0.1-1.9c-0.1-0.3-0.4-0.6-0.8-0.6c-0.2,0-0.6,0.4-0.7,0.7c-0.1,0.7-0.1,1.4-0.1,2.1
	c-0.1,15.6-0.2,31.3-0.3,46.9c0,2.8-1.3,4-3.8,3.8c-2.1-0.2-3.2-1.3-3.3-3.8c-0.1-8.8-0.1-17.5-0.2-26.3c0-0.9-0.1-1.8-0.2-2.6
	L260.5,131.5z"/>
<path class="st1" d="M303.9,279.1c0,0.9,0,1.8,0,2.7c-0.1,15.7-0.2,31.5-0.3,47.2c0,2.7-1.4,4-3.9,3.8c-2.1-0.2-3.2-1.4-3.2-3.8
	c-0.1-8.8-0.1-17.5-0.2-26.3c0-0.9-0.1-1.8-0.2-2.6l-0.9-0.1c-0.2,0.8-0.3,1.7-0.4,2.5c-0.1,8.8-0.1,17.7-0.1,26.5
	c0,2.7-1.6,4.1-4.1,3.8c-1.7-0.1-2.9-1.5-2.9-3.1c0-0.1,0-0.1,0-0.2c-0.1-6.9-0.2-13.8-0.3-20.6c0-9.2,0-18.5,0-27.7
	c-0.1-0.7-0.3-1.4-0.6-2c-0.4,0.6-0.7,1.3-0.9,2c-0.1,5.2-0.1,10.3-0.1,15.5c0,1.9-0.5,3.2-2.7,3.3s-2.8-1.2-2.8-3.1
	c0-6.6-0.1-13.1,0-19.7c-0.1-4.1,3.1-7.6,7.3-7.8c5.3-0.3,10.6-0.3,15.9-0.1c4.1,0.4,7.2,3.8,7.2,7.9c-0.2,6.8,0.1,13.6,0,20.4
	c0,2.2-2.2,3.5-3.8,2.3c-0.8-0.7-1.2-1.7-1.3-2.7c-0.1-5.3-0.1-10.6-0.1-16c-0.1-0.7-0.3-1.4-0.5-2.1L303.9,279.1z"/>
<path d="M234.6,110.7v2.8c-0.1,15.7-0.2,31.4-0.3,47.2c0,2.7-1.7,4.1-4.2,3.6c-2-0.4-2.9-1.6-2.9-3.7c0-8.8-0.1-17.5-0.2-26.3
	c0-0.9-0.1-1.8-0.1-2.7l-1-0.1c-0.2,0.8-0.4,1.6-0.5,2.4c-0.1,8.8-0.1,17.7-0.1,26.5c0,1.9-0.6,3.3-2.5,3.7
	c-2.6,0.6-4.6-0.8-4.6-3.4c0-11-0.2-22.1-0.2-33.1c0-4.9,0-9.7,0-14.5c0-0.8-0.1-1.6-0.1-2.4l-0.9-0.1c-0.3,0.7-0.4,1.4-0.5,2.1
	c-0.1,5.1-0.1,10.2,0,15.2c0,1.9-0.4,3.4-2.7,3.5s-2.8-1.5-2.8-3.4c0-6.4-0.1-12.8,0-19.2c0.1-4.4,3-7.7,7.3-8
	c5.2-0.3,10.5-0.3,15.7-0.1c4.1,0.3,7.4,3.8,7.4,7.9c-0.2,5.8,0.1,11.6,0.2,17.4c0,1.1-0.1,2.2-0.2,3.3c-0.1,1.4-1.3,2.5-2.7,2.5
	c-1.4-0.1-2.5-1.3-2.5-2.7c0-5.4,0-10.8-0.1-16.2c-0.1-0.8-0.2-1.5-0.5-2.3L234.6,110.7z"/>
<path class="st0" d="M94.8,195.2v2.7c-0.1,15.7-0.2,31.4-0.3,47.1c0,2.9-1.9,4.4-4.6,3.6c-1.9-0.5-2.5-1.8-2.5-3.7
	c0-8.7-0.1-17.4-0.2-26c0-0.9,0-1.8,0-2.7l-1-0.2c-0.3,0.7-0.5,1.5-0.6,2.3c-0.1,8.8-0.1,17.7-0.1,26.5c0,1.8-0.5,3.2-2.4,3.8
	c-2.7,0.8-4.6-0.5-4.6-3.5c-0.1-15.7-0.2-31.4-0.3-47.1c-0.1-1-0.4-1.9-0.7-2.9c-0.4,0.9-0.7,1.8-0.8,2.8c-0.1,4.9-0.1,9.9-0.1,14.8
	c0,1.9-0.7,3.2-2.7,3.3s-2.8-1.3-2.8-3.2c0-6.6,0-13.1,0-19.7c0-4.2,3.3-7.7,7.5-7.8c5-0.2,10-0.2,15-0.1c4.8,0.1,7.8,3.3,7.9,8.1
	c0.1,6.7,0.1,13.4,0,20.2c-0.1,1-0.7,1.9-1.6,2.4c-0.9,0.3-1.9,0.1-2.7-0.6c-0.5-0.7-0.8-1.6-0.8-2.5c-0.1-5.2,0-10.5-0.1-15.7
	c-0.1-0.7-0.3-1.4-0.6-2.1L94.8,195.2z"/>
<path class="st2" d="M287.2,365.1c-0.3,0.7-0.4,1.4-0.5,2.2c-0.1,4.8,0,9.5,0,14.3c0,0.6,0,1.2,0,1.9c0.1,1.4-0.9,2.6-2.3,2.7
	c-0.2,0-0.4,0-0.6,0c-1.3,0.1-2.5-0.8-2.6-2.1c0-0.2,0-0.4,0-0.6c0-7-0.1-13.9,0-20.9c0.3-3.9,3.4-7,7.4-7.2
	c5.2-0.1,10.5-0.2,15.7,0c4,0.3,7.1,3.5,7.2,7.5c0.1,6.5,0.2,13,0.2,19.5c0,3-0.8,4-2.8,3.9c-2.6-0.1-2.5-2.1-2.5-3.9c0-5,0-10,0-15
	c-0.1-0.7-0.2-1.5-0.4-2.2h-0.8c-0.2,0.9-0.3,1.8-0.3,2.7c-0.1,15.7-0.2,31.4-0.3,47.2c0,2.6-1.1,3.9-3.3,4
	c-1.9,0.2-3.6-1.2-3.8-3.1c0-0.2,0-0.4,0-0.7c-0.1-8.8-0.2-17.5-0.2-26.3c0-0.9,0-1.8,0-2.7l-1-0.2c-0.3,0.8-0.4,1.5-0.5,2.3
	c-0.1,8.8,0,17.5-0.1,26.3c0,1-0.2,2.5-0.8,3c-1.2,0.7-2.6,1.1-4,1c-1.6-0.1-2.1-1.5-2.1-3.1c0-4.9-0.2-9.9-0.3-14.8
	c0-11,0-21.9,0-32.9c0-0.9-0.1-1.8-0.1-2.7L287.2,365.1z"/>
<path d="M286.3,25.1c-0.3,0.7-0.4,1.4-0.5,2.2c0,5.2-0.1,10.5,0,15.7c0,2-0.9,3.2-2.9,3.2c-1.3,0.2-2.4-0.7-2.6-2c0-0.2,0-0.3,0-0.5
	c0-7.1-0.2-14.2,0.1-21.4c0.3-3.8,3.5-6.8,7.4-6.9c5.1-0.1,10.2-0.2,15.2-0.1c4.2,0,7.7,3.3,7.7,7.5c0,0.1,0,0.1,0,0.2
	c0.1,6.7,0.2,13.3,0.1,19.9c-0.1,1.1-0.6,2.1-1.4,2.9c-1.7,1.2-3.7-0.2-3.7-2.5c-0.1-5.2,0-10.5-0.1-15.7c0-0.5,0-1.1-0.1-1.6
	c-0.1-0.3-0.5-0.6-0.8-0.9c-0.2,0.3-0.6,0.7-0.7,1c-0.1,0.7-0.1,1.4,0,2.1c-0.1,15.7-0.3,31.3-0.2,46.9c0.1,1.9-1.3,3.6-3.3,3.7
	c-0.7,0-1.5-0.1-2.1-0.5c-1-0.9-1.7-2.1-1.8-3.4c-0.2-8.7-0.2-17.4-0.3-26c-0.1-0.9-0.4-1.8-0.7-2.7c-0.4,0.8-0.7,1.7-0.8,2.6
	c-0.1,8.8-0.1,17.5-0.1,26.3c0,3-2.4,4.6-5,3.6c-1.7-0.7-1.9-2-2-3.6c-0.1-15.4-0.2-30.8-0.3-46.2c0-1.2,0-2.4,0-3.6L286.3,25.1z"/>
<path class="st3" d="M189.6,300.3c-0.2,0.8-0.3,1.7-0.4,2.6c-0.1,8.8-0.1,17.7-0.1,26.5c0,2.4-1.3,3.7-3.5,3.8s-3.4-1-3.5-3.4
	c-0.1-7.5-0.3-15-0.3-22.5c-0.1-8.6,0-17.2-0.1-25.8c-0.1-0.7-0.4-1.3-0.7-1.9c-0.4,0.6-0.6,1.2-0.8,1.9c-0.1,5.2-0.1,10.3-0.1,15.5
	c0,1.9-0.4,3.5-2.7,3.5s-2.8-1.5-2.8-3.4c0-6.4,0-12.8,0-19.2c-0.1-4.3,3.2-7.9,7.5-8.1c5.1-0.2,10.3-0.2,15.5,0
	c4.1,0.2,7.3,3.6,7.4,7.7c0.1,6.8,0.1,13.6,0.1,20.4c0,2.2-1.4,3.2-3.3,2.8c-1.5-0.4-1.9-1.4-1.9-2.8c0-5.3,0-10.6-0.1-16
	c-0.1-0.8-0.2-1.5-0.5-2.3l-0.9,0.1c-0.1,0.9-0.2,1.7-0.2,2.6c-0.1,15.8-0.3,31.6-0.2,47.4c0.1,2-1.4,3.6-3.4,3.8
	c-0.6,0-1.2-0.1-1.8-0.4c-1.6-0.7-2-2-2-3.6c-0.1-8.7-0.1-17.4-0.2-26c0-0.9,0-1.8,0-2.7L189.6,300.3z"/>
<path class="st0" d="M199.8,194.6c0,0.9,0,1.8,0,2.7c-0.1,15.7-0.2,31.4-0.3,47.2c0,2.8-2.1,4.4-4.6,3.6c-1.8-0.6-2.5-1.9-2.5-3.8
	c0-8.6-0.1-17.2-0.2-25.8v-3l-1-0.2c-0.3,0.8-0.4,1.5-0.5,2.3c-0.1,8.8-0.1,17.7-0.1,26.5c0,2.6-1.2,4-3.5,4s-3.4-1-3.5-3.2
	c-0.2-5.9-0.3-11.7-0.3-17.6c0-9.9,0-19.9,0-29.8c0.1-0.5,0.1-0.9,0-1.4c-0.2-0.6-0.4-1.2-0.7-1.7c-0.3,0.5-0.8,1.1-0.8,1.6
	c-0.1,2.9,0,5.8,0,8.7c0,2.6,0,5.2,0,7.8c0.2,1.4-0.8,2.6-2.1,2.8c-0.2,0-0.4,0-0.6,0c-1.9,0-2.7-0.9-2.7-2.7c0-6.9-0.1-13.8,0-20.6
	c0.1-3.9,3.1-7,7-7.3c5.4-0.3,10.8-0.4,16.1-0.1c4.2,0.2,7.3,4.4,7.2,7.9c-0.2,6.6,0,13.3,0,19.9c0,1.9-0.7,3.1-2.6,3.1
	s-2.6-1.2-2.6-3.1c0-5.3,0-10.6-0.1-16c-0.1-0.7-0.3-1.4-0.6-2.1L199.8,194.6z"/>
<path class="st0" d="M40.5,281c0,0.8-0.1,1.6-0.1,2.5c-0.1,5.1-0.1,10.2-0.2,15.2c0,1.8-0.7,3-2.8,3s-2.6-1.2-2.6-3
	c0-6.7-0.1-13.5,0-20.2c0.1-3.8,2.7-7,6.3-7.3c5.7-0.4,11.4-0.5,17.1-0.2c4,0.2,6.8,3.7,6.9,7.9c0.1,6.6,0,13.3,0.1,19.9
	c0,1.9-0.9,3-2.8,3s-2.5-1.3-2.6-3c0-5.2-0.1-10.3-0.1-15.5V281l-1-0.2c-0.3,0.8-0.4,1.5-0.5,2.3c0,9,0,18,0,27
	c0,6.9,0,13.8-0.1,20.6c-0.1,3-2.3,4.5-4.9,3.6c-1.8-0.6-2.4-2-2.4-3.9c0-8.8,0-17.5,0-26.3c-0.1-0.8-0.2-1.7-0.4-2.5l-0.9,0.1
	c-0.1,0.9-0.2,1.7-0.2,2.6c-0.1,8.9-0.2,17.8-0.2,26.7c0,2.2-1.2,3.3-3.3,3.4s-3.5-1-3.7-3.3c-0.1-0.9,0-1.9-0.1-2.8
	c0-15,0-30-0.1-45.1c-0.1-0.9-0.2-1.7-0.4-2.6L40.5,281z"/>
<path d="M50,45.7c-0.2,0.8-0.4,1.6-0.5,2.4c0,8.8,0,17.5-0.1,26.3c0,1.1-0.5,2.7-1.3,3.2c-1.2,0.6-2.6,0.8-3.9,0.4
	c-1-0.6-1.6-1.7-1.7-2.9c-0.2-14.2-0.3-28.4-0.4-42.7c0-2.5,0-5,0-7.5l-0.8-0.3c-0.3,0.6-0.6,1.2-0.7,1.9c-0.1,5.3-0.1,10.6,0,15.9
	c0,2-0.9,3.2-2.9,3.2c-1.2,0.2-2.4-0.7-2.6-1.9c0-0.2,0-0.3,0-0.5c0-7.1-0.1-14.2,0-21.3c0.3-3.8,3.3-6.7,7.1-6.9
	c5.2-0.2,10.5-0.2,15.7-0.1c4.2,0,7.6,3.5,7.5,7.7c0,0,0,0,0,0c0.1,6.6,0.1,13.3,0.1,19.9c0,1.9-0.6,3.3-2.7,3.3s-2.5-1.6-2.5-3.4
	c0-5.2,0-10.5-0.1-15.7c-0.1-0.7-0.4-1.3-0.8-1.9c-0.3,0.6-0.6,1.2-0.7,1.9c-0.1,16-0.2,31.9-0.3,47.8c0,2.9-1.6,4.3-4.2,3.8
	c-1.8-0.2-3.1-1.8-2.9-3.6c-0.1-8.8-0.1-17.5-0.2-26.3c0-0.9-0.1-1.8-0.2-2.7L50,45.7z"/>
<path class="st0" d="M24.2,280.8c-0.2,0.8-0.4,1.6-0.5,2.4c0,12.2,0,24.4,0,36.6c0,3.6,0,7.2-0.1,10.8c-0.1,2.9-1.3,4.1-3.7,4.1
	s-3.6-1.5-3.6-4.3c0-8.8,0-17.5-0.1-26.3c-0.1-0.8-0.2-1.6-0.4-2.3l-0.8,0.1c-0.1,0.9-0.2,1.7-0.2,2.6c-0.1,8.9-0.1,17.8-0.3,26.8
	c0.1,1.9-1.3,3.4-3.2,3.5c-0.4,0-0.8,0-1.2-0.2c-2-0.5-2.6-2-2.6-3.9c0-8.1-0.1-16.3-0.1-24.4c0-7.6,0-15.2,0-22.8
	c0.1-0.5,0-1.1-0.1-1.6c-0.1-0.4-0.5-0.6-0.8-0.9c-0.2,0.3-0.6,0.7-0.7,1c-0.1,1.2,0,2.3,0,3.5l-0.1,13.1c0,1.9-0.6,3.2-2.8,3.2
	s-2.5-1.4-2.5-3.1c0-6.6-0.1-13.3,0-19.9c-0.1-4.1,3.1-7.5,7.1-7.6c5.3-0.3,10.6-0.3,15.9-0.1c3.9,0.2,7.1,3.4,7.2,7.3
	c0.2,7,0.1,13.9,0.1,20.9c0.1,1.4-0.8,2.6-2.2,2.7c-0.1,0-0.3,0-0.4,0c-1.3,0.2-2.5-0.7-2.7-2c0-0.2,0-0.4,0-0.6
	c-0.1-5.3-0.1-10.6-0.2-16c0-0.8-0.1-1.6-0.1-2.5L24.2,280.8z"/>
<path d="M129.6,110.7c0,0.9,0,1.8,0,2.7c-0.1,15.7-0.2,31.4-0.3,47.2c0,2.7-1.3,3.8-3.7,3.7c-2.2-0.1-3.4-1.3-3.4-3.9
	c-0.1-8.8-0.1-17.5-0.1-26.3c-0.1-0.9-0.2-1.7-0.3-2.6h-0.9c-0.2,0.8-0.3,1.7-0.4,2.6c-0.1,8.8-0.1,17.6-0.1,26.4
	c0,2.1-0.9,3.4-3,3.7c-2.4,0.3-3.9-0.9-3.9-3.4c-0.1-10.5-0.2-21-0.3-31.4c0-5.4,0-10.8,0-16.2c0-0.8-0.1-1.7-0.1-2.5l-0.9-0.2
	c-0.3,0.7-0.5,1.4-0.6,2.1c-0.1,5.3-0.1,10.6-0.1,16c0,1.6-0.6,2.7-2.4,2.9s-3-0.5-3-2.4c0-7.1-0.2-14.2,0.1-21.4
	c0.2-3.7,3.2-6.6,6.9-6.8c5.3-0.3,10.6-0.3,15.9-0.2c4.1,0.3,7.4,3.7,7.5,7.9c-0.1,6.4,0.1,12.8,0.1,19.2c0,1.1-0.3,2.3-1,3.2
	c-0.8,0.6-1.8,0.7-2.7,0.4c-0.9-0.6-1.4-1.5-1.5-2.5c-0.1-5.4-0.1-10.8-0.1-16.2c-0.1-0.7-0.3-1.4-0.5-2.1L129.6,110.7z"/>
<path class="st1" d="M147.1,366.7c-0.1,0.8-0.2,1.6-0.2,2.4c-0.1,5.2,0,10.3-0.2,15.5c-0.1,2.3-1.2,3.4-3.2,2.9c-0.8-0.2-2-1.3-2-2
	c-0.1-7.4-0.2-14.9,0-22.3c0.1-3.4,3.6-6.3,7.3-6.4c5.1-0.2,10.3-0.2,15.5,0c4,0.2,7.2,3.4,7.4,7.5c0.2,6.9,0.1,13.8,0.1,20.6
	c0.2,1.4-0.7,2.6-2.1,2.8c-0.2,0-0.4,0-0.6,0c-1.7,0-2.5-1-2.6-2.7c-0.1-5.3-0.1-10.6-0.2-15.9c0-0.8-0.1-1.6-0.2-2.4l-1-0.1
	c-0.2,0.8-0.4,1.6-0.4,2.5c0,14.7-0.1,29.4-0.1,44.1c0,1,0,2-0.1,3c-0.1,3-1.2,4.2-3.5,4.3s-3.8-1.5-3.8-4.3c0-8.8,0-17.5-0.1-26.3
	c-0.1-0.8-0.3-1.6-0.5-2.3l-1,0.2c0,0.9,0,1.8,0,2.7c-0.1,8.8-0.1,17.7-0.3,26.5c0.1,1.8-1.2,3.4-3,3.5c-0.3,0-0.7,0-1-0.1
	c-1.7,0-3-1.3-3-3c-0.1-1.4-0.1-2.8-0.1-4.2c0-14.7,0-29.4-0.1-44.1c-0.1-0.8-0.2-1.7-0.4-2.5L147.1,366.7z"/>
<path class="st0" d="M295.5,215.6v2.7c-0.1,8.8-0.1,17.5-0.2,26.3c0,2.5-1.2,3.5-3.4,3.6s-3.5-1-3.6-3.3c-0.1-2.1-0.1-4.2-0.1-6.3
	c0-13.9,0-27.9-0.1-41.8c-0.1-0.8-0.2-1.6-0.5-2.4l-1,0.1c0,0.8-0.1,1.6-0.1,2.4c0,5.2-0.1,10.3-0.1,15.5c0,2-1.1,3.2-3.1,2.8
	c-0.9-0.2-2.1-1.4-2.1-2.1c-0.1-7.3-0.2-14.5,0-21.8c0.2-3.4,3-6.2,6.4-6.5c5.6-0.4,11.2-0.4,16.9-0.2c4,0.4,7.1,3.8,7,7.8
	c0.1,6.6,0,13.3,0.1,19.9c0,1.9-0.8,3.1-2.6,3.2s-2.6-1.3-2.6-3.1c0-5.3-0.1-10.6-0.1-15.9c-0.1-0.7-0.3-1.4-0.6-2
	c-0.3,0.7-0.9,1.4-0.9,2c-0.1,14.8-0.1,29.6-0.1,44.4c0,1.1,0,2.2-0.1,3.3c-0.1,2.8-1.2,4-3.5,4s-3.7-1.4-3.8-4.1c0-5.5,0-11,0-16.4
	c0-3.4,0-6.9,0-10.3c-0.1-0.7-0.3-1.4-0.5-2.1L295.5,215.6z"/>
<path class="st0" d="M59.7,194.7c-0.2,0.8-0.3,1.7-0.4,2.5c0,14.2,0,28.3,0,42.5c0,1.9,0,3.8-0.2,5.6c0,1.8-1.5,3.4-3.3,3.4
	c-0.1,0-0.3,0-0.4,0c-2-0.1-3.5-1.7-3.4-3.6c0,0,0,0,0-0.1c-0.1-8.8-0.1-17.7-0.1-26.5c0-0.6,0-1.3-0.1-1.9
	c-0.1-0.3-0.4-0.6-0.7-0.6c-0.2,0-0.6,0.4-0.7,0.7c-0.1,0.6-0.1,1.3-0.1,1.9c-0.1,8.8-0.1,17.7-0.3,26.5c0,3-3,4.7-5.3,3
	c-1-0.9-1.6-2.2-1.6-3.6c-0.1-15.7-0.1-31.4-0.2-47.1c-0.1-0.9-0.2-1.7-0.4-2.6h-0.9c-0.2,0.8-0.3,1.5-0.3,2.3
	c-0.1,5.2-0.1,10.5-0.2,15.7c0,1.8-0.8,2.9-2.6,3c-1.5,0.1-2.7-0.5-2.7-2.2c0-7.4-0.2-14.7,0.1-22c0.1-3.4,3.6-6.4,7.2-6.5
	c5.2-0.1,10.5-0.1,15.7,0c3.6,0.1,7.1,3.2,7.2,6.8c0.3,7.2,0.2,14.4,0.2,21.6c0,1.7-1.1,2.5-2.8,2.5s-2.5-1.1-2.5-2.7
	c-0.1-5.2-0.1-10.3-0.1-15.5v-2.7L59.7,194.7z"/>
<path class="st1" d="M112.3,366.7c0,0.8-0.1,1.7-0.1,2.5c-0.1,5.1-0.1,10.2-0.1,15.2c0,1.9-0.8,3.2-2.9,3.1s-2.5-1.4-2.5-3.2
	c0-6.6-0.1-13.3,0-19.9c0-4.2,3.4-7.6,7.6-7.7c5-0.1,10-0.1,15,0c4.2,0.1,7.6,3.4,7.7,7.6c0.1,6.8,0.1,13.6,0.1,20.4
	c0,1.8-0.8,2.8-2.6,2.9s-2.6-1.1-2.7-2.8c0-5.2-0.1-10.5-0.1-15.7c0-0.8-0.1-1.6-0.1-2.5l-0.9-0.2c-0.2,0.8-0.4,1.6-0.5,2.4
	c0,10.9,0,21.7,0,32.6c0,4.9,0,9.7-0.1,14.5c-0.1,3-1.3,4.4-3.7,4.4s-3.6-1.6-3.6-4.5c0-8.7,0-17.4-0.1-26c-0.1-0.8-0.2-1.6-0.5-2.4
	l-0.9,0.1c0,0.8-0.1,1.6-0.1,2.5c0,7.8,0,15.6-0.1,23.5c0,1.4-0.1,2.8-0.3,4.2c-0.3,2-1.8,2.6-3.6,2.6c-1.7,0.1-3.1-1.1-3.2-2.7
	c0,0,0,0,0,0c-0.1-1-0.1-2-0.1-3c0-15.2,0-30.3-0.1-45.5c-0.1-0.9-0.2-1.7-0.4-2.6L112.3,366.7z"/>
<path d="M199.4,110.9c0,0.9,0,1.8,0,2.7c-0.1,15.7-0.2,31.4-0.3,47.1c0,2.7-1.1,3.8-3.4,3.9s-3.7-1.3-3.7-3.8
	c-0.1-8.8-0.1-17.5-0.2-26.3c-0.1-0.9-0.4-1.8-0.7-2.7c-0.4,0.9-0.7,1.8-0.9,2.7c-0.1,8.7-0.1,17.4-0.2,26c0,2.7-1.2,4-3.5,4
	s-3.5-1.1-3.5-3.9c-0.1-15.7-0.2-31.4-0.3-47.1c0-0.9-0.1-1.8-0.1-2.7l-0.9-0.1c-0.3,0.7-0.4,1.5-0.5,2.2
	c-0.1,5.2-0.1,10.5-0.1,15.7c0,2-0.8,3.1-2.9,3.1c-1.2,0.1-2.4-0.8-2.5-2c0-0.2,0-0.3,0-0.5c-0.1-7-0.2-14.1,0-21.1
	c0.3-3.9,3.5-7,7.4-7.2c5.1-0.2,10.3-0.2,15.5,0c4,0.2,7.2,3.4,7.4,7.4c0.2,6.7,0.2,13.3,0.2,19.9c0,1.1-0.4,2.2-1.2,3.1
	c-0.8,0.5-1.9,0.6-2.8,0.2c-0.8-0.6-1.2-1.5-1.3-2.5c-0.1-5.4-0.1-10.8-0.1-16.2c-0.1-0.7-0.3-1.5-0.5-2.1L199.4,110.9z"/>
<path class="st0" d="M216.7,194.4c0,0.9,0,1.8,0,2.8c-0.1,5.1-0.1,10.2-0.2,15.2c0.1,1.4-0.9,2.6-2.2,2.7c-0.2,0-0.4,0-0.6,0
	c-1.7,0-2.5-1-2.5-2.7c0-6.9-0.1-13.9,0.1-20.9c0.2-3.9,3.3-6.9,7.1-7.1c5.1-0.2,10.3-0.2,15.5-0.1c4.3,0,7.7,3.5,7.7,7.7
	c0,0,0,0.1,0,0.1c0.1,6.7,0,13.4,0.1,20.2c0,1.8-0.9,2.9-2.6,2.9s-2.6-1.1-2.7-2.8c-0.1-5.2-0.1-10.5-0.1-15.7
	c0-0.8-0.1-1.6-0.1-2.5l-0.9-0.2c-0.3,0.8-0.4,1.5-0.5,2.3c0,10.2,0,20.5,0,30.7c0,5.5,0,10.9-0.1,16.4c0,3-1.3,4.4-3.7,4.3
	s-3.6-1.5-3.6-4.4c0-8.7,0-17.4-0.1-26c-0.1-0.8-0.3-1.6-0.5-2.3l-1,0.2c0,0.9,0,1.8,0,2.7c-0.1,8.8-0.1,17.5-0.2,26.3
	c0,2.1-1,3.4-3.1,3.6c-1.7,0.4-3.4-0.7-3.8-2.4c-0.1-0.3-0.1-0.6-0.1-0.8c-0.1-2.3-0.1-4.5-0.1-6.8c0-13.8,0-27.5-0.1-41.3
	c-0.1-0.8-0.2-1.6-0.5-2.4L216.7,194.4z"/>
<path class="st1" d="M233.9,279c-0.3,0.8-0.5,1.6-0.5,2.4c0,8.4,0,16.7,0,25.1c0,7.3,0,14.7-0.1,22c0,2.9-1.1,4.2-3.5,4.2
	s-3.8-1.4-3.8-4.3c-0.1-8.8,0-17.5-0.1-26.3c-0.1-0.8-0.3-1.5-0.5-2.3l-1,0.2v2.5c0,8.7,0,17.4-0.1,26c0,2.9-1.3,4.1-3.7,4.1
	c-2,0-3.3-1-3.4-3.1c-0.1-1.7-0.1-3.4-0.1-5.2c0-14.1,0-28.1,0-42.2c0.1-0.6,0.1-1.2,0-1.9c-0.2-0.5-0.5-0.9-0.9-1.3
	c-0.2,0.4-0.6,0.9-0.6,1.3c-0.1,1.9,0,3.8,0,5.6c0,3.6,0,7.2-0.1,10.8c-0.1,2.4-1.1,3.5-3.1,3c-0.9-0.2-2.1-1.4-2.2-2.1
	c-0.2-7.3-0.2-14.5,0-21.8c0.3-3.5,3.1-6.3,6.6-6.6c5.4-0.2,10.8-0.4,16.1-0.2c4.3,0.1,7.7,3.7,7.5,8c0,0,0,0,0,0
	c0.1,6.5,0,13,0.1,19.5c0,1.9-0.5,3.4-2.6,3.5s-2.7-1.4-2.7-3.3c0-5.1-0.1-10.2-0.1-15.2c0-0.8-0.1-1.6-0.1-2.5L233.9,279z"/>
<path d="M59.8,110.1c-0.3,0.8-0.4,1.6-0.5,2.4c0,11.3,0,22.5,0,33.8c0,4.5,0,8.9-0.1,13.4c-0.1,3-1.3,4.4-3.7,4.3s-3.6-1.6-3.6-4.5
	c0-8.6,0-17.2-0.1-25.8c-0.1-0.8-0.2-1.6-0.4-2.4l-1,0.1c-0.1,0.9-0.2,1.8-0.2,2.6c-0.1,8.7-0.1,17.4-0.2,26c0,2.8-1.4,4.1-3.8,4
	s-3.3-1.4-3.3-4.2c0-15.3-0.1-30.7-0.1-46c0.1-0.6,0.1-1.2,0-1.9c-0.2-0.6-0.5-1.1-0.8-1.6c-0.3,0.5-0.6,1.1-0.7,1.7
	c-0.1,5.4-0.1,10.8-0.2,16.2c0,1.9-0.9,3-2.8,3c-1.4,0-2.5-0.6-2.5-2.2c0-7.4-0.1-14.7,0.1-22c0.1-3.3,3.4-6.3,6.8-6.4
	c5.4-0.2,10.8-0.2,16.2-0.1c3.9,0.2,7.1,3.3,7.2,7.3c0.2,7,0.1,13.9,0.1,20.9c0.1,1.4-0.9,2.6-2.2,2.7c-0.1,0-0.2,0-0.4,0
	c-1.3,0.2-2.5-0.7-2.7-2c0-0.2,0-0.4,0-0.6c-0.1-5.3-0.1-10.6-0.2-16c0-0.8,0-1.6,0-2.5L59.8,110.1z"/>
<path class="st1" d="M25.6,366.6c-0.2,0.8-0.4,1.6-0.5,2.4c0,12.9-0.1,25.8-0.1,38.7c0,3,0,5.9-0.1,8.9c-0.1,2.5-1.3,3.8-3.5,3.8
	c-1.9,0.1-3.6-1.3-3.8-3.3c0-0.2,0-0.4,0-0.6c-0.1-8.9,0-17.8-0.1-26.8c-0.1-0.8-0.3-1.6-0.5-2.3l-1,0.2v2.5c0,8.1,0,16.3-0.1,24.4
	c0,1.2-0.1,2.4-0.3,3.5c-0.4,1.8-1.9,2.4-3.6,2.3c-1.6,0.1-3-1-3.2-2.5c-0.2-1.5-0.2-2.9-0.2-4.4c0-14.8,0-29.6-0.1-44.3
	c-0.1-0.8-0.2-1.7-0.4-2.5l-0.9,0.1c-0.1,0.8-0.2,1.6-0.2,2.4c0,5.1,0,10.2-0.1,15.2c0,1.6-0.4,3-2.3,3.3s-3.1-0.6-3.1-2.5
	c0-7-0.1-14.1,0-21.1c0.3-3.9,3.5-7,7.4-7.1c5.2-0.2,10.3-0.2,15.5,0c4.1,0.2,7.3,3.5,7.5,7.6c0.1,6.8,0,13.6,0.1,20.4
	c0,1.8-0.9,2.8-2.6,2.9s-2.6-1.1-2.6-2.9c0-5.2-0.1-10.5-0.2-15.7c0-0.8-0.1-1.6-0.2-2.4L25.6,366.6z"/>
<path d="M233.7,24.3c-0.2,0.8-0.3,1.7-0.4,2.5c-0.1,14.9-0.1,29.7-0.1,44.6c0,1.1,0,2.2-0.1,3.3c-0.2,2.3-1.5,3.6-3.5,3.6
	c-2,0.1-3.6-1.5-3.7-3.5c0-0.1,0-0.1,0-0.2c-0.1-6.2-0.1-12.3-0.1-18.5c0-3,0-5.9,0-8.9c0-0.6-0.5-1.1-0.8-1.6
	c-0.3,0.5-0.6,1.1-0.7,1.7c-0.1,7.7-0.1,15.5-0.1,23.2c0,1.6-0.1,3.1-0.2,4.7c-0.1,1.9-1.7,3.3-3.5,3.2c0,0-0.1,0-0.1,0
	c-1.8,0.1-3.3-1.4-3.4-3.2c0-0.1,0-0.2,0-0.3c-0.1-3.2-0.1-6.4-0.1-9.6c0-12.8,0-25.7-0.1-38.5c-0.1-0.8-0.2-1.6-0.5-2.4l-0.9,0.1
	c-0.1,0.8-0.1,1.6-0.1,2.5c-0.1,5.2-0.1,10.3-0.1,15.5c0,1.8-0.9,3-2.8,3c-1.4,0-2.5-0.6-2.5-2.2c0-7.3-0.1-14.7,0.1-22.1
	c0.1-3.4,3.6-6.5,7.2-6.5c5.2-0.1,10.3-0.1,15.5,0c4.1,0.1,7.4,3.4,7.6,7.5c0.1,6.9,0.1,13.8,0.1,20.6c0.2,1.3-0.8,2.6-2.1,2.7
	c-0.2,0-0.3,0-0.5,0c-1.9,0.1-2.7-0.9-2.7-2.7c-0.1-5.2-0.1-10.3-0.2-15.5c0-0.9,0-1.8,0-2.7L233.7,24.3z"/>
<path d="M250.6,24.9c0,0.8-0.1,1.6-0.1,2.4c0,5,0,10-0.1,15c0,1.6-0.3,3-2.2,3.4c-1.3,0.4-2.6-0.2-3.1-1.5c-0.1-0.3-0.1-0.6-0.1-0.9
	c-0.1-7.2-0.1-14.4,0-21.6c0.1-3.6,3.6-6.7,7.4-6.8c5.1-0.1,10.1-0.1,15.2,0c4.1,0.1,7.4,3.4,7.6,7.5c0.1,6.9,0.1,13.8,0.1,20.6
	c0.2,1.3-0.7,2.6-2.1,2.8c-0.2,0-0.4,0-0.6,0c-1.8,0-2.5-1.1-2.5-2.7c0-5.2-0.1-10.3-0.2-15.5c0-0.9,0-1.8,0-2.7l-1-0.2
	c-0.3,0.7-0.5,1.5-0.6,2.3c0,8.9,0,17.8,0,26.7c0,7,0,13.9-0.1,20.9c0,2.7-1.3,4-3.5,4s-3.7-1.6-3.7-4.2c0-0.7,0-1.4,0-2.1
	c0-7.8,0-15.6,0-23.5c0.1-0.5,0.1-0.9,0-1.4c-0.2-0.6-0.5-1.1-0.8-1.6c-0.3,0.5-0.6,1.1-0.7,1.7c-0.1,8.1-0.1,16.1-0.1,24.2
	c0,1.3-0.1,2.7-0.2,4c-0.2,2.1-1.7,3-3.6,2.9c-1.7,0.2-3.2-1.1-3.4-2.8c0-0.1,0-0.3,0-0.4c-0.1-1.2-0.1-2.3-0.1-3.5
	c0-14.9,0-29.7-0.1-44.6c-0.1-0.9-0.2-1.8-0.4-2.6L250.6,24.9z"/>
<path class="st3" d="M93.5,280.7v2.7c-0.1,15.7-0.2,31.4-0.3,47.1c0,3-2,4.3-4.6,3.5c-1.8-0.5-2.5-1.9-2.5-3.7
	c0-8.6,0-17.2-0.1-25.8c-0.2-1-0.5-2-0.9-3c-0.3,0.9-0.6,1.9-0.7,2.9c-0.1,8.6-0.1,17.2-0.2,25.8c0,2.6-1.2,4-3.5,4s-3.4-1.2-3.5-4
	c-0.1-14.8-0.2-29.6-0.3-44.3c0.1-1.2,0.1-2.3,0-3.5c-0.2-0.7-0.4-1.3-0.8-1.9c-0.4,0.6-0.6,1.2-0.8,1.9c-0.1,5.2-0.1,10.5-0.1,15.7
	c0,2-0.7,3.2-2.8,3.2s-2.7-1.3-2.7-3.1c0-6.6-0.1-13.3,0-19.9c0-4.2,3.4-7.6,7.6-7.7c4.9-0.1,9.8-0.2,14.8-0.1s7.8,3.1,8,8
	c0.2,6.2,0.2,12.5,0.2,18.8c0,0.5,0,0.9-0.1,1.4c-0.1,1.7-0.9,2.9-2.8,2.8s-2.6-1.2-2.6-3c0-5.4,0-10.8-0.1-16.2
	c-0.1-0.7-0.3-1.4-0.6-2L93.5,280.7z"/>
<path d="M24.7,110.3c-0.2,0.8-0.4,1.6-0.5,2.4c0,9.5,0,18.9,0,28.4c0,6.3,0,12.5-0.1,18.8c0,2.9-1.1,4.3-3.5,4.3s-3.8-1.4-3.8-4.3
	c0-8.8,0-17.5-0.1-26.3c-0.1-0.8-0.2-1.6-0.5-2.4l-1.1,0.2c0,0.9,0,1.8,0,2.7c0,8.6,0,17.2-0.1,25.8c0,3-1.3,4.4-3.8,4.2
	c-1.9-0.1-3.1-1-3.3-3c-0.1-1.7-0.1-3.4-0.1-5.2c0-14.4,0-28.8-0.1-43.2c-0.1-0.9-0.3-1.7-0.5-2.6l-0.9,0.1c0,0.8-0.1,1.7-0.1,2.5
	c0,5,0,10-0.1,15c0,2.5-1.1,3.7-3.1,3.2c-0.9-0.2-2.1-1.4-2.1-2.1c-0.2-7.3-0.2-14.6,0-21.8c0.1-3.6,3.6-6.6,7.5-6.8
	c5.1-0.2,10.1-0.2,15.2,0c4.2,0.2,7.4,3.7,7.5,7.8c0.1,6.6,0,13.3,0.1,19.9c0,1.9-0.6,3.1-2.6,3.2s-2.7-1.2-2.7-3
	c0-5.2-0.1-10.3-0.2-15.5c0-0.8-0.1-1.6-0.1-2.5L24.7,110.3z"/>
<path class="st1" d="M95.4,366.9c-0.2,0.8-0.3,1.7-0.4,2.5c-0.1,14.9-0.1,29.9-0.1,44.8c0,0.9,0,1.9,0,2.8c-0.1,2.4-1.5,3.8-3.6,3.7
	c-2,0-3.6-1.6-3.6-3.6c0-0.1,0-0.1,0-0.2c-0.1-8.8,0-17.5-0.1-26.3c-0.2-0.9-0.4-1.9-0.9-2.7c-0.3,0.9-0.5,1.8-0.6,2.7
	c-0.1,8.6-0.1,17.2-0.2,25.8c0,3.2-2,4.8-4.5,4.1c-1.6-0.3-2.7-1.8-2.6-3.4c0-3.4-0.1-6.7-0.1-10.1c0-12.6,0-25.2,0-37.8
	c-0.1-0.9-0.3-1.7-0.5-2.5l-1,0.2c0,0.8,0,1.7,0,2.5c0,5,0.1,10-0.1,15c-0.1,1.2-0.8,2.4-1.8,3.1c-1.7,1-3.5-0.2-3.5-2.2
	c-0.1-7.1-0.1-14.2,0-21.3c0.3-3.7,3.3-6.7,7.1-6.9c5.3-0.1,10.6-0.2,15.9,0c4,0.3,7.2,3.5,7.3,7.5c0.1,6.8,0.1,13.6,0.1,20.4
	c0,1.8-0.8,2.9-2.6,2.9s-2.6-1-2.7-2.8c-0.1-5.2-0.1-10.5-0.2-15.7c0-0.8-0.1-1.7-0.1-2.5L95.4,366.9z"/>
<path class="st0" d="M155.8,215.7v2.8c-0.1,8.8-0.1,17.5-0.3,26.3c0,2.7-2,4.1-4.6,3.5c-2.1-0.5-2.4-2.1-2.4-4c0-15.5,0-31-0.1-46.5
	c-0.1-1.1-0.4-2.1-0.8-3.1c-0.4,1-0.7,2-0.8,3c-0.1,4.9-0.1,9.7-0.1,14.6c0,1.9-0.6,3.2-2.8,3.2s-2.6-1.3-2.6-3.1
	c0-6.6-0.1-13.3,0-19.9c0.1-4.5,3.1-7.4,7.6-7.7c4.9-0.2,9.8-0.3,14.8-0.1c4.3-0.1,7.9,3.3,8,7.6c0,0.1,0,0.3,0,0.4
	c0.2,6.6,0.1,13.3,0.1,20c0,1.9-1,3-2.8,3s-2.5-1.3-2.5-3c0-5.2,0-10.3-0.1-15.5v-2.5l-1-0.2c-0.3,0.7-0.4,1.5-0.5,2.3
	c0,10.9,0,21.8,0,32.6c0,5.2,0,10.3-0.2,15.5c-0.1,2.9-2.7,4.2-5.2,3c-1.4-0.7-2.2-2.2-2-3.7c0-8.8,0-17.5-0.1-26.3
	c-0.1-0.8-0.2-1.7-0.4-2.5L155.8,215.7z"/>
<path class="st0" d="M120.6,215.5c0,0.9,0,1.8,0,2.7c-0.1,8.7-0.1,17.4-0.2,26c0,2.7-1.2,4-3.5,4s-3.4-1.3-3.5-4
	c-0.1-15.7-0.1-31.4-0.1-47.1c-0.1-0.9-0.2-1.8-0.4-2.7H112c-0.2,0.8-0.3,1.6-0.4,2.4c-0.1,5.1-0.1,10.2-0.1,15.2
	c0,1.9-0.5,3.2-2.7,3.3s-2.7-1.2-2.7-3c0-6.7-0.2-13.4,0-20.2c0.1-4.5,3.4-7.5,7.9-7.6c4.8-0.1,9.7-0.1,14.5,0
	c4.2,0,7.6,3.3,7.8,7.5c0.2,6.9,0.1,13.8,0.2,20.6c0.2,1.4-0.8,2.6-2.1,2.8c-0.2,0-0.4,0-0.6,0c-1.9,0-2.6-1.1-2.6-2.9
	c0-5.3,0-10.6-0.1-16c-0.1-0.8-0.3-1.5-0.7-2.2c-0.4,0.7-0.7,1.5-0.8,2.3c-0.1,14.4-0.1,28.8-0.1,43.2c0,1.5,0,3-0.1,4.5
	c-0.2,2.7-1.4,3.9-3.7,3.8s-3.5-1.5-3.5-4c0-8.8,0-17.5-0.1-26.3c-0.1-0.9-0.2-1.7-0.4-2.6L120.6,215.5z"/>
<path class="st1" d="M252,304.6c0-7.7,0-15.3,0-23c0-0.6,0-1.2,0-1.9c-0.1-0.4-0.5-0.7-0.7-1c-0.3,0.4-0.8,0.7-0.8,1.1
	c-0.1,1.5-0.1,3.1-0.1,4.7c0,4.1-0.1,8.1-0.1,12.2c0,1.8-0.9,2.8-2.6,2.9s-2.7-0.9-2.7-2.7c0-7-0.2-13.9,0.1-20.9
	c0.2-4,3.5-7.2,7.6-7.1c4.9-0.1,9.8-0.1,14.8,0c4.4,0.1,7.7,3,7.9,7.4c0.2,6.9,0.2,13.8,0.2,20.6c0,1.8-0.8,2.9-2.7,2.9
	c-2,0-2.7-1.3-2.7-3.1l-0.1-15.5c0-0.6,0-1.2-0.1-1.9c0-0.2-0.4-0.6-0.5-0.6c-0.3,0.1-0.8,0.3-0.8,0.5c-0.1,0.7-0.1,1.4-0.1,2.1
	c0,14.5,0,28.9-0.1,43.4c0,1.5-0.1,3-0.2,4.5c0,1.8-1.5,3.3-3.3,3.2c-0.1,0-0.2,0-0.3,0c-1.9,0-3.5-1.5-3.5-3.4c0,0,0-0.1,0-0.1
	c-0.1-8.4-0.1-16.7-0.1-25.1c0.1-0.6,0.1-1.2,0-1.9c-0.2-0.7-0.5-1.5-0.8-2.1c-0.4,0.7-0.6,1.4-0.8,2.1c-0.1,8.8-0.2,17.7-0.3,26.5
	c0,2.8-1.4,4.2-3.7,4.1s-3.3-1.4-3.3-4.2c0-7.9,0-15.8,0-23.7L252,304.6z"/>
<path class="st3" d="M155,300.7c-0.2,0.8-0.4,1.5-0.5,2.3c-0.1,8.3,0,16.6-0.1,24.9c0,4.2-1.1,5.8-3.8,5.7s-3.4-1.3-3.4-5.8
	c-0.1-15.2-0.1-30.5-0.1-45.8c-0.1-0.8-0.2-1.6-0.5-2.4l-1,0.2c0,0.8-0.1,1.6-0.1,2.5c0,5.1,0,10.2-0.1,15.2c0,1.9-0.8,3.2-2.9,3.2
	c-1.6,0-2.5-0.7-2.6-2.4c0-7.1-0.1-14.2,0-21.4c0.1-3.6,3.5-6.9,7.3-7c5.2-0.2,10.5-0.2,15.7,0c4,0.3,7.1,3.5,7.3,7.5
	c0.1,6.7,0,13.5,0.1,20.2c0,2-0.6,3.2-2.8,3.2s-2.5-1.5-2.5-3.2c0-5.1,0-10.2-0.1-15.2c-0.1-0.9-0.1-1.7-0.3-2.6l-1-0.1
	c-0.2,0.9-0.3,1.8-0.4,2.8c-0.1,15.2-0.1,30.4-0.1,45.5c0,0.8,0,1.6,0,2.3c0,1.7-1.3,3.2-3.1,3.2c-0.1,0-0.2,0-0.3,0
	c-1.8,0.2-3.5-1-3.8-2.8c-0.2-0.9-0.2-1.9-0.2-2.8c0-8.2,0-16.4,0-24.6v-2.5L155,300.7z"/>
<path class="st2" d="M253.5,391.2v-23c0.1-0.5,0.1-1.1,0-1.6c-0.1-0.4-0.5-0.6-0.8-0.9c-0.3,0.3-0.5,0.6-0.7,1
	c-0.1,0.5-0.1,1.1,0,1.6c0,4.7,0,9.4,0,14.1c0,0.7,0,1.4-0.1,2.1c-0.2,1.4-1.5,2.3-2.9,2.1c0,0,0,0,0,0c-1.3,0.1-2.4-0.9-2.4-2.2
	c0-0.1,0-0.3,0-0.4c0-7-0.1-14.1,0-21.1c0.3-3.8,3.4-6.9,7.2-7.1c5.2-0.1,10.5-0.1,15.7,0c4.1,0.3,7.2,3.6,7.3,7.6
	c0.1,6.7,0,13.5,0.1,20.2c0,1.9-0.6,3.1-2.6,3.1s-2.6-1.3-2.6-3.1c0-5.3,0-10.7-0.1-16c-0.1-0.7-0.4-1.4-0.7-2
	c-0.4,0.6-0.7,1.3-0.9,2c-0.1,16-0.2,31.9-0.2,47.9c0,1.8-0.5,3.3-2.3,3.5c-1.4,0.1-2.8-0.2-4-1c-0.7-0.5-0.9-2.1-1-3.2
	c-0.1-4.9-0.1-9.9-0.1-14.8c0-3.8,0-7.5,0-11.3c-0.1-0.7-0.4-1.5-0.7-2.2c-0.4,0.6-0.7,1.3-0.8,2.1c-0.1,6.2,0,12.4,0,18.5
	c0.1,3,0,5.9-0.2,8.9c-0.3,2-2.1,3.3-4.1,3.1c-0.6-0.1-1.3-0.4-1.8-0.8c-0.8-1-1.2-2.3-1.2-3.6c-0.1-7.9,0-15.8,0-23.7L253.5,391.2z
	"/>
<path class="st3" d="M119.9,301.1c-0.3,0.7-0.5,1.5-0.6,2.2c0,8.4,0,16.7-0.1,25.1c0,3.9-1,5.4-3.5,5.5s-3.6-1.3-3.7-5.3
	c-0.1-15.2-0.1-30.5-0.2-45.8v-2.7l-1-0.2c-0.3,0.7-0.4,1.4-0.5,2.1c-0.1,5.2-0.1,10.5-0.1,15.7c0,1.8-0.7,3.1-2.6,3.2
	c-1.6,0.1-2.8-0.5-2.8-2.4c0-7.2-0.1-14.4,0-21.6c0.1-3.5,3.6-6.7,7.2-6.8c5.2-0.1,10.5-0.1,15.7,0c3.9,0.2,7.1,3.3,7.3,7.2
	c0.1,6.8,0.1,13.6,0.1,20.4c0,1.9-0.5,3.3-2.7,3.3s-2.5-1.6-2.5-3.4c0-4.9,0-9.9-0.1-14.8c-0.1-1-0.4-2-0.7-2.9
	c-0.4,0.9-0.7,1.8-0.8,2.8c-0.1,15.7-0.1,31.5-0.3,47.2c-0.1,1.3-0.7,2.5-1.8,3.3c-1.3,0.5-2.7,0.3-3.8-0.4c-0.9-1-1.5-2.3-1.4-3.7
	c-0.2-7-0.1-13.9-0.1-20.9c0-2.4,0-4.8,0-7.2L119.9,301.1z"/>
<path class="st0" d="M295.7,131.2c-0.3,0.7-0.5,1.5-0.5,2.2c0,8.1,0,16.3-0.1,24.4c0,1.1,0,2.2-0.1,3.3c-0.2,1.8-1.8,3.1-3.5,2.9
	c0,0-0.1,0-0.1,0c-1.8-0.1-3.2-0.9-3.3-3c-0.1-2.8-0.2-5.6-0.2-8.4c0-13.1,0-26.3,0-39.4c0.1-0.6,0-1.3,0-1.9
	c-0.1-0.4-0.5-0.7-0.9-1.1c-0.3,0.3-0.5,0.6-0.6,1c-0.1,0.5-0.1,1.1,0,1.6c0,4.9,0,9.9,0,14.8c0,2-0.7,3.4-2.9,3.4s-2.6-1.4-2.6-3.3
	c0-6.5,0-13,0-19.5c-0.1-4.3,3.2-7.8,7.4-7.9c0.1,0,0.2,0,0.3,0c4.9-0.1,9.7-0.1,14.5,0c4.3-0.1,7.9,3.3,8.1,7.6c0,0.2,0,0.4,0,0.6
	c0,6.5,0,13,0.1,19.5c0,1.9-0.6,3.3-2.7,3.3s-2.5-1.4-2.5-3.2c0-5.2,0-10.3-0.1-15.5c-0.1-0.8-0.4-1.6-0.8-2.4
	c-0.4,0.7-0.7,1.5-0.8,2.3c-0.1,15.2-0.1,30.3-0.2,45.5c0,0.9,0,1.7,0,2.6c0,2.1-1.3,3.1-3.2,3.3c-1.9,0.2-3.6-1.1-3.9-2.9
	c-0.1-0.9-0.2-1.7-0.1-2.6c0-8.2,0-16.4,0-24.6v-2.5L295.7,131.2z"/>
<path d="M154.5,46c-0.2,0.8-0.3,1.7-0.3,2.6c-0.1,8.8-0.1,17.7-0.2,26.5c0,2.4-1.1,3.6-3.3,3.7c-2.4,0.1-3.7-1-3.7-3.7
	c-0.1-11.5-0.2-23-0.3-34.5c0-4.4,0-8.8,0-13.1c0-0.8-0.1-1.6-0.2-2.4l-0.9-0.1c-0.2,0.7-0.4,1.5-0.5,2.3
	c-0.1,5.1-0.1,10.2-0.1,15.2c0,2-0.5,3.4-2.8,3.4s-2.6-1.6-2.6-3.3c0-6.5-0.1-13,0-19.5c-0.1-4.2,3.2-7.7,7.4-7.9c0,0,0,0,0,0
	c5.1-0.3,10.3-0.3,15.4-0.1c4.1,0.3,7.4,3.7,7.6,7.8c-0.1,6.4,0.1,12.8,0.2,19.2c0,0.5,0,0.9-0.1,1.4c0,1.4-1.1,2.5-2.4,2.6
	c-0.1,0-0.2,0-0.3,0c-1.4,0-2.5-1-2.5-2.4c0-0.1,0-0.2,0-0.3c0-5.2,0-10.5,0-15.7c0-0.6,0-1.3-0.1-1.9c-0.1-0.3-0.4-0.6-0.8-0.6
	c-0.2,0-0.6,0.4-0.7,0.7c-0.1,0.7-0.1,1.4-0.1,2.1c-0.1,15.6-0.2,31.3-0.3,46.9c0,2-0.6,3.5-2.9,3.8c-2.5,0.3-4.2-1.1-4.2-3.7
	c-0.1-8.8-0.1-17.7-0.1-26.5c-0.1-0.9-0.2-1.7-0.3-2.5L154.5,46z"/>
<path d="M155.9,131.1c-0.3,0.8-0.4,1.5-0.5,2.3c-0.1,8.8-0.1,17.5-0.1,26.3c0,2.1-0.7,3.7-2.9,4.1c-1.7,0.5-3.5-0.5-4-2.2
	c-0.1-0.3-0.1-0.6-0.1-0.8c-0.1-1.6-0.2-3.3-0.2-4.9c0-9.1-0.1-18.1-0.1-27.2c0-5.4,0-10.8,0-16.2c-0.1-0.8-0.3-1.6-0.7-2.4
	c-0.4,0.7-0.7,1.5-0.8,2.3c-0.1,4.6-0.1,9.2-0.1,13.8c0,0.6,0,1.2,0,1.9c0.2,1.4-0.9,2.7-2.3,2.9c-0.2,0-0.4,0-0.6,0
	c-1.8,0-2.6-1.1-2.6-2.9c0.1-6.8,0-13.6,0.1-20.4c0.1-4,3.3-7.2,7.4-7.4c5.1-0.1,10.3-0.2,15.5,0c4.2,0.1,7.5,3.5,7.5,7.7
	c0.1,6.6,0,13.3,0.1,19.9c0,1.9-0.6,3.3-2.8,3.2s-2.5-1.5-2.4-3.2c0-5.2,0-10.5-0.1-15.7c-0.2-0.7-0.4-1.5-0.8-2.1
	c-0.4,0.7-0.6,1.4-0.8,2.1c-0.1,16-0.2,31.9-0.2,47.9c0,1.9-0.7,3.5-2.6,3.5c-1.5,0-2.9-0.6-4-1.5c-0.7-0.6-0.6-2.2-0.6-3.3
	c-0.1-8.4-0.1-16.7-0.1-25.1c0-0.8,0-1.6,0-2.5L155.9,131.1z"/>
<path class="st2" d="M226.2,387c-0.2,0.8-0.3,1.6-0.4,2.5c0,8.8-0.1,17.5-0.1,26.3c0,1.9-0.6,3.4-2.6,3.9c-2.4,0.6-4.3-0.6-4.4-3
	c-0.2-3.1-0.3-6.2-0.3-9.4c0-12.8,0-25.5-0.1-38.3c0.1-0.6,0.1-1.2,0-1.9c-0.1-0.4-0.4-0.7-0.6-1c-0.3,0.4-0.7,0.7-0.8,1.1
	c-0.1,0.5-0.1,1.1-0.1,1.6c0,5,0,10,0,15c0,2-0.9,3.2-2.9,3.2s-2.6-1.2-2.6-3.1c0-6.6,0-13.3,0-20c0-4.1,3.3-7.5,7.4-7.6
	c5.1-0.1,10.2-0.2,15.2-0.1c4.3,0,7.7,3.4,7.7,7.7c0,0.1,0,0.2,0,0.3c0.1,6.6,0,13.1,0.1,19.7c0,2-0.7,3.3-2.8,3.2s-2.5-1.5-2.4-3.3
	c0-2.7,0-5.5,0-8.2c0-2.3,0.1-4.5,0-6.8c-0.2-1-0.5-1.9-0.9-2.8c-0.3,0.9-0.6,1.7-0.7,2.6c-0.1,2.6,0,5.2,0,7.7
	c-0.1,13.1-0.1,26.3-0.2,39.4c0,2.6-1.2,3.9-3.3,3.9s-3.6-1.3-3.8-3.8c-0.1-1.2-0.1-2.3-0.1-3.5c0-7.6,0-15.2-0.1-22.8v-2.5
	L226.2,387z"/>
<path d="M189.7,45.7c-0.2,0.7-0.4,1.5-0.4,2.3c-0.1,8.8-0.1,17.5-0.1,26.3c0,2-0.5,3.6-2.7,4.1c-2.4,0.6-4.2-0.6-4.4-3.1
	s-0.2-4.7-0.2-7c0-13.6-0.1-27.2-0.1-40.8c0-0.6,0-1.2-0.1-1.9c-0.1-0.3-0.4-0.7-0.7-0.7c-0.3,0.1-0.6,0.3-0.8,0.6
	c-0.1,0.5-0.1,1.1,0,1.6c0,5.1,0,10.2,0,15.3c0,1.7-0.4,3-2.3,3.3s-3.1-0.6-3.2-2.4c0-7.1-0.1-14.2,0-21.4c0.3-3.7,3.2-6.6,6.9-6.8
	c5.4-0.2,10.8-0.2,16.2,0c4,0.2,7.2,3.5,7.2,7.5c0.1,6.7,0.1,13.3,0.1,20c0,1.9-0.4,3.3-2.6,3.4s-2.6-1.4-2.6-3.3
	c0-5.2,0-10.5-0.1-15.7c0-0.7-0.6-1.3-0.9-2c-0.3,0.6-0.6,1.3-0.7,2c-0.1,15.9-0.2,31.8-0.2,47.6c0,1.7-0.3,3.1-2,3.8
	c-1.8,0.8-4,0-4.8-1.8c-0.2-0.4-0.3-0.8-0.3-1.3c-0.1-1.1-0.2-2.2-0.1-3.3c0-7.8,0-15.7-0.1-23.5c0-0.8,0-1.7,0-2.5L189.7,45.7z"/>
<path d="M14.8,46c-0.1,0.9-0.2,1.7-0.3,2.6c-0.1,8.9-0.1,17.9-0.2,26.7c0,1.9-1.5,3.5-3.5,3.5c-0.6,0-1.1-0.1-1.7-0.4
	c-1.6-0.7-1.9-2.1-1.9-3.7c0-15.5-0.1-31-0.2-46.4c-0.1-1.1-0.4-2.2-0.8-3.2c-0.4,1-0.6,2.1-0.7,3.2C5.5,33.1,5.5,38,5.5,42.8
	c0,1.8-0.6,3-2.6,3.1S0.1,44.8,0.1,43c0-6.8-0.1-13.6,0-20.4c0-3.9,3.1-7.1,7-7.3c5.4-0.3,10.8-0.4,16.1-0.1
	c3.9,0.2,7.1,3.4,7.1,7.4c0.2,6.9,0.2,13.8,0.2,20.6c0,1.9-1,3-2.9,3s-2.5-1.3-2.5-3.1c0-5.3,0-10.6-0.1-16c-0.2-0.7-0.4-1.4-0.8-2
	c-0.3,0.6-0.5,1.3-0.6,2c-0.1,14.4-0.1,28.8-0.1,43.2c0,1.6-0.1,3.3-0.2,4.9c-0.2,2.6-1.3,3.6-3.6,3.6s-3.5-1.4-3.5-3.8
	c-0.1-8.8-0.1-17.7-0.1-26.5c-0.1-0.9-0.2-1.7-0.4-2.6L14.8,46z"/>
<path class="st1" d="M51.4,387.3c-0.1,0.9-0.2,1.8-0.2,2.6c-0.1,8.8-0.1,17.7-0.2,26.5c0.2,1.9-1.2,3.6-3.1,3.7
	c-0.5,0-1.1,0-1.6-0.2c-1.8-0.5-2.2-1.9-2.3-3.6c0-11.8-0.1-23.6-0.1-35.4c0-4.2,0-8.4,0-12.7c0-0.6-0.6-1.2-0.9-1.8
	c-0.3,0.5-0.6,1.1-0.7,1.8c-0.1,5.2-0.1,10.5-0.1,15.7c0,1.9-0.4,3.2-2.7,3.3c-2.2,0.1-2.8-1.4-2.8-3.2c0-6.6-0.2-13.1,0-19.7
	c-0.1-4.2,3.2-7.7,7.4-7.8c0,0,0.1,0,0.1,0c5.1-0.3,10.3-0.2,15.4-0.1c4.1,0.3,7.3,3.6,7.4,7.7c0,6.7,0.1,13.5,0.2,20.2
	c0,1.8-0.8,3.1-2.7,3.2c-2.1,0-2.7-1.4-2.7-3.3c0-5.2,0-10.5-0.1-15.7c-0.1-0.7-0.3-1.4-0.7-2c-0.4,0.6-0.7,1.3-0.8,2
	c-0.1,14.5-0.1,28.9-0.1,43.4c0,1.6-0.1,3.3-0.2,4.9c-0.2,2.4-1.4,3.4-3.6,3.3c-1.8,0.1-3.4-1.3-3.5-3.1c0-0.2,0-0.3,0-0.5
	c-0.1-8.9-0.1-17.8-0.1-26.7c-0.1-0.9-0.2-1.7-0.4-2.5L51.4,387.3z"/>
<path class="st2" d="M191.1,387.3c-0.2,0.8-0.3,1.7-0.3,2.6c-0.1,8.8-0.1,17.7-0.1,26.5c0,2-0.8,3.3-2.9,3.6
	c-2.5,0.4-4.1-0.9-4.1-3.4c-0.1-10.7-0.2-21.4-0.2-32.1c0-5.3,0-10.6,0-16c-0.1-0.7-0.4-1.4-0.8-2.1c-0.4,0.7-0.6,1.4-0.7,2.2
	c-0.1,5.2-0.1,10.3-0.1,15.5c0,2-0.7,3.1-2.8,3.1s-2.6-1.4-2.6-3.1c0-6.6-0.1-13.3,0-19.9c0-4.1,3.2-7.4,7.2-7.6
	c5.2-0.3,10.5-0.3,15.7-0.2c4.1,0.3,7.4,3.7,7.5,7.8c-0.1,6.5,0.1,13,0.2,19.5c0,0.4,0,0.8-0.1,1.2c0,1.4-1.1,2.5-2.5,2.6
	c-0.1,0-0.2,0-0.3,0c-1.4,0-2.5-1-2.5-2.4c0-0.1,0-0.3,0-0.4c0-4,0-8,0-12c0-1.4,0.1-2.8,0-4.2c-0.2-0.7-0.4-1.4-0.8-2.1
	c-0.3,0.6-0.5,1.3-0.7,2c-0.1,1.7,0,3.4,0,5.2c-0.1,14.3-0.2,28.6-0.3,42.9c0,2.5-1.1,3.5-3.3,3.6s-3.7-1.2-3.7-3.8
	c-0.1-8.8-0.1-17.7-0.1-26.5c-0.1-0.8-0.2-1.7-0.4-2.5L191.1,387.3z"/>
<path class="st0" d="M24.1,195.1v2.7c0,12.8,0,25.5,0,38.2c0,2.7,0,5.3-0.2,8c-0.2,3.6-1.2,4.8-3.8,4.7s-3.4-1.4-3.4-4.8
	c0-8.5,0-17-0.1-25.6c-0.1-0.8-0.2-1.7-0.4-2.5h-0.9c-0.2,0.9-0.3,1.8-0.4,2.7c-0.1,8.8-0.1,17.7-0.2,26.5c0.1,1.9-1.3,3.6-3.3,3.7
	c-0.6,0-1.2-0.1-1.7-0.3c-1.6-0.6-2-2-2-3.6c0-14.3-0.1-28.6-0.2-42.9c0-1.8,0-3.6,0-5.4c-0.1-0.5-0.4-1.1-0.7-1.5
	c-0.3,0.5-0.9,1-0.9,1.6c-0.1,5.4-0.1,10.8-0.1,16.2c0,1.9-0.7,3-2.7,3c-1.6,0-2.6-0.6-2.7-2.3c0-7.3-0.2-14.5,0.1-21.8
	c0.3-3.5,3.1-6.3,6.6-6.5c5.5-0.3,10.9-0.4,16.4-0.1c4,0.4,7,3.7,7.2,7.6c-0.1,6.6,0.1,13.1,0.2,19.7c0,1.9-0.5,3.6-2.7,3.6
	s-2.7-1.6-2.7-3.6c0-5.2,0-10.3,0-15.5c-0.1-0.7-0.3-1.4-0.5-2.1L24.1,195.1z"/>
<path d="M94.4,110.7c0,0.9,0,1.8,0,2.7c0,14.3,0,28.6-0.1,42.9c0,1.6-0.1,3.1-0.2,4.7c-0.2,2.2-1.3,3.3-3.4,3.2
	c-1.8,0.2-3.4-1.1-3.6-3c0-0.2,0-0.3,0-0.5c-0.1-8.6-0.1-17.2-0.1-25.8c0.1-0.5,0.1-1.1,0-1.6c-0.2-0.6-0.5-1.2-0.9-1.8
	c-0.3,0.5-0.6,1.1-0.7,1.7c-0.1,4.9,0,9.9,0,14.8c0,4.1,0,8.1-0.1,12.2c0,2.7-1.2,3.9-3.5,4s-3.5-1.2-3.5-3.9
	c-0.1-15.6-0.1-31.3-0.3-46.9c-0.1-1-0.4-1.9-0.8-2.8c-0.4,0.9-0.7,1.8-0.9,2.8c-0.1,4.9-0.1,9.9-0.1,14.8c0,1.9-0.6,3.2-2.7,3.2
	s-2.7-1.3-2.7-3c0-6.6-0.1-13.3,0-19.9c0-4.2,3.4-7.6,7.6-7.7c0,0,0,0,0,0c4.8-0.2,9.7-0.1,14.5-0.2c4.6,0,8.3,3.7,8.3,8.3
	c-0.2,6.4,0.1,12.8,0.1,19.2c0,1.9-0.5,3.6-2.8,3.5S96,130,96,128.1c0-5.2,0-10.3,0-15.5c-0.1-0.7-0.3-1.4-0.6-2L94.4,110.7z"/>
<path d="M75.7,25.4c-0.1,0.9-0.2,1.7-0.3,2.6c-0.1,5.1-0.1,10.2-0.1,15.3c0,1.8-0.7,3-2.7,3.1s-2.7-1.2-2.7-3c0-6.7-0.2-13.5,0-20.2
	c0.1-4.6,3.6-7.6,8.2-7.7c4.8-0.1,9.5-0.1,14.3,0c4.2-0.1,7.7,3.2,7.8,7.4c0.2,6.8,0.2,13.6,0.2,20.4c0,1.8-0.7,3.1-2.7,3.1
	s-2.7-1.3-2.7-3.1c0-5.3,0-10.6-0.1-16c-0.1-0.7-0.3-1.4-0.6-2c-0.4,0.6-0.7,1.3-0.8,2c-0.1,14.6-0.1,29.1-0.1,43.7
	c0,1.6-0.1,3.3-0.2,4.9c0,1.8-1.4,3.2-3.1,3.2c-0.1,0-0.3,0-0.4,0c-1.9,0.1-3.5-1.4-3.5-3.3c0-0.1,0-0.2,0-0.3
	C86,67.1,86,58.7,86,50.2c0-1,0-2-0.1-3.1c0-0.3-0.4-0.6-0.7-0.8c-0.3,0.3-0.8,0.5-0.8,0.9c-0.1,0.7-0.1,1.4-0.1,2.1
	c-0.1,8.5-0.1,17.1-0.2,25.6c0,2.9-1.2,4.2-3.5,4.2s-3.5-1.3-3.5-4.2C77.1,59.3,77,43.7,77,28c-0.1-0.9-0.2-1.8-0.3-2.7L75.7,25.4z"
	/>
<path d="M128.6,25.2c0,0.9,0,1.8,0,2.7c-0.1,15.7-0.2,31.4-0.3,47.2c0,2.1-0.8,3.5-3.1,3.7c-1.8,0.3-3.6-0.9-4-2.7
	c-0.1-0.3-0.1-0.6,0-1c-0.1-8.8-0.1-17.5-0.1-26.3c-0.1-0.9-0.2-1.9-0.3-2.8l-0.9-0.1c-0.2,0.9-0.3,1.7-0.4,2.6
	c-0.1,8.8-0.1,17.7-0.2,26.5c0,2.7-1.6,4.1-4.2,3.7c-2.1-0.3-2.8-1.6-2.8-3.6c0-8.6-0.1-17.2-0.2-25.8c0-7.4,0-14.9,0-22.3
	c-0.1-0.7-0.4-1.3-0.8-1.9c-0.4,0.6-0.7,1.2-0.8,1.9c-0.1,5.2-0.1,10.3-0.1,15.5c0,1.9-0.4,3.4-2.7,3.5s-2.7-1.7-2.7-3.5
	c0-6.4-0.1-12.8,0-19.2c0.1-4.4,3-7.7,7.4-8c5.2-0.3,10.5-0.3,15.7-0.1c4,0.3,7.1,3.5,7.2,7.5c0.2,6.7,0.2,13.3,0.3,20
	c0,1.9-0.6,3.6-2.8,3.5s-2.6-1.8-2.6-3.7c0-5.2,0-10.3,0-15.5c-0.1-0.7-0.3-1.4-0.6-2L128.6,25.2z"/>
<path class="st0" d="M252.1,193.7c-0.2,0.7-0.4,1.5-0.5,2.3c-0.1,5.3,0,10.6-0.1,15.9c0,2-1.4,3.3-3.1,2.8c-1.1-0.4-1.9-1.4-2.2-2.5
	c-0.2-7-0.3-14.1,0-21.1c0.3-4,3.6-7.1,7.7-7.1c4.9-0.1,9.8-0.1,14.8,0c4.2-0.1,7.7,3.2,7.8,7.4c0.2,6.7,0.2,13.4,0.2,20.2
	c0,2.4-1.1,3.5-3,3.3s-2.4-1.4-2.4-3.1c0-5.3,0-10.6,0-15.9c-0.1-0.7-0.3-1.4-0.5-2.1l-1,0.2v2.7c0,13.5,0,27.1-0.1,40.6
	c0,2.4-0.1,4.9-0.3,7.3c0,1.8-1.4,3.2-3.2,3.2c-0.1,0-0.2,0-0.3,0c-1.9,0-3.4-1.5-3.5-3.4c-0.1-1.4-0.1-2.8-0.1-4.2
	c0-7.7,0-15.3-0.1-23c-0.1-0.8-0.4-1.5-0.8-2.1c-0.4,0.6-0.7,1.3-0.8,2.1c-0.1,9-0.1,18-0.2,27c0,3-2.9,4.8-5.3,3.1
	c-1-0.8-1.5-2-1.6-3.3c-0.2-15.4-0.2-30.8-0.3-46.2c0-0.9,0-1.7,0-2.6c-0.1-0.4-0.2-0.8-0.4-1.2L252.1,193.7z"/>
<path d="M155.2,0.8c3.5,0,6.3,2.8,6.3,6.3c0,0.1,0,0.1,0,0.2c-0.2,3.6-3.2,6.3-6.8,6.1c-3.4-0.2-6.1-2.9-6.1-6.3
	C148.7,3.5,151.6,0.7,155.2,0.8z"/>
<path d="M232.7,92.6c-0.1,3.6-3,6.4-6.6,6.3c-3.6-0.1-6.4-3-6.3-6.6c0.2-3.5,3.2-6.2,6.7-6.1C230,86.3,232.7,89.1,232.7,92.6z"/>
<path class="st0" d="M261.3,182.1c-3.5,0-6.3-2.7-6.4-6.2c0.1-3.5,3-6.3,6.5-6.4c3.5,0,6.4,2.9,6.4,6.4c0,3.5-2.9,6.2-6.3,6.2
	C261.5,182.1,261.4,182.1,261.3,182.1z"/>
<path class="st2" d="M191.6,342.1c3.5-0.1,6.4,2.6,6.5,6c0,0.1,0,0.2,0,0.2c0.1,3.6-2.7,6.5-6.3,6.6s-6.5-2.7-6.6-6.3
	c-0.1-3.6,2.7-6.5,6.3-6.6C191.5,342.1,191.5,342.1,191.6,342.1z"/>
<path class="st2" d="M296.5,353.5c-3.5,0.1-6.3-2.7-6.4-6.1c0-0.1,0-0.1,0-0.2c0.2-3.5,3.1-6.3,6.6-6.3c3.4,0.1,6.2,2.9,6.3,6.3
	c0,3.5-2.9,6.3-6.4,6.3C296.6,353.5,296.5,353.5,296.5,353.5z"/>
<path d="M191.5,86.5c3.5,0.2,6.2,3.2,6.1,6.7c-0.3,3.6-3.5,6.2-7,5.8c-3.3-0.3-5.9-3.1-5.8-6.5C185,89.1,188,86.4,191.5,86.5z"/>
<path class="st1" d="M260.1,267c-3.5,0.1-6.4-2.7-6.5-6.2c0,0,0-0.1,0-0.1c0.2-3.5,3.1-6.3,6.6-6.3c3.5-0.1,6.4,2.6,6.5,6.1
	c0.1,3.5-2.6,6.4-6.1,6.5C260.4,267,260.3,267,260.1,267z"/>
<path class="st0" d="M226.5,169.9c3.4-0.1,6.2,2.6,6.3,6c0,0.1,0,0.3,0,0.4c0,3.5-2.9,6.4-6.4,6.3c-3.5,0-6.4-2.9-6.3-6.4
	C220.1,172.7,223,169.9,226.5,169.9C226.5,169.9,226.5,169.9,226.5,169.9L226.5,169.9z"/>
<path d="M50.4,0.4c3.5,0.1,6.2,3,6.1,6.5c-0.1,3.5-3,6.2-6.5,6.1c-3.4-0.1-6.1-2.9-6.1-6.3C44,3.2,46.9,0.4,50.4,0.4z"/>
<path class="st1" d="M295.6,254.7c3.5-0.1,6.4,2.7,6.4,6.2c0,0,0,0.1,0,0.1c-0.2,3.4-2.9,6.2-6.3,6.3c-3.5,0-6.3-2.8-6.4-6.3
	S292.1,254.7,295.6,254.7L295.6,254.7z"/>
<path d="M121.2,86.2c3.5-0.1,6.4,2.6,6.5,6.1c0,0.1,0,0.1,0,0.2c0.1,3.6-2.7,6.6-6.2,6.7c-3.6,0.1-6.6-2.7-6.7-6.2
	c-0.1-3.6,2.7-6.6,6.2-6.7C121.1,86.3,121.1,86.3,121.2,86.2z"/>
<path class="st1" d="M52,342.1c3.4-0.1,6.3,2.7,6.3,6.1c0,0.1,0,0.2,0,0.3c-0.1,3.4-2.9,6.2-6.3,6.3c-3.5,0-6.4-2.8-6.6-6.3
	C45.5,344.9,48.4,342.1,52,342.1z"/>
<path class="st0" d="M261.1,86.3c3.5,0,6.3,2.8,6.3,6.3c0,0,0,0.1,0,0.1c0,3.6-2.9,6.5-6.4,6.5s-6.5-2.9-6.5-6.4
	c0-3.6,2.9-6.5,6.4-6.5C261,86.3,261,86.3,261.1,86.3z"/>
<path class="st0" d="M15.7,170.7c3.5-0.1,6.4,2.5,6.5,6c0,0.1,0,0.2,0,0.2c0.1,3.6-2.7,6.5-6.2,6.7c-3.6,0.1-6.5-2.7-6.7-6.2
	c-0.1-3.6,2.7-6.5,6.2-6.7C15.6,170.7,15.7,170.7,15.7,170.7z"/>
<path class="st3" d="M183.7,261.4c0.1-3.5,3-6.3,6.5-6.3c3.5,0.1,6.4,2.9,6.4,6.5c-0.2,3.4-3,6.1-6.4,6.2
	C186.6,267.8,183.7,264.9,183.7,261.4z"/>
<path class="st1" d="M225.2,254.8c3.4-0.1,6.2,2.6,6.3,6c0,0.1,0,0.3,0,0.4c0,3.5-2.9,6.4-6.4,6.3c-3.5,0-6.4-2.9-6.3-6.4
	C218.8,257.6,221.6,254.8,225.2,254.8C225.2,254.8,225.2,254.8,225.2,254.8z"/>
<path d="M190.2,0.5c3.5,0.1,6.2,3.1,6,6.6s-3.1,6.2-6.6,6c-3.4-0.1-6.1-3-6-6.4C183.7,3.2,186.6,0.4,190.2,0.5
	C190.1,0.5,190.2,0.5,190.2,0.5z"/>
<path class="st3" d="M120.3,268.5c-3.4,0.2-6.3-2.5-6.5-5.9c0-0.1,0-0.2,0-0.3c0.1-3.5,2.9-6.3,6.4-6.4c3.5,0,6.4,2.9,6.4,6.4
	c0,0,0,0,0,0C126.6,265.7,123.8,268.5,120.3,268.5C120.3,268.5,120.3,268.5,120.3,268.5z"/>
<path d="M91.6,7.3c0.1,3.5-2.7,6.3-6.1,6.4c-0.1,0-0.2,0-0.3,0c-3.5,0.1-6.3-2.6-6.5-6.1C78.8,4,81.6,1.2,85.1,1
	C88.7,1,91.6,3.8,91.6,7.3z"/>
<path d="M295.7,13.5c-3.5,0.1-6.4-2.6-6.5-6.1c0,0,0-0.1,0-0.1c0.1-3.5,3-6.3,6.5-6.3c3.5-0.1,6.4,2.6,6.5,6c0.1,3.5-2.6,6.4-6,6.5
	C296,13.5,295.8,13.5,295.7,13.5L295.7,13.5z"/>
<path class="st0" d="M156.5,170.3c3.4-0.1,6.3,2.6,6.4,6c0,0.1,0,0.2,0,0.3c0,3.5-2.9,6.3-6.4,6.3c0,0,0,0-0.1,0
	c-3.5,0-6.3-2.9-6.3-6.3S153.1,170.3,156.5,170.3L156.5,170.3z"/>
<path class="st0" d="M185.1,176.5c0.1-3.5,3-6.3,6.5-6.3c3.5,0,6.3,2.7,6.4,6.2c-0.1,3.5-2.9,6.4-6.4,6.4
	C188,182.8,185.1,180,185.1,176.5z"/>
<path class="st0" d="M290,176.6c-0.1-3.5,2.7-6.3,6.2-6.4c0.1,0,0.1,0,0.2,0c3.4-0.1,6.3,2.5,6.4,5.9c0,0,0,0.1,0,0.1
	c0.2,3.5-2.5,6.5-6,6.7c-3.5,0.2-6.5-2.5-6.7-6C290,176.9,289.9,176.7,290,176.6L290,176.6z"/>
<path class="st2" d="M226.7,354.3c-3.5,0.1-6.4-2.6-6.5-6.1c0-0.1,0-0.1,0-0.2c0-3.5,2.9-6.4,6.4-6.3c3.5-0.1,6.4,2.6,6.5,6
	c0.1,3.5-2.6,6.4-6,6.5C227,354.3,226.8,354.3,226.7,354.3L226.7,354.3z"/>
<path class="st2" d="M261.8,353.9c-3.4,0.1-6.3-2.5-6.4-5.9c0-0.1,0-0.2,0-0.4c0.1-3.5,3-6.3,6.5-6.3c3.4,0,6.2,2.8,6.3,6.3
	c0.1,3.4-2.6,6.3-6,6.4C262,353.9,261.9,353.9,261.8,353.9z"/>
<path d="M156.3,98.5c-3.4,0.1-6.3-2.6-6.5-6c0-0.1,0-0.2,0-0.2c0-3.5,2.9-6.4,6.5-6.4c0,0,0,0,0,0c3.5,0,6.3,2.8,6.3,6.3
	C162.6,95.6,159.8,98.5,156.3,98.5C156.3,98.5,156.3,98.5,156.3,98.5z"/>
<path d="M86.2,86.3c3.5-0.1,6.3,2.7,6.4,6.1c0,0.1,0,0.2,0,0.2c-0.1,3.4-2.9,6.2-6.3,6.2c-3.5,0-6.3-2.8-6.3-6.3
	S82.7,86.3,86.2,86.3z"/>
<path class="st0" d="M127.8,176.5c0,3.5-2.9,6.3-6.4,6.3c0,0,0,0,0,0c-3.5-0.1-6.3-2.8-6.4-6.3c0.1-3.5,2.9-6.3,6.4-6.5
	c3.5,0,6.4,2.8,6.4,6.4C127.8,176.4,127.8,176.4,127.8,176.5z"/>
<path class="st0" d="M86.5,170.8c3.5,0,6.4,2.8,6.4,6.3c0,0,0,0,0,0.1c0,3.6-2.8,6.5-6.4,6.5s-6.5-2.8-6.5-6.4
	S82.9,170.8,86.5,170.8C86.5,170.8,86.5,170.8,86.5,170.8z"/>
<path class="st1" d="M86.9,355.3c-3.4,0.2-6.3-2.4-6.5-5.8c0-0.1,0-0.3,0-0.4c0-3.5,2.9-6.4,6.4-6.4c3.5,0,6.3,2.7,6.3,6.2
	c0.2,3.4-2.4,6.3-5.8,6.4C87.2,355.3,87,355.3,86.9,355.3z"/>
<path d="M51.1,85.8c3.4-0.1,6.3,2.6,6.4,6c0,0.1,0,0.2,0,0.3c0,3.5-2.9,6.4-6.4,6.4c-3.5,0-6.4-2.9-6.4-6.4
	C44.7,88.7,47.5,85.8,51.1,85.8C51.1,85.8,51.1,85.8,51.1,85.8z"/>
<path class="st3" d="M85.1,256.2c3.5-0.1,6.4,2.6,6.5,6.1c0,0,0,0.1,0,0.1c-0.1,3.6-3.1,6.4-6.6,6.3c-3.4-0.1-6.1-2.8-6.3-6.1
	C78.8,259.1,81.6,256.3,85.1,256.2z"/>
<path d="M15.7,0.8c3.4,0.1,6.2,3,6.1,6.4c0,0,0,0,0,0c-0.2,3.5-3.1,6.3-6.6,6.2c-3.5-0.2-6.3-3.1-6.2-6.6C9.2,3.3,12.2,0.6,15.7,0.8
	z"/>
<path class="st0" d="M295.8,98.5c-3.4,0.1-6.2-2.7-6.3-6.1c0-0.1,0-0.2,0-0.3c0.1-3.5,3.1-6.3,6.6-6.2c3.5,0,6.3,2.8,6.3,6.3
	s-2.8,6.3-6.3,6.3C296.1,98.5,296,98.5,295.8,98.5L295.8,98.5z"/>
<path class="st0" d="M56.5,262.9c0,3.5-2.9,6.3-6.5,6.3c-3.5,0-6.3-2.9-6.3-6.5l0,0c0.1-3.4,2.9-6.2,6.3-6.1
	c3.4-0.1,6.3,2.5,6.4,5.9C56.5,262.7,56.5,262.8,56.5,262.9z"/>
<path d="M120.4,0.7c3.5-0.1,6.4,2.7,6.4,6.2c0,0.1,0,0.1,0,0.2c-0.1,3.6-3.1,6.3-6.7,6.2c-3.4-0.1-6.1-2.8-6.2-6.2
	C114,3.6,116.8,0.8,120.4,0.7z"/>
<path d="M22.4,92.4c0.1,3.5-2.8,6.4-6.3,6.5s-6.4-2.8-6.5-6.3c0-3.5,2.8-6.4,6.3-6.5c3.5-0.1,6.4,2.7,6.4,6.1
	C22.4,92.2,22.4,92.3,22.4,92.4z"/>
<path class="st0" d="M9.1,262.6c0.2-3.5,3.1-6.2,6.6-6.1c0,0,0,0,0,0c3.4,0.1,6.1,3,6,6.4c0,0.1,0,0.2,0,0.3c-0.2,3.4-3.1,6.1-6.5,6
	c-3.5-0.1-6.2-3-6.1-6.5C9.1,262.7,9.1,262.6,9.1,262.6z"/>
<path class="st3" d="M161.7,261.7c0,3.5-2.9,6.4-6.4,6.3c-3.4,0-6.1-2.7-6.3-6c0-3.5,2.7-6.4,6.2-6.6
	C158.7,255.4,161.6,258.2,161.7,261.7C161.7,261.7,161.7,261.7,161.7,261.7z"/>
<path d="M224.8,12.6c-3.4,0-6.1-2.8-6.1-6.2c0-0.1,0-0.3,0-0.4c0.3-3.4,3.1-6,6.5-6c3.5,0.1,6.3,3,6.2,6.5c0,0,0,0.1,0,0.1
	c-0.1,3.4-2.9,6.1-6.3,6C225,12.6,224.9,12.6,224.8,12.6z"/>
<path class="st1" d="M163,348.7c-0.1,3.5-3,6.3-6.5,6.2c-3.3-0.1-6-2.7-6.2-6c0-3.5,2.8-6.4,6.3-6.5c3.5-0.1,6.4,2.7,6.4,6.2
	C163,348.6,163,348.6,163,348.7z"/>
<path class="st0" d="M51.1,183c-3.4,0.1-6.3-2.5-6.5-5.9c0-0.1,0-0.2,0-0.3c0.1-3.5,3-6.3,6.5-6.3c3.4,0,6.2,2.8,6.3,6.2
	c0.1,3.4-2.6,6.2-6,6.3C51.4,183,51.2,183,51.1,183z"/>
<path class="st1" d="M17,355c-3.4,0.1-6.3-2.5-6.5-6c0-0.1,0-0.2,0-0.3c0.1-3.5,2.9-6.3,6.4-6.4c3.5,0,6.3,2.8,6.3,6.2
	c0.1,3.4-2.5,6.3-5.9,6.4C17.3,355,17.1,355,17,355z"/>
<path class="st1" d="M128.3,348.7c-0.1,3.5-3.1,6.3-6.6,6.1c-3.3-0.1-6-2.8-6.1-6.1c0-3.5,2.8-6.4,6.4-6.4c3.5,0,6.3,2.8,6.4,6.3
	C128.3,348.6,128.3,348.6,128.3,348.7z"/>
<path d="M260.1,13.1c-3.4,0.1-6.2-2.6-6.3-6c0-0.1,0-0.3,0-0.4c0.2-3.4,2.9-6.1,6.4-6.2c3.5,0,6.3,2.8,6.4,6.3c0,0,0,0.1,0,0.1
	c0,3.4-2.7,6.2-6,6.2C260.4,13.1,260.3,13.1,260.1,13.1z"/>
<circle class="st4" cx="355.7" cy="218.1" r="16.8"/>
<circle class="st1" cx="355.9" cy="359.5" r="16.8"/>
<circle class="st3" cx="355.9" cy="312.9" r="16.8"/>
<circle class="st0" cx="355.7" cy="264.1" r="16.8"/>
<circle class="st2" cx="355.7" cy="402.3" r="16.8"/>
<text transform="matrix(1 0 0 1 378.25 222.5)" class="st4 st5 st6">S</text>
<text transform="matrix(1 0 0 1 384.24 222.5)" class="st4 st5 st6">ob</text>
<text transform="matrix(1 0 0 1 397.65 222.5)" class="st4 st5 st6">r</text>
<text transform="matrix(1 0 0 1 401.46 222.5)" class="st4 st5 st6">evivie</text>
<text transform="matrix(1 0 0 1 430.64 222.5)" class="st4 st5 st6">n</text>
<text transform="matrix(1 0 0 1 437.25 222.5)" class="st4 st5 st6">t</text>
<text transform="matrix(1 0 0 1 441.15 222.5)" class="st4 st5 st6">es</text>
<text transform="matrix(1 0 0 1 378.76 270.29)" class="st4 st5 st6">F</text>
<text transform="matrix(1 0 0 1 384.06 270.29)" class="st4 st5 st6">allecidos a causa del impa</text>
<text transform="matrix(1 0 0 1 513.12 270.29)" class="st4 st5 st6">c</text>
<text transform="matrix(1 0 0 1 518.65 270.29)" class="st4 st5 st6">t</text>
<text transform="matrix(1 0 0 1 522.55 270.29)" class="st4 st5 st6">o</text>
<text transform="matrix(1 0 0 1 378.76 315.95)" class="st4 st5 st6">F</text>
<text transform="matrix(1 0 0 1 384.06 315.95)" class="st4 st5 st6">allecidos a causa de </text>
<text transform="matrix(1 0 0 1 484.86 315.95)" class="st4 st5 st6">g</text>
<text transform="matrix(1 0 0 1 491.5 315.95)" class="st4 st5 st6">r</text>
<text transform="matrix(1 0 0 1 495.36 315.95)" class="st4 st5 st6">a</text>
<text transform="matrix(1 0 0 1 501.05 315.95)" class="st4 st5 st6">v</text>
<text transform="matrix(1 0 0 1 506.7 315.95)" class="st4 st5 st6">es </text>
<text transform="matrix(1 0 0 1 378.76 330.35)" class="st4 st5 st6">he</text>
<text transform="matrix(1 0 0 1 391.43 330.35)" class="st4 st5 st6">r</text>
<text transform="matrix(1 0 0 1 395.4 330.35)" class="st4 st5 st6">idas</text>
<text transform="matrix(1 0 0 1 378.76 363.56)" class="st4 st5 st6">F</text>
<text transform="matrix(1 0 0 1 384.06 363.56)" class="st4 st5 st6">allecidos a causa del alud</text>
<text transform="matrix(1 0 0 1 379.67 401.62)" class="st4 st5 st6">F</text>
<text transform="matrix(1 0 0 1 384.97 401.62)" class="st4 st5 st6">allecidos a causa de las</text>
<text transform="matrix(1 0 0 1 379.67 416.02)" class="st4 st5 st6">dificiles </text>
<text transform="matrix(1 0 0 1 419.85 416.02)" class="st4 st5 st6">c</text>
<text transform="matrix(1 0 0 1 425.15 416.02)" class="st4 st5 st6">ondiciones</text>
</svg>
